<svg width="75" height="74" viewBox="0 0 75 74" fill="none" xmlns="http://www.w3.org/2000/svg">
<path d="M0 73.9994V71.6936H2.29709V55.5488H13.8695V71.6516H18.4781V43.9764H30.0491V71.6328H34.6809V34.7185H46.2243V71.6371H50.8562V39.3416H53.1924C53.1924 37.7079 53.2069 36.1524 53.1677 34.5983C53.1648 34.4621 52.8259 34.2695 52.6145 34.2116C46.6081 32.5865 42.4137 28.9178 40.3136 23.0491C36.5609 12.563 43.6868 1.31358 54.774 0.104197C64.2477 -0.92993 72.7872 5.84983 73.8793 15.2685C73.8981 15.4293 73.9662 15.5857 74.0111 15.7436V18.9242C73.9691 19.0588 73.9024 19.1906 73.8865 19.3268C73.5114 22.6146 72.2846 25.5518 70.2265 28.1328C67.757 31.2279 64.5765 33.2325 60.7398 34.2087C60.5153 34.2652 60.1662 34.4925 60.1619 34.6475C60.1184 36.1799 60.1358 37.7122 60.1358 39.3228H62.4705V71.6864H74.0111V73.9994H0ZM37.0359 71.6342H43.8867V37.033H37.0359V71.6342ZM55.5011 39.2547H57.8488V32.3417C61.9796 31.8985 65.4324 30.2155 68.0974 27.0726C70.7769 23.9137 72.0225 20.2248 71.6343 16.1056C70.9116 8.42501 64.8154 2.57799 57.4013 2.3086C49.6395 2.02762 43.119 7.28225 41.8286 14.931C41.2202 18.5331 41.901 21.9425 43.8085 25.055C46.4749 29.4059 50.4463 31.7537 55.5025 32.3635V39.2547H55.5011ZM60.0851 71.6516V41.6749H53.23V71.6516H60.0851ZM20.8665 46.2764V71.627H27.7158V46.2764H20.8665ZM11.5144 71.653V57.8661H4.62605V71.653H11.5159H11.5144Z" fill="white"/>
<path d="M74.0111 41.6184H67.1241V39.3054H74.0111V41.6184Z" fill="white"/>
<path d="M74.0111 46.2445H67.1241V43.9315H74.0111V46.2445Z" fill="white"/>
<path d="M74.0111 50.8706H67.1241V48.5576H74.0111V50.8706Z" fill="white"/>
<path d="M74.0111 55.4966H67.1241V53.1836H74.0111V55.4966Z" fill="white"/>
<path d="M74.0111 60.1212H67.1241V57.8082H74.0111V60.1212Z" fill="white"/>
<path d="M74.0111 64.7473H67.1241V62.4343H74.0111V64.7473Z" fill="white"/>
<path d="M74.0111 69.3733H67.1241V67.0603H74.0111V69.3733Z" fill="white"/>
<path d="M32.953 27.7447H30.1229V25.4765H36.965V32.3113H34.6997V29.4161C34.3941 29.7014 34.2044 29.8694 34.0248 30.0475C31.0948 32.9761 28.1619 35.9004 25.2434 38.8405C24.9132 39.1722 24.5888 39.3214 24.1152 39.3156C21.876 39.291 19.6354 39.3228 17.3962 39.2924C16.8458 39.2852 16.4533 39.4575 16.0594 39.824C11.5231 44.0329 6.9724 48.2273 2.42455 52.4261C2.28406 52.5565 2.13778 52.6796 1.93067 52.8621C1.42229 52.3088 0.926954 51.7686 0.38382 51.1776C1.108 50.5041 1.80611 49.8495 2.50856 49.2006C6.77252 45.264 11.0336 41.323 15.3135 37.4038C15.5641 37.1749 15.9783 37.0156 16.3186 37.0112C18.6302 36.9779 20.9418 37.004 23.2548 36.9808C23.5344 36.9779 23.8892 36.878 24.0789 36.6897C26.9901 33.8118 29.8796 30.9108 32.7734 28.0155C32.8198 27.9692 32.8487 27.904 32.9545 27.7461L32.953 27.7447Z" fill="white"/>
<path d="M69.3836 17.3541C69.3705 24.3671 63.6423 30.0635 56.6148 30.0504C49.6033 30.0374 43.92 24.3019 43.9432 17.2658C43.9678 10.2485 49.6917 4.58978 56.7437 4.6144C63.7248 4.63757 69.3966 10.3557 69.3836 17.3556V17.3541ZM56.6496 6.92598C50.9213 6.93032 46.2663 11.5795 46.2576 17.3064C46.2489 23.0578 50.9286 27.7418 56.6815 27.7389C62.401 27.7345 67.0662 23.0708 67.072 17.3498C67.0778 11.5853 62.4155 6.92163 56.6496 6.92598Z" fill="white"/>
<path d="M61.658 14.6124C61.2235 15.031 60.7065 15.5292 60.1604 16.055C59.4696 15.3207 58.7642 14.5704 58.0589 13.8216L57.8619 13.9317V24.2237H55.5373V13.9027C54.7682 14.7167 54.0599 15.4655 53.3256 16.2433C52.6406 15.5263 52.1351 14.9962 51.6745 14.5139C53.3271 12.8613 55.0072 11.1812 56.6206 9.56778C58.2312 11.1812 59.92 12.8715 61.658 14.6124Z" fill="white"/>
</svg>
