<svg width="569" height="427" viewBox="0 0 569 427" fill="none" xmlns="http://www.w3.org/2000/svg">
<path d="M400.687 98.4498C399.506 98.4498 398.311 98.3967 397.142 98.2907C396.822 98.261 396.587 97.9789 396.616 97.6607C396.646 97.3403 396.926 97.107 397.246 97.1346C399.537 97.3425 401.896 97.3403 404.183 97.1303C404.501 97.1028 404.785 97.3361 404.815 97.6543C404.845 97.9746 404.609 98.2567 404.289 98.2864C403.101 98.3967 401.888 98.4519 400.687 98.4519V98.4498ZM390.269 97.0115C390.216 97.0115 390.163 97.0052 390.11 96.9903C387.819 96.3412 385.575 95.4736 383.439 94.4108C383.152 94.2687 383.036 93.9187 383.178 93.6323C383.32 93.3459 383.67 93.2292 383.956 93.3714C386.027 94.4023 388.205 95.2445 390.426 95.8724C390.736 95.9594 390.914 96.2818 390.827 96.5894C390.755 96.8461 390.522 97.0115 390.269 97.0115ZM411.16 96.9967C410.908 96.9967 410.674 96.8291 410.602 96.5745C410.515 96.267 410.693 95.9445 411.001 95.8575C413.222 95.2254 415.396 94.3811 417.467 93.348C417.753 93.2038 418.103 93.3205 418.245 93.609C418.389 93.8953 418.273 94.2454 417.984 94.3875C415.85 95.4524 413.608 96.3242 411.317 96.9755C411.264 96.9903 411.211 96.9988 411.158 96.9988L411.16 96.9967ZM377.707 90.7643C377.586 90.7643 377.463 90.7261 377.357 90.6476C375.456 89.2136 373.676 87.5929 372.069 85.8344C371.852 85.5968 371.869 85.2298 372.105 85.0134C372.342 84.7971 372.709 84.814 372.926 85.0495C374.485 86.7571 376.211 88.3269 378.057 89.7185C378.314 89.9115 378.365 90.2764 378.172 90.5331C378.057 90.6837 377.883 90.7643 377.707 90.7643ZM423.71 90.7325C423.534 90.7325 423.36 90.654 423.245 90.5012C423.052 90.2446 423.101 89.8818 423.357 89.6867C425.199 88.293 426.923 86.719 428.483 85.0092C428.699 84.7737 429.066 84.7568 429.303 84.971C429.541 85.1874 429.558 85.5544 429.342 85.7919C427.736 87.5526 425.958 89.1754 424.06 90.6137C423.956 90.6922 423.833 90.7303 423.71 90.7303V90.7325ZM368.244 80.4102C368.051 80.4102 367.86 80.3126 367.75 80.1365C366.489 78.1107 365.414 75.9597 364.551 73.7429C364.434 73.4438 364.582 73.1065 364.882 72.9899C365.181 72.8732 365.518 73.0217 365.632 73.3208C366.468 75.4718 367.514 77.5592 368.736 79.5235C368.906 79.795 368.823 80.1535 368.549 80.3232C368.454 80.3826 368.348 80.4102 368.244 80.4102ZM433.158 80.3635C433.054 80.3635 432.948 80.3359 432.852 80.2766C432.581 80.1068 432.496 79.7483 432.666 79.4768C433.886 77.5104 434.927 75.4209 435.761 73.2678C435.877 72.9687 436.213 72.8202 436.512 72.9368C436.811 73.0535 436.959 73.3887 436.843 73.6878C435.983 75.9067 434.91 78.0598 433.652 80.0878C433.542 80.2659 433.353 80.3635 433.158 80.3635ZM363.157 67.3387C362.883 67.3387 362.639 67.1435 362.586 66.8657C362.149 64.5343 361.927 62.1394 361.922 59.7466C361.922 59.4262 362.181 59.1653 362.501 59.1653C362.822 59.1653 363.083 59.4241 363.083 59.7444C363.087 62.0651 363.303 64.3901 363.725 66.6514C363.785 66.9675 363.577 67.2708 363.261 67.3302C363.225 67.3366 363.189 67.3408 363.153 67.3408L363.157 67.3387ZM438.224 67.2836C438.188 67.2836 438.154 67.2814 438.118 67.2729C437.801 67.2136 437.594 66.9102 437.653 66.5963C438.073 64.3349 438.285 62.01 438.285 59.6893C438.285 59.369 438.544 59.0529 438.864 59.0529C439.185 59.0529 439.443 59.2544 439.445 59.5747V59.632C439.445 62.0821 439.227 64.4771 438.792 66.8084C438.741 67.0884 438.495 67.2836 438.221 67.2836H438.224ZM363.138 53.3126C363.102 53.3126 363.068 53.3105 363.032 53.302C362.716 53.2448 362.508 52.9414 362.565 52.6253C362.996 50.2813 363.649 47.9648 364.506 45.7438C364.621 45.4447 364.958 45.2962 365.257 45.4108C365.556 45.5253 365.705 45.8626 365.59 46.1617C364.759 48.317 364.124 50.5613 363.706 52.8353C363.655 53.1154 363.411 53.3105 363.136 53.3105L363.138 53.3126ZM438.202 53.1472C437.929 53.1472 437.685 52.952 437.632 52.6741C437.203 50.4022 436.558 48.16 435.718 46.009C435.602 45.7099 435.75 45.3726 436.047 45.2559C436.346 45.1392 436.684 45.2877 436.8 45.5847C437.668 47.8036 438.332 50.1158 438.773 52.4577C438.832 52.7738 438.625 53.0772 438.311 53.1366C438.274 53.1429 438.238 53.1472 438.202 53.1472ZM368.182 40.2263C368.078 40.2263 367.972 40.1987 367.877 40.1393C367.603 39.9717 367.518 39.6132 367.688 39.3396C368.94 37.3137 370.388 35.3918 371.992 33.629C372.209 33.3915 372.576 33.3745 372.813 33.5909C373.051 33.8072 373.068 34.1742 372.851 34.4118C371.294 36.1237 369.89 37.9883 368.677 39.9527C368.566 40.1308 368.377 40.2284 368.182 40.2284V40.2263ZM433.099 40.0842C432.905 40.0842 432.715 39.9866 432.604 39.8105C431.382 37.8526 429.97 35.9943 428.406 34.2888C428.19 34.0533 428.205 33.6842 428.442 33.4678C428.678 33.2514 429.047 33.2663 429.263 33.5039C430.875 35.2624 432.331 37.1759 433.591 39.1953C433.76 39.4669 433.678 39.8254 433.406 39.9951C433.311 40.0545 433.205 40.0842 433.099 40.0842ZM377.618 29.8425C377.442 29.8425 377.27 29.764 377.155 29.6134C376.962 29.3589 377.011 28.994 377.266 28.7988C379.166 27.3563 381.207 26.0836 383.335 25.0187C383.621 24.8765 383.971 24.9911 384.115 25.2775C384.26 25.5638 384.143 25.9139 383.857 26.0581C381.793 27.0933 379.813 28.3258 377.97 29.7258C377.864 29.8064 377.741 29.8446 377.62 29.8446L377.618 29.8425ZM390.157 23.5592C389.904 23.5592 389.671 23.3937 389.599 23.1371C389.51 22.8295 389.69 22.507 389.998 22.4179C392.285 21.7646 394.648 21.3191 397.026 21.0964C397.346 21.0645 397.628 21.3021 397.658 21.6203C397.688 21.9406 397.452 22.2228 397.134 22.2525C394.828 22.4689 392.535 22.8995 390.318 23.5337C390.265 23.5486 390.21 23.5571 390.159 23.5571L390.157 23.5592Z" fill="#92B5F2"/>
<path d="M423.071 31.0836H419.955V21.1601H423.071V31.0836ZM420.254 30.7845H422.77V21.4613H420.254V30.7845Z" fill="#92B5F2"/>
<path d="M418.273 31.0835H415.157V17.679H418.273V31.0835ZM415.456 30.7844H417.972V17.9781H415.456V30.7844Z" fill="#92B5F2"/>
<path d="M413.474 31.0836H410.358V14.041H413.474V31.0836ZM410.657 30.7845H413.173V14.3401H410.657V30.7845Z" fill="#92B5F2"/>
<path d="M427.869 31.0836H424.753V17.6006H427.869V31.0836ZM425.052 30.7845H427.568V17.9018H425.052V30.7845Z" fill="#92B5F2"/>
<path d="M432.668 31.0836H429.552V14.705H432.668V31.0836ZM429.851 30.7845H432.367V15.0062H429.851V30.7845Z" fill="#92B5F2"/>
<path d="M422.121 15.248C422.108 15.248 422.093 15.248 422.08 15.2416L411.3 12.1636C411.219 12.1403 411.175 12.0576 411.196 11.9791C411.219 11.8985 411.302 11.8518 411.381 11.8773L422.102 14.9383L432.744 9.17047C432.816 9.13016 432.908 9.15774 432.948 9.22986C432.988 9.30199 432.961 9.3932 432.889 9.43351L422.191 15.231C422.17 15.2438 422.144 15.2501 422.119 15.2501L422.121 15.248Z" fill="#92B5F2"/>
<path d="M432.398 11.5421C432.379 11.5421 432.36 11.5378 432.341 11.5315C432.265 11.4997 432.229 11.4127 432.261 11.3363L433.222 9.01985H430.648C430.566 9.01985 430.498 8.95197 430.498 8.86924C430.498 8.78651 430.566 8.71863 430.648 8.71863H433.446C433.497 8.71863 433.544 8.74408 433.572 8.78439C433.599 8.82681 433.605 8.87773 433.584 8.92439L432.538 11.4466C432.515 11.5039 432.458 11.54 432.401 11.54L432.398 11.5421Z" fill="#92B5F2"/>
<path d="M559.074 352.41C553.601 352.41 549.149 347.958 549.149 342.485C549.149 337.012 553.601 332.559 559.074 332.559C564.547 332.559 569 337.012 569 342.485C569 347.958 564.547 352.41 559.074 352.41ZM559.074 333.348C554.036 333.348 549.938 337.447 549.938 342.485C549.938 347.523 554.036 351.621 559.074 351.621C564.113 351.621 568.211 347.523 568.211 342.485C568.211 337.447 564.113 333.348 559.074 333.348Z" fill="#92B5F2"/>
<path d="M559.074 338.219C556.622 338.219 554.268 337.317 552.445 335.68L552.971 335.092C554.649 336.598 556.817 337.428 559.074 337.428C561.331 337.428 563.487 336.602 565.16 335.105L565.686 335.692C563.866 337.319 561.518 338.217 559.074 338.217V338.219Z" fill="#92B5F2"/>
<path d="M553.109 350.022L552.594 349.426C554.393 347.873 556.694 347.018 559.074 347.018C561.455 347.018 563.735 347.867 565.532 349.404L565.018 350.003C563.366 348.586 561.255 347.805 559.074 347.805C556.894 347.805 554.766 348.592 553.109 350.022Z" fill="#92B5F2"/>
<path d="M559.074 352.41C556.2 352.41 553.949 348.051 553.949 342.485C553.949 336.919 556.2 332.559 559.074 332.559C561.949 332.559 564.199 336.919 564.199 342.485C564.199 348.051 561.949 352.41 559.074 352.41ZM559.074 333.348C556.724 333.348 554.738 337.532 554.738 342.485C554.738 347.438 556.724 351.621 559.074 351.621C561.425 351.621 563.41 347.438 563.41 342.485C563.41 337.532 561.425 333.348 559.074 333.348Z" fill="#92B5F2"/>
<path d="M559.469 332.956H558.68V352.018H559.469V332.956Z" fill="#92B5F2"/>
<path d="M568.605 342.092H549.543V342.882H568.605V342.092Z" fill="#92B5F2"/>
<path d="M535.626 157.742H519.313C519.198 157.742 519.107 157.651 519.107 157.537V136.502C519.107 136.387 519.198 136.296 519.313 136.296H532.057C532.108 136.296 532.159 136.315 532.198 136.351L535.766 139.652C535.808 139.69 535.831 139.745 535.831 139.803V157.539C535.831 157.653 535.74 157.745 535.626 157.745V157.742ZM519.518 157.331H535.42V139.892L531.977 136.708H519.518V157.331Z" fill="#92B5F2"/>
<path d="M535.625 140.006H535.623L532.096 139.966C531.983 139.966 531.894 139.875 531.892 139.762L531.852 136.502C531.852 136.387 531.941 136.296 532.055 136.294C532.18 136.29 532.263 136.383 532.263 136.497L532.301 139.556L535.63 139.595C535.744 139.595 535.833 139.69 535.833 139.802C535.833 139.915 535.74 140.006 535.628 140.006H535.625Z" fill="#92B5F2"/>
<path d="M526.947 139.764H520.749C520.634 139.764 520.543 139.673 520.543 139.558C520.543 139.444 520.634 139.353 520.749 139.353H526.947C527.062 139.353 527.153 139.444 527.153 139.558C527.153 139.673 527.062 139.764 526.947 139.764Z" fill="#92B5F2"/>
<path d="M533.53 142.645H520.749C520.634 142.645 520.543 142.554 520.543 142.439C520.543 142.325 520.634 142.234 520.749 142.234H533.53C533.644 142.234 533.735 142.325 533.735 142.439C533.735 142.554 533.644 142.645 533.53 142.645Z" fill="#92B5F2"/>
<path d="M533.53 147.17H520.749C520.634 147.17 520.543 147.079 520.543 146.964C520.543 146.849 520.634 146.758 520.749 146.758H533.53C533.644 146.758 533.735 146.849 533.735 146.964C533.735 147.079 533.644 147.17 533.53 147.17Z" fill="#92B5F2"/>
<path d="M533.53 151.697H520.749C520.634 151.697 520.543 151.605 520.543 151.491C520.543 151.376 520.634 151.285 520.749 151.285H533.53C533.644 151.285 533.735 151.376 533.735 151.491C533.735 151.605 533.644 151.697 533.53 151.697Z" fill="#92B5F2"/>
<path d="M286.586 6.71606L255.07 38.2323C255.365 39.0639 255.698 39.8763 256.078 40.6654L289.019 7.72368C288.23 7.34397 287.418 7.01093 286.586 6.71606Z" fill="#FFC3C8"/>
<path d="M280.795 5.42419L253.778 32.4411C253.865 33.3257 253.999 34.1976 254.177 35.0525L283.406 5.823C282.552 5.64481 281.68 5.51117 280.795 5.42419Z" fill="#FFC3C8"/>
<path d="M303.033 29.9889C303.033 29.7768 303.022 29.5689 303.016 29.3589L277.713 54.6618C277.923 54.6661 278.133 54.6767 278.343 54.6767C279.215 54.6767 280.074 54.63 280.922 54.543L302.897 32.5684C302.984 31.7199 303.031 30.8608 303.031 29.9889H303.033Z" fill="#FFC3C8"/>
<path d="M293.58 10.5705C292.954 10.0783 292.303 9.61587 291.631 9.18524L257.541 43.2746C257.972 43.9471 258.434 44.5983 258.927 45.2241L293.58 10.5705Z" fill="#FFC3C8"/>
<path d="M253.71 28.4361L276.79 5.35632C276.124 5.39875 275.464 5.46451 274.811 5.55785L253.91 26.457C253.816 27.1082 253.748 27.7679 253.708 28.4361H253.71Z" fill="#FFC3C8"/>
<path d="M295.744 12.4796L260.834 47.3899C261.495 48.056 262.198 48.6818 262.932 49.2694L297.623 14.5776C297.036 13.8436 296.41 13.1415 295.744 12.4796Z" fill="#FFC3C8"/>
<path d="M300.661 19.4291C300.258 18.5784 299.806 17.7553 299.312 16.962L265.316 50.958C266.109 51.4523 266.932 51.9041 267.783 52.3072L300.661 19.4291Z" fill="#FFC3C8"/>
<path d="M269.262 7.03424C262.934 9.5395 257.894 14.5818 255.388 20.9076L269.262 7.03424Z" fill="#FFC3C8"/>
<path d="M286.12 53.4208C293.498 50.9729 299.329 45.1435 301.777 37.7635L286.12 53.4208Z" fill="#FFC3C8"/>
<path d="M301.819 22.3437L270.7 53.4632C271.773 53.8133 272.878 54.089 274.011 54.2884L302.645 25.655C302.443 24.5223 302.167 23.4171 301.819 22.3437Z" fill="#FFC3C8"/>
<path d="M171.597 5.97784C173.247 5.97784 174.586 4.63966 174.586 2.98892C174.586 1.33819 173.247 0 171.597 0C169.946 0 168.608 1.33819 168.608 2.98892C168.608 4.63966 169.946 5.97784 171.597 5.97784Z" fill="#ABC9FD"/>
<path d="M187.638 5.97784C189.289 5.97784 190.627 4.63966 190.627 2.98892C190.627 1.33819 189.289 0 187.638 0C185.987 0 184.649 1.33819 184.649 2.98892C184.649 4.63966 185.987 5.97784 187.638 5.97784Z" fill="#ABC9FD"/>
<path d="M203.679 5.97784C205.33 5.97784 206.668 4.63966 206.668 2.98892C206.668 1.33819 205.33 0 203.679 0C202.029 0 200.69 1.33819 200.69 2.98892C200.69 4.63966 202.029 5.97784 203.679 5.97784Z" fill="#ABC9FD"/>
<path d="M219.723 5.97784C221.374 5.97784 222.712 4.63966 222.712 2.98892C222.712 1.33819 221.374 0 219.723 0C218.072 0 216.734 1.33819 216.734 2.98892C216.734 4.63966 218.072 5.97784 219.723 5.97784Z" fill="#ABC9FD"/>
<path d="M171.597 22.0212C173.247 22.0212 174.586 20.6831 174.586 19.0323C174.586 17.3816 173.247 16.0434 171.597 16.0434C169.946 16.0434 168.608 17.3816 168.608 19.0323C168.608 20.6831 169.946 22.0212 171.597 22.0212Z" fill="#ABC9FD"/>
<path d="M187.638 22.0212C189.289 22.0212 190.627 20.6831 190.627 19.0323C190.627 17.3816 189.289 16.0434 187.638 16.0434C185.987 16.0434 184.649 17.3816 184.649 19.0323C184.649 20.6831 185.987 22.0212 187.638 22.0212Z" fill="#ABC9FD"/>
<path d="M203.679 22.0212C205.33 22.0212 206.668 20.6831 206.668 19.0323C206.668 17.3816 205.33 16.0434 203.679 16.0434C202.029 16.0434 200.69 17.3816 200.69 19.0323C200.69 20.6831 202.029 22.0212 203.679 22.0212Z" fill="#ABC9FD"/>
<path d="M219.723 22.0212C221.374 22.0212 222.712 20.6831 222.712 19.0323C222.712 17.3816 221.374 16.0434 219.723 16.0434C218.072 16.0434 216.734 17.3816 216.734 19.0323C216.734 20.6831 218.072 22.0212 219.723 22.0212Z" fill="#ABC9FD"/>
<path d="M85.3592 142.115L99.6504 115.422L97.4612 111.4L79.3771 145.178H115.844L114.177 142.115H85.3592Z" fill="#ABC9FD"/>
<path d="M108.571 105.223L90.4864 139.001H126.956L108.571 105.223Z" fill="#FFC3C8"/>
<path d="M123.846 72.4023L126.383 69.8653C127.55 68.6985 127.55 66.8042 126.383 65.6375C125.216 64.4708 123.322 64.4708 122.155 65.6375L119.618 68.1746L117.081 65.6375C115.915 64.4708 114.02 64.4708 112.853 65.6375C111.687 66.8042 111.687 68.6985 112.853 69.8653L115.391 72.4023L112.853 74.9394C111.687 76.1061 111.687 77.9983 112.853 79.1672C114.02 80.3339 115.915 80.3339 117.081 79.1672L119.618 76.6301L122.155 79.1672C123.322 80.3339 125.216 80.3339 126.383 79.1672C127.55 78.0005 127.55 76.1061 126.383 74.9394L123.846 72.4023Z" fill="#ABC9FD"/>
<path d="M496.093 291.001C495.925 291.001 495.758 290.926 495.645 290.786C495.446 290.54 495.486 290.178 495.732 289.978C541.185 253.379 546.722 219.354 546.773 219.014C546.82 218.7 547.115 218.484 547.426 218.531C547.74 218.577 547.957 218.87 547.91 219.184C547.857 219.536 546.542 227.975 539.531 241.097C533.08 253.176 520.369 271.616 496.454 290.873C496.347 290.958 496.22 291.001 496.093 291.001Z" fill="#8DB3F6"/>
<path d="M547.274 213.469C548.152 216.023 547.038 218.719 547.038 218.719C547.038 218.719 544.503 217.277 543.625 214.723C542.747 212.169 543.86 209.473 543.86 209.473C543.86 209.473 546.395 210.915 547.274 213.469Z" fill="#8DB3F6"/>
<path d="M541.429 230.16C542.308 232.714 541.194 235.41 541.194 235.41C541.194 235.41 538.659 233.967 537.781 231.413C536.902 228.859 538.016 226.163 538.016 226.163C538.016 226.163 540.551 227.606 541.429 230.16Z" fill="#8DB3F6"/>
<path d="M533.674 244.769C534.552 247.323 533.438 250.019 533.438 250.019C533.438 250.019 530.904 248.577 530.025 246.023C529.147 243.469 530.261 240.773 530.261 240.773C530.261 240.773 532.796 242.215 533.674 244.769Z" fill="#8DB3F6"/>
<path d="M522.1 259.603C522.978 262.157 521.865 264.853 521.865 264.853C521.865 264.853 519.33 263.411 518.451 260.857C517.573 258.303 518.687 255.607 518.687 255.607C518.687 255.607 521.222 257.049 522.1 259.603Z" fill="#8DB3F6"/>
<path d="M551.279 225.2C548.742 226.125 546.024 225.06 546.024 225.06C546.024 225.06 547.42 222.497 549.957 221.575C552.494 220.65 555.212 221.715 555.212 221.715C555.212 221.715 553.816 224.277 551.279 225.2Z" fill="#8DB3F6"/>
<path d="M543.027 244.177C540.354 244.563 537.912 242.966 537.912 242.966C537.912 242.966 539.802 240.743 542.475 240.357C545.148 239.971 547.59 241.568 547.59 241.568C547.59 241.568 545.7 243.791 543.027 244.177Z" fill="#8DB3F6"/>
<path d="M531.542 261.392C528.842 261.432 526.625 259.538 526.625 259.538C526.625 259.538 528.784 257.575 531.483 257.533C534.181 257.491 536.4 259.387 536.4 259.387C536.4 259.387 534.24 261.349 531.542 261.392Z" fill="#8DB3F6"/>
<g style="mix-blend-mode:multiply">
<path d="M465.977 289.539C466.221 289.45 466.49 289.573 466.579 289.817L470.177 299.571C470.584 297.405 471.047 295.141 471.573 292.791C474.042 281.771 478.242 267.475 485.37 251.557C485.34 251.519 485.314 251.477 485.297 251.428L481.089 240.019C481 239.775 481.123 239.506 481.367 239.417C481.611 239.328 481.88 239.451 481.969 239.695L485.906 250.367C491.275 238.556 498.257 225.885 507.329 213.017C507.478 212.805 507.771 212.754 507.983 212.905C508.195 213.053 508.246 213.346 508.095 213.558C502.735 221.159 498.11 228.692 494.116 236.016L502.393 233.17C502.639 233.085 502.904 233.216 502.989 233.46C503.074 233.706 502.943 233.972 502.699 234.056L493.469 237.23C493.469 237.23 493.462 237.23 493.458 237.23C485.191 252.616 479.71 267.047 476.083 279.23L488.231 276.043C488.482 275.978 488.738 276.128 488.804 276.379C488.87 276.629 488.719 276.886 488.469 276.951L476.057 280.205C476.021 280.214 475.985 280.22 475.949 280.22C475.896 280.22 475.843 280.214 475.794 280.199C474.445 284.809 473.363 289.085 472.495 292.957C471.838 295.886 471.282 298.678 470.809 301.312C470.824 301.414 470.805 301.516 470.758 301.605C467.909 317.655 468.208 327.835 468.212 327.954C468.221 328.213 468.019 328.431 467.759 328.44C467.759 328.44 467.756 328.44 467.754 328.44C467.498 328.446 467.281 328.244 467.273 327.986C467.269 327.867 466.963 317.576 469.844 301.38L465.697 290.137C465.608 289.893 465.731 289.624 465.974 289.535L465.977 289.539Z" fill="#DEDEDE"/>
</g>
<g style="mix-blend-mode:multiply">
<path d="M485.72 325.932C485.76 325.852 489.79 317.742 498.908 307.167C503.676 301.635 510.435 294.764 519.355 287.859C519.349 287.827 519.349 287.796 519.355 287.762L520.435 279.972C520.458 279.807 520.611 279.69 520.776 279.713C520.942 279.737 521.058 279.889 521.035 280.055L520.025 287.346C526.691 282.246 534.535 277.147 543.638 272.575C543.788 272.501 543.971 272.56 544.045 272.711C544.121 272.862 544.06 273.044 543.909 273.118C538.534 275.819 533.598 278.704 529.085 281.663L534.673 282.564C534.838 282.592 534.951 282.747 534.925 282.912C534.898 283.078 534.743 283.19 534.578 283.165L528.345 282.159C528.345 282.159 528.343 282.159 528.341 282.159C518.933 288.413 511.402 294.972 505.618 300.812L513.517 302.7C513.681 302.738 513.78 302.903 513.742 303.065C513.704 303.228 513.538 303.328 513.377 303.29L505.306 301.359C505.282 301.353 505.261 301.346 505.24 301.336C505.21 301.321 505.183 301.3 505.159 301.276C502.985 303.493 501.059 305.604 499.385 307.545C490.312 318.064 486.305 326.119 486.267 326.2C486.193 326.35 486.01 326.412 485.86 326.338C485.86 326.338 485.86 326.338 485.858 326.338C485.709 326.263 485.648 326.083 485.722 325.932H485.72Z" fill="#DEDEDE"/>
</g>
<path d="M516.196 306.898H430.769V412.946H516.196V306.898Z" fill="#FF5766"/>
<path d="M516.196 306.898H496.865V412.946H516.196V306.898Z" fill="#FF7A86"/>
<path d="M512.083 314.938H500.976V354.216H512.083V314.938Z" fill="white"/>
<path d="M506.805 407.115C510.127 407.115 512.819 403.186 512.819 398.339C512.819 393.492 510.127 389.563 506.805 389.563C503.484 389.563 500.791 393.492 500.791 398.339C500.791 403.186 503.484 407.115 506.805 407.115Z" fill="white"/>
<path d="M506.805 404.764C505.074 404.764 503.144 402.125 503.144 398.341C503.144 394.557 505.074 391.918 506.805 391.918C508.536 391.918 510.467 394.557 510.467 398.341C510.467 402.125 508.536 404.764 506.805 404.764Z" fill="#FF7A86"/>
<path d="M477.237 306.898H391.809V412.946H477.237V306.898Z" fill="#75A2FF"/>
<path d="M477.237 306.898H457.905V412.946H477.237V306.898Z" fill="#4D82F0"/>
<path d="M473.123 314.938H462.016V354.216H473.123V314.938Z" fill="#75A2FF"/>
<path d="M467.848 407.115C471.169 407.115 473.862 403.186 473.862 398.339C473.862 393.492 471.169 389.563 467.848 389.563C464.526 389.563 461.834 393.492 461.834 398.339C461.834 403.186 464.526 407.115 467.848 407.115Z" fill="#75A2FF"/>
<path d="M467.848 404.764C466.117 404.764 464.186 402.125 464.186 398.341C464.186 394.557 466.117 391.918 467.848 391.918C469.579 391.918 471.509 394.557 471.509 398.341C471.509 402.125 469.579 404.764 467.848 404.764Z" fill="#4D82F0"/>
<path d="M563.837 426.073H0V422.335C0 417.227 4.14079 413.086 9.24889 413.086H554.586C559.694 413.086 563.835 417.227 563.835 422.335V426.073H563.837Z" fill="#B4CCF0"/>
<path d="M108.233 254.238C108.191 254.378 108.087 254.499 107.938 254.559C107.68 254.663 107.389 254.535 107.285 254.277C88.3821 206.819 61.3418 193.414 61.0703 193.285C60.82 193.164 60.7139 192.863 60.8348 192.615C60.9557 192.364 61.2548 192.258 61.5052 192.379C61.7873 192.515 68.5055 195.79 77.678 205.037C86.1208 213.548 98.2716 228.933 108.218 253.905C108.263 254.016 108.265 254.132 108.231 254.238H108.233Z" fill="#8DB3F6"/>
<path d="M56.5625 191.437C58.9256 191.361 60.8942 192.988 60.8942 192.988C60.8942 192.988 59.0338 194.738 56.6707 194.812C54.3076 194.889 52.339 193.262 52.339 193.262C52.339 193.262 54.1994 191.511 56.5625 191.437Z" fill="#8DB3F6"/>
<path d="M69.0188 200.629C71.3819 200.552 73.3505 202.18 73.3505 202.18C73.3505 202.18 71.4901 203.93 69.127 204.004C66.7639 204.08 64.7953 202.453 64.7953 202.453C64.7953 202.453 66.6557 200.703 69.0188 200.629Z" fill="#8DB3F6"/>
<path d="M79.2435 210.881C81.6067 210.805 83.5752 212.432 83.5752 212.432C83.5752 212.432 81.7148 214.182 79.3517 214.256C76.9886 214.332 75.02 212.705 75.02 212.705C75.02 212.705 76.8804 210.955 79.2435 210.881Z" fill="#8DB3F6"/>
<path d="M88.6706 224.39C91.0337 224.313 93.0023 225.94 93.0023 225.94C93.0023 225.94 91.1419 227.69 88.7788 227.765C86.4156 227.841 84.4471 226.214 84.4471 226.214C84.4471 226.214 86.3075 224.464 88.6706 224.39Z" fill="#8DB3F6"/>
<path d="M67.4088 191.111C67.5275 193.472 65.9387 195.47 65.9387 195.47C65.9387 195.47 64.1547 193.641 64.0359 191.28C63.9171 188.919 65.5059 186.921 65.5059 186.921C65.5059 186.921 67.29 188.75 67.4088 191.111Z" fill="#8DB3F6"/>
<path d="M81.159 202.905C80.7942 205.241 78.8277 206.872 78.8277 206.872C78.8277 206.872 77.4552 204.717 77.8222 202.383C78.1871 200.048 80.1535 198.416 80.1535 198.416C80.1535 198.416 81.526 200.572 81.159 202.905Z" fill="#8DB3F6"/>
<path d="M92.6014 216.95C91.9395 219.22 89.7822 220.586 89.7822 220.586C89.7822 220.586 88.6961 218.274 89.3579 216.004C90.0198 213.734 92.1771 212.368 92.1771 212.368C92.1771 212.368 93.2632 214.68 92.6014 216.95Z" fill="#8DB3F6"/>
<g style="mix-blend-mode:multiply">
<path d="M152.314 255.658C152.051 255.56 151.758 255.696 151.663 255.959L147.77 266.508C147.331 264.166 146.83 261.718 146.262 259.175C143.593 247.255 139.047 231.793 131.341 214.579C131.372 214.538 131.4 214.492 131.419 214.439L135.971 202.101C136.069 201.838 135.933 201.545 135.67 201.45C135.407 201.352 135.114 201.488 135.019 201.751L130.762 213.293C124.953 200.519 117.406 186.815 107.593 172.897C107.431 172.668 107.115 172.613 106.886 172.774C106.657 172.935 106.602 173.251 106.763 173.48C112.561 181.703 117.563 189.848 121.882 197.772L112.93 194.694C112.665 194.602 112.376 194.744 112.285 195.01C112.194 195.275 112.334 195.563 112.599 195.654L122.582 199.087C122.582 199.087 122.59 199.087 122.595 199.089C131.536 215.731 137.463 231.339 141.387 244.515L128.248 241.07C127.976 240.997 127.698 241.161 127.628 241.432C127.556 241.704 127.72 241.982 127.991 242.052L141.415 245.571C141.453 245.582 141.493 245.586 141.531 245.588C141.589 245.588 141.646 245.582 141.699 245.565C143.158 250.55 144.329 255.176 145.267 259.362C145.978 262.531 146.58 265.549 147.089 268.4C147.072 268.511 147.093 268.621 147.144 268.716C150.227 286.075 149.902 297.087 149.898 297.214C149.889 297.494 150.108 297.73 150.388 297.738C150.388 297.738 150.39 297.738 150.392 297.738C150.67 297.744 150.903 297.526 150.912 297.248C150.916 297.119 151.247 285.988 148.131 268.473L152.617 256.313C152.715 256.05 152.579 255.757 152.316 255.662L152.314 255.658Z" fill="#DEDEDE"/>
</g>
<g style="mix-blend-mode:multiply">
<path d="M130.961 295.021C130.919 294.934 126.557 286.164 116.697 274.726C111.538 268.742 104.23 261.311 94.5827 253.844C94.589 253.81 94.589 253.776 94.5848 253.74L93.4181 245.314C93.3926 245.134 93.2271 245.009 93.0468 245.034C92.8665 245.06 92.7414 245.225 92.7668 245.405L93.8593 253.29C86.649 247.775 78.1659 242.259 68.3209 237.315C68.1597 237.234 67.9624 237.298 67.8797 237.461C67.799 237.622 67.8627 237.82 68.026 237.902C73.8405 240.823 79.1777 243.944 84.0589 247.145L78.0153 248.121C77.8371 248.15 77.714 248.318 77.7437 248.496C77.7734 248.674 77.941 248.797 78.1192 248.768L84.8586 247.681C84.8586 247.681 84.8607 247.681 84.8628 247.681C95.0387 254.446 103.182 261.538 109.44 267.857L100.896 269.9C100.72 269.942 100.611 270.119 100.652 270.297C100.694 270.473 100.87 270.581 101.048 270.541L109.78 268.453C109.805 268.447 109.828 268.438 109.852 268.428C109.884 268.411 109.913 268.39 109.939 268.364C112.291 270.761 114.372 273.044 116.184 275.144C125.997 286.523 130.331 295.233 130.373 295.32C130.454 295.483 130.651 295.549 130.812 295.47C130.812 295.47 130.812 295.47 130.815 295.47C130.976 295.39 131.042 295.195 130.961 295.031V295.021Z" fill="#DEDEDE"/>
</g>
<path d="M485.667 285.273C485.408 290.659 486.466 294.388 487.449 296.334C488.431 298.279 486.997 300.211 486.814 301.476C486.632 302.74 486.157 306.934 486.157 306.934H481.92C481.92 306.934 481.899 302.214 481.719 302.182C478.809 302.782 476.214 305.419 475.124 306.478C474.033 307.536 464.244 306.809 463.732 306.531C462.884 305.247 468.493 304.337 468.722 303.784C471.185 299.231 476.594 293.943 477.341 292.416C478.087 290.888 478.59 284.503 478.59 284.503L485.665 285.273H485.667Z" fill="#FF8762"/>
<path d="M468.69 303.835C470.461 304.032 472.406 304.414 473.085 304.112C473.999 303.707 480.013 296.183 486.645 294.308C486.899 295.118 487.177 295.795 487.449 296.336C488.431 298.281 486.997 300.214 486.814 301.478C486.632 302.742 486.157 306.936 486.157 306.936H481.92C481.92 306.936 481.899 302.216 481.719 302.184C478.808 302.785 476.214 305.421 475.124 306.48C474.033 307.538 464.244 306.811 463.732 306.533C462.909 305.286 468.174 304.431 468.688 303.837L468.69 303.835Z" fill="#2B1710"/>
<path d="M445.056 285.273C444.798 290.659 445.856 294.388 446.838 296.334C447.82 298.279 446.386 300.211 446.204 301.476C446.022 302.74 445.546 306.934 445.546 306.934H441.31C441.31 306.934 441.289 302.214 441.109 302.182C438.198 302.782 435.604 305.419 434.513 306.478C433.423 307.536 423.633 306.809 423.122 306.531C422.274 305.247 427.882 304.337 428.111 303.784C430.574 299.231 435.984 293.943 436.73 292.416C437.477 290.888 437.98 284.503 437.98 284.503L445.054 285.273H445.056Z" fill="#FF8762"/>
<path d="M428.08 303.835C429.851 304.032 431.796 304.414 432.475 304.112C433.389 303.707 439.403 296.183 446.034 294.308C446.289 295.118 446.567 295.795 446.838 296.336C447.82 298.281 446.386 300.214 446.204 301.478C446.022 302.742 445.546 306.936 445.546 306.936H441.31C441.31 306.936 441.289 302.216 441.109 302.184C438.198 302.785 435.604 305.421 434.513 306.48C433.423 307.538 423.633 306.811 423.122 306.533C422.299 305.286 427.564 304.431 428.077 303.837L428.08 303.835Z" fill="#2B1710"/>
<path d="M402.13 129.747C400.657 127.883 394.38 115.687 393.106 114.215C391.831 112.743 388.789 111.436 388.135 111.305C387.482 111.173 380.55 111.173 380.55 111.173C380.157 111.958 381.334 113.004 383.426 113.265C385.518 113.526 387.48 114.05 387.48 114.05L388.657 115.62C388.657 115.62 385.388 116.797 384.864 118.496C384.34 120.197 384.733 125.165 385.518 126.213C386.303 127.259 390.095 126.213 390.095 126.213C391.012 128.176 391.926 129.614 392.972 130.138C394.018 130.662 396.896 134.977 396.896 134.977L402.127 129.745L402.13 129.747Z" fill="#FF8762"/>
<path d="M438.096 106.99C430.903 114.052 419 136.027 419 136.027C419 136.027 405.135 126.086 400.167 127.132C395.197 128.178 392.582 136.419 397.683 142.564C402.785 148.712 409.194 157.344 422.142 156.037C435.09 154.728 443.461 137.072 444.378 135.503C445.294 133.933 450.525 111.568 438.101 106.99H438.096Z" fill="#3D6AD9"/>
<path d="M467.72 149.628C479.623 157.083 480.996 179.842 481.388 192.398C481.78 204.954 489.627 293.239 489.627 293.239H473.539L456.537 214.763L448.427 291.669H434.694C434.694 291.669 426.847 170.033 438.028 149.631C449.212 129.228 467.718 149.631 467.718 149.631L467.72 149.628Z" fill="#203489"/>
<g style="mix-blend-mode:multiply">
<path d="M455.296 211.223C455.309 211.223 455.319 211.223 455.332 211.218C455.434 211.199 455.499 211.1 455.48 210.998L448.026 172.742C448.016 172.685 447.977 172.636 447.926 172.611L445.281 171.289L444.891 153.549C444.889 153.445 444.81 153.36 444.698 153.364C444.594 153.366 444.511 153.453 444.513 153.557L444.906 171.41C444.906 171.48 444.948 171.544 445.01 171.573L447.674 172.905L455.111 211.072C455.128 211.161 455.207 211.225 455.296 211.225V211.223Z" fill="#E3E3E3"/>
</g>
<g style="mix-blend-mode:multiply">
<path d="M469.717 162.471C469.814 162.471 469.897 162.394 469.903 162.295C469.91 162.191 469.831 162.102 469.729 162.093C463.69 161.677 460.111 158.51 458.126 151.83C458.096 151.731 457.992 151.675 457.892 151.703C457.793 151.733 457.735 151.837 457.765 151.936C459.804 158.79 463.484 162.04 469.704 162.469C469.708 162.469 469.712 162.469 469.717 162.469V162.471Z" fill="#E3E3E3"/>
</g>
<g style="mix-blend-mode:multiply">
<path d="M485.705 288.913C485.705 288.913 485.715 288.913 485.72 288.913C485.824 288.905 485.9 288.814 485.891 288.71C485.45 283.411 475.001 158.873 466.795 151.841C466.717 151.773 466.598 151.782 466.53 151.862C466.462 151.941 466.471 152.059 466.552 152.127C474.64 159.06 485.408 287.448 485.516 288.742C485.524 288.839 485.607 288.913 485.703 288.913H485.705Z" fill="#E3E3E3"/>
</g>
<path d="M469.356 109.084C463.34 104.245 457.895 102.985 457.895 102.985L442.347 104.996L438.096 106.99C438.096 106.99 431.819 128.178 432.473 131.449C433.126 134.72 436.344 137.777 437.443 141.521C438.325 144.529 438.056 145.927 438.056 145.927L467.657 145.967C467.657 144.005 468.703 134.72 469.358 131.58C470.011 128.441 473.543 117.586 469.358 109.084H469.356Z" fill="#618AF2"/>
<path d="M469.445 170.222C468.993 171.622 468.452 176.724 466.518 177.241C464.583 177.759 462.177 178.856 461.093 181.045C460.007 183.234 456.861 184.068 456.806 184.613C456.751 185.158 459.939 185.254 461.225 184.501C462.51 183.747 462.633 182.965 462.977 183.726C463.321 184.488 460.366 191.957 459.146 194.261C457.926 196.564 460.843 194.746 460.843 194.746C461.598 195.676 462.986 194.746 462.986 194.746C464.339 195.898 467.44 191.838 467.663 192.309C469.152 193.705 472.307 189.097 472.839 185.985C473.374 182.874 473.287 180.145 474.562 177.653C475.836 175.16 477.449 171.847 477.449 171.847L469.445 170.22V170.222Z" fill="#FF8762"/>
<g style="mix-blend-mode:multiply">
<path d="M461.106 194.367C461.161 194.382 461.223 194.367 461.261 194.32C461.416 194.142 465.037 189.912 465.705 186.329C465.72 186.246 465.665 186.17 465.584 186.153C465.501 186.138 465.423 186.191 465.408 186.274C464.755 189.776 461.07 194.08 461.032 194.125C460.977 194.189 460.985 194.282 461.047 194.337C461.064 194.352 461.083 194.363 461.104 194.367H461.106Z" fill="#E0B3A8"/>
</g>
<g style="mix-blend-mode:multiply">
<path d="M463.633 194.392C463.681 194.405 463.734 194.396 463.775 194.36C463.923 194.229 467.425 191.081 468.336 188.136C468.361 188.058 468.316 187.973 468.236 187.948C468.157 187.924 468.072 187.967 468.047 188.047C467.162 190.909 463.609 194.104 463.573 194.136C463.512 194.191 463.505 194.286 463.56 194.348C463.58 194.369 463.605 194.384 463.63 194.392H463.633Z" fill="#E0B3A8"/>
</g>
<g style="mix-blend-mode:multiply">
<path d="M467.905 191.705C467.96 191.719 468.022 191.705 468.062 191.658C469.403 190.067 469.763 189.076 469.778 189.034C469.806 188.955 469.765 188.87 469.687 188.843C469.606 188.815 469.523 188.856 469.494 188.934C469.489 188.945 469.131 189.921 467.831 191.465C467.778 191.528 467.786 191.624 467.85 191.677C467.867 191.692 467.886 191.7 467.905 191.707V191.705Z" fill="#E0B3A8"/>
</g>
<path d="M462.332 95.5859C462.332 95.8935 462.084 96.1417 461.777 96.1417C461.469 96.1417 461.221 95.8935 461.221 95.5859C461.221 95.2783 461.469 95.0301 461.777 95.0301C462.084 95.0301 462.332 95.2783 462.332 95.5859Z" fill="white"/>
<path d="M462.954 94.0819C462.954 94.5868 462.544 94.9983 462.037 94.9983C461.53 94.9983 461.121 94.5889 461.121 94.0819C461.121 93.5749 461.53 93.1655 462.037 93.1655C462.544 93.1655 462.954 93.5749 462.954 94.0819Z" fill="white"/>
<path d="M440.228 95.0302C443.01 95.0302 445.264 92.7755 445.264 89.9942C445.264 87.2129 443.01 84.9582 440.228 84.9582C437.447 84.9582 435.192 87.2129 435.192 89.9942C435.192 92.7755 437.447 95.0302 440.228 95.0302Z" fill="#3B1F16"/>
<path d="M449.974 96.4026C444.35 97.3826 441.079 92.1515 442.714 88.0319C442.256 79.5955 445.854 71.2906 458.476 75.8026C464.753 76.5875 467.173 84.8924 462.008 87.0497C455.141 93.1315 449.976 96.4005 449.976 96.4005L449.974 96.4026Z" fill="#2B1710"/>
<path d="M455.007 99.6398C454.615 101.994 454.329 103.384 457.827 103.091C445.697 117.145 442.354 106.653 442.403 105.083C442.403 104.888 445.247 104.249 446.278 102.434C447.309 100.62 447.799 96.0081 447.407 89.8288C449.81 90.4673 450.644 88.5539 450.693 85.268C450.742 81.9821 452.311 76.7339 458.688 77.5676C461.091 80.5099 462.366 82.3745 462.171 86.1992C461.976 90.0239 462.4 92.7392 461.942 94.5699C461.49 96.3815 459.522 99.7353 455.01 99.6377L455.007 99.6398Z" fill="#FF8762"/>
<g style="mix-blend-mode:multiply">
<path d="M458.949 95.0704C458.885 95.7323 459.778 96.7759 458.111 97.0857C456.369 97.4081 454.694 95.168 454.515 93.8613C455.854 95.1998 458.949 95.0704 458.949 95.0704Z" fill="#E0B3A8"/>
</g>
<g style="mix-blend-mode:multiply">
<path d="M454.394 93.681C456.821 92.9449 459.481 93.1252 459.721 93.9059C458.391 94.6377 455.449 94.1222 454.394 93.681Z" fill="#E0B3A8"/>
</g>
<path d="M446.492 93.0437C447.56 92.8705 448.284 91.8648 448.111 90.7974C447.938 89.73 446.932 89.0051 445.865 89.1784C444.797 89.3517 444.072 90.3574 444.246 91.4248C444.419 92.4922 445.425 93.217 446.492 93.0437Z" fill="#FF8762"/>
<g style="mix-blend-mode:multiply">
<path d="M446.594 92.1494C446.643 92.1494 446.69 92.1197 446.711 92.073C446.739 92.0094 446.711 91.933 446.645 91.9054C446.478 91.8333 446.382 91.7272 446.372 91.5999C446.361 91.4705 446.44 91.3242 446.571 91.2393C446.713 91.146 446.881 91.1396 447.034 91.2202C447.074 91.2414 447.123 91.2393 447.161 91.216C447.199 91.1905 447.222 91.1481 447.22 91.1014C447.199 90.6369 446.885 90.255 446.399 90.1065C445.897 89.9517 445.385 90.1023 445.097 90.4905C445.054 90.5478 445.067 90.6263 445.122 90.6687C445.18 90.7111 445.258 90.6984 445.3 90.6432C445.57 90.2805 446.02 90.2593 446.323 90.3505C446.571 90.4269 446.838 90.6114 446.932 90.919C446.758 90.8893 446.58 90.9254 446.427 91.0272C446.217 91.1651 446.094 91.4005 446.115 91.6233C446.126 91.7527 446.198 91.9903 446.541 92.1409C446.558 92.1472 446.575 92.1515 446.592 92.1515L446.594 92.1494Z" fill="#E0B3A8"/>
</g>
<g style="mix-blend-mode:multiply">
<path d="M454.615 99.6334C454.604 99.6334 454.592 99.6334 454.581 99.6291C451.335 98.7064 448.733 95.9741 447.954 92.6713C447.939 92.6034 447.98 92.5355 448.047 92.5206C448.115 92.5037 448.183 92.5461 448.198 92.614C448.958 95.8299 451.49 98.49 454.649 99.3894C454.715 99.4085 454.755 99.4785 454.736 99.5443C454.721 99.5994 454.67 99.6355 454.615 99.6355V99.6334Z" fill="#E0B3A8"/>
</g>
<path d="M451.444 85.5415C451.399 85.5415 451.359 85.5182 451.335 85.4779C451.301 85.4185 451.323 85.3421 451.382 85.3061C453.016 84.3727 454.963 84.2985 455.765 84.5424C455.831 84.5615 455.869 84.6336 455.847 84.6994C455.826 84.7651 455.756 84.8033 455.69 84.7821C455.033 84.5827 453.132 84.5933 451.505 85.5224C451.486 85.5331 451.465 85.5394 451.444 85.5394V85.5415Z" fill="#2B1710"/>
<path d="M461.679 85.6731C461.641 85.6731 461.603 85.6561 461.579 85.6222C461.558 85.5946 461.053 84.9476 459.439 85.1491C459.371 85.1576 459.307 85.1088 459.299 85.0409C459.29 84.9731 459.339 84.9094 459.407 84.9009C461.134 84.6846 461.717 85.3909 461.779 85.4737C461.821 85.5288 461.808 85.6073 461.753 85.6498C461.73 85.6667 461.704 85.6752 461.679 85.6752V85.6731Z" fill="#2B1710"/>
<path d="M458.769 92.3425C458.732 92.3425 458.694 92.3255 458.671 92.2958C458.629 92.2406 458.637 92.1621 458.69 92.1197C459.339 91.6021 460.06 90.97 460.217 90.7494C460.107 90.726 459.865 90.7218 459.681 90.7175C459.229 90.709 458.716 90.6984 458.412 90.5287C457.742 90.1511 458.389 87.3192 458.981 85.987C459.008 85.9234 459.082 85.8958 459.146 85.9234C459.21 85.951 459.237 86.0252 459.21 86.0888C458.522 87.6374 458.132 90.0833 458.535 90.3102C458.783 90.4503 459.284 90.4587 459.687 90.4672C460.192 90.4778 460.495 90.4821 460.495 90.7133C460.495 90.9445 459.598 91.7167 458.845 92.3149C458.822 92.334 458.794 92.3425 458.766 92.3425H458.769Z" fill="#2B1710"/>
<path d="M457.74 94.4022C456.518 94.4022 455.08 94.2325 454.201 93.8019C454.14 93.7722 454.114 93.6958 454.144 93.6343C454.174 93.5728 454.25 93.5473 454.312 93.577C455.794 94.3025 459.076 94.2622 459.723 93.9058C459.785 93.8719 459.861 93.8952 459.893 93.9546C459.927 94.0161 459.903 94.0925 459.844 94.1243C459.536 94.294 458.707 94.4001 457.742 94.4001L457.74 94.4022Z" fill="#2B1710"/>
<g style="mix-blend-mode:multiply">
<path d="M457.311 97.8154C456.825 97.8154 456.321 97.7284 455.935 97.476C455.877 97.4378 455.86 97.3593 455.898 97.302C455.937 97.2448 456.013 97.2278 456.072 97.266C456.961 97.8472 458.571 97.4251 458.739 97.3042C458.794 97.2639 458.873 97.2745 458.915 97.3275C458.955 97.3826 458.949 97.4569 458.896 97.4993C458.758 97.6096 458.062 97.8133 457.315 97.8133L457.311 97.8154Z" fill="#E0B3A8"/>
</g>
<path d="M454.959 88.138C454.959 88.8826 454.619 89.4872 454.199 89.4872C453.779 89.4872 453.44 88.8826 453.44 88.138C453.44 87.3934 453.779 86.7889 454.199 86.7889C454.619 86.7889 454.959 87.3934 454.959 88.138Z" fill="#2B1710"/>
<g style="mix-blend-mode:multiply">
<path d="M454.025 89.9454C453.764 89.9454 453.187 89.8329 453.001 88.8784C452.994 88.8444 453.016 88.8105 453.049 88.8041C453.083 88.7977 453.117 88.8189 453.124 88.8529C453.306 89.7799 453.858 89.8351 454.087 89.816C454.121 89.8117 454.153 89.8393 454.155 89.8732C454.157 89.9072 454.131 89.939 454.097 89.9411C454.078 89.9411 454.053 89.9432 454.025 89.9432V89.9454Z" fill="#E0B3A8"/>
</g>
<path d="M460.714 88.3014C460.714 89.0459 460.374 89.6505 459.954 89.6505C459.534 89.6505 459.195 89.0459 459.195 88.3014C459.195 87.5568 459.534 86.9522 459.954 86.9522C460.374 86.9522 460.714 87.5568 460.714 88.3014Z" fill="#2B1710"/>
<g style="mix-blend-mode:multiply">
<path d="M459.78 90.1088C459.519 90.1088 458.943 89.9963 458.756 89.0417C458.749 89.0078 458.771 88.9739 458.805 88.9675C458.839 88.9611 458.872 88.9823 458.879 89.0163C459.061 89.9433 459.613 89.9985 459.842 89.9794C459.876 89.9751 459.908 90.0027 459.91 90.0366C459.912 90.0706 459.886 90.1024 459.853 90.1045C459.833 90.1045 459.808 90.1066 459.78 90.1066V90.1088Z" fill="#E0B3A8"/>
</g>
<path d="M453.173 91.1502C452.873 91.5533 452.676 91.9118 452.729 91.9521C452.782 91.9924 453.071 91.6996 453.37 91.2966C453.669 90.8935 453.866 90.535 453.813 90.4947C453.758 90.4544 453.472 90.7472 453.173 91.1502Z" fill="#FF7E57"/>
<path d="M453.94 91.25C453.641 91.653 453.444 92.0115 453.497 92.0518C453.55 92.0921 453.839 91.7994 454.138 91.3963C454.437 90.9933 454.634 90.6348 454.581 90.5945C454.526 90.5542 454.24 90.8469 453.94 91.25Z" fill="#FF7E57"/>
<path d="M454.791 91.3306C454.492 91.7336 454.295 92.0921 454.348 92.1324C454.403 92.1727 454.689 91.88 454.988 91.4769C455.288 91.0739 455.485 90.7154 455.432 90.6751C455.377 90.6348 455.09 90.9275 454.791 91.3306Z" fill="#FF7E57"/>
<path d="M446.605 94.7353C447.111 94.7353 447.521 94.325 447.521 93.8189C447.521 93.3128 447.111 92.9025 446.605 92.9025C446.099 92.9025 445.689 93.3128 445.689 93.8189C445.689 94.325 446.099 94.7353 446.605 94.7353Z" fill="white"/>
<path d="M447.161 95.3229C447.161 95.6305 446.913 95.8787 446.605 95.8787C446.297 95.8787 446.049 95.6305 446.049 95.3229C446.049 95.0153 446.297 94.7671 446.605 94.7671C446.913 94.7671 447.161 95.0153 447.161 95.3229Z" fill="white"/>
<path d="M459.626 94.1031C458.497 94.9092 459.286 95.7789 458.48 96.1183C457.674 96.4577 455.192 95.7641 454.513 93.8613C456.511 94.4086 458.737 94.4086 459.623 94.1031H459.626Z" fill="#2B1710"/>
<path d="M454.727 93.9102C456.518 94.3641 458.429 94.3917 459.39 94.1626C459.473 94.1753 459.53 94.1817 459.53 94.1817C458.378 95.4078 455.389 94.3747 454.727 93.9102Z" fill="white"/>
<path d="M454.969 94.6631C456.662 94.8116 458.3 95.308 458.595 96.0441C458.556 96.0696 458.529 96.0971 458.48 96.1184C457.801 96.4026 455.947 95.9465 454.969 94.6653V94.6631Z" fill="#73251A"/>
<path d="M469.356 109.084C463.469 113.666 463.208 126.118 467.918 137.749C472.627 149.38 469.619 158.778 467.133 164.535C464.649 170.292 463.864 177.693 474.326 178.633C484.788 179.573 489.629 159.953 489.629 147.265C489.629 134.578 478.382 110.847 469.356 109.084Z" fill="#3D6AD9"/>
<path d="M438.033 149.626H467.723V145.965H438.033V149.626Z" fill="#2B1710"/>
<path d="M463.864 145.509H462.36V149.826H463.864V145.509Z" fill="#203489"/>
<path d="M440.648 145.575H439.144V149.891H440.648V145.575Z" fill="#203489"/>
<g style="mix-blend-mode:multiply">
<path d="M419.656 140.099C419.703 140.099 419.749 140.078 419.777 140.038C419.826 139.97 419.811 139.877 419.743 139.828C419.393 139.573 419.342 138.4 419.308 137.624C419.272 136.824 419.251 136.497 419.07 136.404C419.002 136.37 418.922 136.377 418.852 136.423C418.425 136.707 418.232 137.921 418.199 138.163C418.186 138.245 418.243 138.322 418.326 138.332C418.409 138.345 418.485 138.288 418.495 138.205C418.559 137.755 418.731 137.021 418.939 136.752C418.975 136.937 418.992 137.318 419.007 137.637C419.049 138.619 419.098 139.73 419.567 140.072C419.594 140.091 419.624 140.102 419.656 140.102V140.099Z" fill="#E0E0E0"/>
</g>
<g style="mix-blend-mode:multiply">
<path d="M385.976 125.885C385.999 125.885 386.023 125.878 386.042 125.866C386.101 125.829 386.118 125.751 386.082 125.694C385.751 125.163 385.666 124.661 385.825 124.16C386.322 122.603 389.118 121.434 390.967 120.66L391.322 120.511C391.602 120.403 391.731 120.147 391.682 119.79C391.527 118.662 389.705 116.665 389.126 116.608C389.056 116.602 388.997 116.651 388.988 116.721C388.982 116.788 389.031 116.85 389.101 116.858C389.516 116.901 391.292 118.787 391.432 119.824C391.474 120.142 391.334 120.236 391.224 120.278L390.868 120.427C388.861 121.264 386.114 122.414 385.583 124.082C385.403 124.65 385.499 125.236 385.866 125.823C385.889 125.861 385.929 125.883 385.972 125.883L385.976 125.885Z" fill="#E0B3A8"/>
</g>
<g style="mix-blend-mode:multiply">
<path d="M388.591 120.849C388.608 120.849 388.623 120.844 388.64 120.838C388.704 120.81 388.734 120.738 388.708 120.675C388.704 120.662 388.207 119.449 388.649 117.879C388.668 117.813 388.627 117.743 388.562 117.724C388.496 117.705 388.426 117.745 388.407 117.811C387.942 119.47 388.456 120.719 388.477 120.77C388.498 120.819 388.543 120.846 388.591 120.846V120.849Z" fill="#E0B3A8"/>
</g>
<g style="mix-blend-mode:multiply">
<path d="M385.846 122.221C385.87 122.221 385.895 122.215 385.916 122.2C385.974 122.162 385.991 122.083 385.953 122.026C385.946 122.017 385.327 121.063 385.516 119.692C385.524 119.625 385.477 119.561 385.407 119.55C385.339 119.542 385.276 119.589 385.265 119.659C385.066 121.127 385.715 122.124 385.743 122.164C385.766 122.2 385.806 122.219 385.846 122.219V122.221Z" fill="#E0B3A8"/>
</g>
<path d="M408.742 41.1279H155.095C150.191 41.1279 146.215 45.1035 146.215 50.0077V404.206C146.215 409.111 150.191 413.086 155.095 413.086H408.742C413.646 413.086 417.621 409.111 417.621 404.206V50.0077C417.621 45.1035 413.646 41.1279 408.742 41.1279Z" fill="#404040"/>
<path d="M404.841 47.9245H158.996C155.691 47.9245 153.012 50.6037 153.012 53.9087V384.311C153.012 387.616 155.691 390.295 158.996 390.295H404.841C408.146 390.295 410.825 387.616 410.825 384.311V53.9087C410.825 50.6037 408.146 47.9245 404.841 47.9245Z" fill="#737373"/>
<path d="M391.735 67.012H172.099V371.205H391.735V67.012Z" fill="white"/>
<g style="mix-blend-mode:multiply">
<path d="M380.011 211.038H191.234C188.333 211.038 185.981 213.39 185.981 216.291V344.485C185.981 347.386 188.333 349.738 191.234 349.738H380.011C382.912 349.738 385.263 347.386 385.263 344.485V216.291C385.263 213.39 382.912 211.038 380.011 211.038Z" fill="#ACBFF0"/>
</g>
<path d="M375.03 218.013H186.253C183.352 218.013 181 220.365 181 223.265V351.46C181 354.361 183.352 356.712 186.253 356.712H375.03C377.931 356.712 380.282 354.361 380.282 351.46V223.265C380.282 220.365 377.931 218.013 375.03 218.013Z" fill="#EBF3FE"/>
<g style="mix-blend-mode:multiply">
<path d="M254.625 274.325C254.629 274.518 254.64 274.711 254.64 274.904C254.64 288.833 243.348 300.125 229.419 300.125C215.491 300.125 204.199 288.833 204.199 274.904C204.199 260.976 215.179 250.007 228.84 249.699V236.653C207.975 236.965 191.153 253.965 191.153 274.904C191.153 295.844 208.285 313.171 229.419 313.171C250.554 313.171 267.686 296.039 267.686 274.904C267.686 274.709 267.673 274.518 267.671 274.325H254.625Z" fill="#D6BCD4"/>
<path d="M235.215 228.231C235.02 228.231 234.829 228.244 234.636 228.246V241.292C234.829 241.288 235.022 241.277 235.215 241.277C248.95 241.277 260.113 252.257 260.42 265.918H273.466C273.154 245.053 256.154 228.231 235.215 228.231Z" fill="#D6BCD4"/>
</g>
<path d="M253.609 271.281C253.613 271.474 253.623 271.667 253.623 271.86C253.623 285.789 242.332 297.08 228.403 297.08C214.475 297.08 203.183 285.789 203.183 271.86C203.183 257.932 214.163 246.962 227.824 246.655V233.609C206.959 233.921 190.137 250.921 190.137 271.86C190.137 292.8 207.269 310.126 228.403 310.126C249.538 310.126 266.669 292.995 266.669 271.86C266.669 271.665 266.657 271.474 266.655 271.281H253.609Z" fill="#FF5766"/>
<path d="M234.201 225.187C234.006 225.187 233.815 225.2 233.622 225.202V238.248C233.815 238.244 234.008 238.233 234.201 238.233C247.936 238.233 259.098 249.213 259.406 262.874H272.452C272.14 242.009 255.14 225.187 234.201 225.187Z" fill="#FFC3C8"/>
<path d="M280.042 257.039C279.847 257.039 279.652 256.964 279.501 256.816C279.202 256.517 279.202 256.033 279.501 255.736L291.16 244.077C291.304 243.933 291.497 243.855 291.701 243.855H302.562C302.984 243.855 303.326 244.196 303.326 244.618C303.326 245.04 302.984 245.382 302.562 245.382H292.017L280.583 256.816C280.435 256.964 280.239 257.039 280.042 257.039Z" fill="#ACBFF0"/>
<path d="M364.538 230.37H309.337V243.522H364.538V230.37Z" fill="#75A2FF"/>
<path d="M280.042 288.36C279.847 288.36 279.652 288.285 279.501 288.137C279.202 287.838 279.202 287.354 279.501 287.057L291.16 275.399C291.304 275.254 291.497 275.176 291.701 275.176H302.562C302.984 275.176 303.326 275.517 303.326 275.939C303.326 276.362 302.984 276.703 302.562 276.703H292.017L280.583 288.137C280.435 288.285 280.239 288.36 280.042 288.36Z" fill="#ACBFF0"/>
<path d="M364.538 261.689H309.337V274.841H364.538V261.689Z" fill="#75A2FF"/>
<path d="M280.042 319.681C279.847 319.681 279.652 319.607 279.501 319.458C279.202 319.159 279.202 318.675 279.501 318.378L291.16 306.72C291.304 306.575 291.497 306.497 291.701 306.497H302.562C302.984 306.497 303.326 306.838 303.326 307.261C303.326 307.683 302.984 308.024 302.562 308.024H292.017L280.583 319.458C280.435 319.607 280.239 319.681 280.042 319.681Z" fill="#ACBFF0"/>
<path d="M364.538 293.01H309.337V306.162H364.538V293.01Z" fill="#75A2FF"/>
<path d="M360.353 107.89H202.084C199.733 107.89 197.827 109.796 197.827 112.147V182.725C197.827 185.076 199.733 186.983 202.084 186.983H360.353C362.704 186.983 364.61 185.076 364.61 182.725V112.147C364.61 109.796 362.704 107.89 360.353 107.89Z" fill="#EBF3FE"/>
<path d="M374.523 107.812C375.696 100.58 370.786 93.7668 363.555 92.5931C356.324 91.4193 349.51 96.3297 348.336 103.561C347.163 110.792 352.073 117.606 359.304 118.779C366.535 119.953 373.349 115.043 374.523 107.812Z" fill="#ACBFF0"/>
<path d="M367.571 101.608L365.486 99.5232L361.415 103.594L357.345 99.5232L355.259 101.608L359.33 105.679L355.259 109.75L357.345 111.833L361.415 107.762L365.486 111.833L367.571 109.75L363.501 105.679L367.571 101.608Z" fill="white"/>
<path d="M233.52 174.257C250.344 174.257 263.984 160.555 263.984 143.653C263.984 126.751 250.344 113.049 233.52 113.049C216.695 113.049 203.056 126.751 203.056 143.653C203.056 160.555 216.695 174.257 233.52 174.257Z" fill="#ACBFF0"/>
<path d="M233.52 144.595C239.372 144.595 244.116 139.829 244.116 133.95C244.116 128.071 239.372 123.305 233.52 123.305C227.668 123.305 222.924 128.071 222.924 133.95C222.924 139.829 227.668 144.595 233.52 144.595Z" fill="white"/>
<path d="M233.52 172.131C240.668 172.131 247.213 169.424 252.283 164.938C251.339 154.927 243.299 147.108 233.52 147.108C223.74 147.108 215.699 154.927 214.757 164.938C219.827 169.424 226.371 172.131 233.52 172.131Z" fill="white"/>
<path d="M277.409 119.311H272.743V180.595H277.409V119.311Z" fill="#ACBFF0"/>
<path d="M277.409 149.648H272.743V180.597H277.409V149.648Z" fill="#FF5766"/>
<path d="M279.268 149.32C279.659 146.91 278.022 144.639 275.612 144.248C273.202 143.856 270.932 145.493 270.54 147.903C270.149 150.313 271.786 152.584 274.196 152.975C276.606 153.366 278.877 151.73 279.268 149.32Z" fill="#FFC3C8"/>
<path d="M292.004 119.311H287.337V180.595H292.004V119.311Z" fill="#ACBFF0"/>
<path d="M292.004 134.663H287.337V180.595H292.004V134.663Z" fill="#FF5766"/>
<path d="M289.486 138.901C291.928 138.901 293.907 136.922 293.907 134.48C293.907 132.039 291.928 130.059 289.486 130.059C287.045 130.059 285.065 132.039 285.065 134.48C285.065 136.922 287.045 138.901 289.486 138.901Z" fill="#FFC3C8"/>
<path d="M306.599 119.311H301.932V180.595H306.599V119.311Z" fill="#ACBFF0"/>
<path d="M306.599 155.787H301.932V180.595H306.599V155.787Z" fill="#FF5766"/>
<path d="M308.371 157.102C308.932 154.725 307.46 152.344 305.084 151.783C302.708 151.223 300.327 152.694 299.766 155.071C299.205 157.447 300.677 159.828 303.053 160.389C305.429 160.949 307.81 159.478 308.371 157.102Z" fill="#FFC3C8"/>
<path d="M321.193 119.311H316.526V180.595H321.193V119.311Z" fill="#ACBFF0"/>
<path d="M321.193 141.909H316.526V180.595H321.193V141.909Z" fill="#FF5766"/>
<path d="M318.675 146.145C321.117 146.145 323.096 144.166 323.096 141.724C323.096 139.283 321.117 137.304 318.675 137.304C316.234 137.304 314.254 139.283 314.254 141.724C314.254 144.166 316.234 146.145 318.675 146.145Z" fill="#FFC3C8"/>
<path d="M335.788 119.311H331.121V180.595H335.788V119.311Z" fill="#ACBFF0"/>
<path d="M335.788 130.978H331.121V180.595H335.788V130.978Z" fill="#FF5766"/>
<path d="M336.397 133.552C338.123 131.826 338.123 129.027 336.397 127.301C334.67 125.574 331.871 125.574 330.145 127.301C328.418 129.027 328.418 131.826 330.145 133.552C331.871 135.279 334.67 135.279 336.397 133.552Z" fill="#FFC3C8"/>
<path d="M350.382 119.311H345.716V180.595H350.382V119.311Z" fill="#ACBFF0"/>
<path d="M350.382 132.944H345.716V180.597H350.382V132.944Z" fill="#FF5766"/>
<path d="M352.154 135.67C352.714 133.294 351.243 130.913 348.867 130.352C346.49 129.791 344.109 131.263 343.548 133.639C342.988 136.016 344.459 138.397 346.836 138.957C349.212 139.518 351.593 138.047 352.154 135.67Z" fill="#FFC3C8"/>
<path d="M148.494 309.878H82.5803C82.1363 309.878 81.7764 310.238 81.7764 310.682V312.549C81.7764 312.993 82.1363 313.353 82.5803 313.353H148.494C148.938 313.353 149.298 312.993 149.298 312.549V310.682C149.298 310.238 148.938 309.878 148.494 309.878Z" fill="#99BBFF"/>
<path d="M149.486 267.431H101.88C101.345 267.431 100.911 267.865 100.911 268.4V308.909C100.911 309.444 101.345 309.878 101.88 309.878H149.486C150.022 309.878 150.456 309.444 150.456 308.909V268.4C150.456 267.865 150.022 267.431 149.486 267.431Z" fill="#4D82F0"/>
<path d="M148.462 267.431H100.588C100.126 267.431 99.7523 267.805 99.7523 268.267V309.042C99.7523 309.504 100.126 309.878 100.588 309.878H148.462C148.923 309.878 149.298 309.504 149.298 309.042V268.267C149.298 267.805 148.923 267.431 148.462 267.431Z" fill="#75A3FF"/>
<path d="M148.114 268.301H100.936C100.761 268.301 100.62 268.442 100.62 268.617V308.694C100.62 308.869 100.761 309.011 100.936 309.011H148.114C148.288 309.011 148.43 308.869 148.43 308.694V268.617C148.43 268.442 148.288 268.301 148.114 268.301Z" fill="#99BBFF"/>
<g style="mix-blend-mode:multiply">
<path d="M134.298 272.378H116.035C115.76 272.378 115.537 272.601 115.537 272.876V274.032C115.537 274.308 115.76 274.531 116.035 274.531H134.298C134.573 274.531 134.796 274.308 134.796 274.032V272.876C134.796 272.601 134.573 272.378 134.298 272.378Z" fill="#D5DBF5"/>
<path d="M142.172 275.564H108.161C107.886 275.564 107.663 275.787 107.663 276.062V277.218C107.663 277.494 107.886 277.717 108.161 277.717H142.172C142.447 277.717 142.671 277.494 142.671 277.218V276.062C142.671 275.787 142.447 275.564 142.172 275.564Z" fill="#D5DBF5"/>
</g>
<path d="M148.494 309.878H114.226C113.782 309.878 113.422 310.238 113.422 310.682V312.549C113.422 312.993 113.782 313.353 114.226 313.353H148.494C148.938 313.353 149.298 312.993 149.298 312.549V310.682C149.298 310.238 148.938 309.878 148.494 309.878Z" fill="#4D82F0"/>
<path d="M133.657 271.775H115.395C115.119 271.775 114.896 271.998 114.896 272.274V273.43C114.896 273.705 115.119 273.928 115.395 273.928H133.657C133.932 273.928 134.156 273.705 134.156 273.43V272.274C134.156 271.998 133.932 271.775 133.657 271.775Z" fill="white"/>
<path d="M141.531 274.959H107.521C107.245 274.959 107.022 275.182 107.022 275.458V276.614C107.022 276.889 107.245 277.112 107.521 277.112H141.531C141.807 277.112 142.03 276.889 142.03 276.614V275.458C142.03 275.182 141.807 274.959 141.531 274.959Z" fill="white"/>
<path d="M111.458 291.752H107.682V302.477H111.458V291.752Z" fill="white"/>
<path d="M117.537 288.126H113.761V302.477H117.537V288.126Z" fill="white"/>
<path d="M123.619 285.029H119.843V302.477H123.619V285.029Z" fill="white"/>
<path d="M129.699 287.976H125.923V302.477H129.699V287.976Z" fill="white"/>
<path d="M135.778 286.238H132.003V302.477H135.778V286.238Z" fill="white"/>
<path d="M141.858 280.952H138.082V302.477H141.858V280.952Z" fill="white"/>
<path d="M149.917 321.984H143.241L132.423 413.137H139.098L149.917 321.984Z" fill="#3B63B8"/>
<path d="M146.387 321.984H139.711L128.893 413.137H135.568L146.387 321.984Z" fill="#4879E0"/>
<path d="M174.777 321.984H181.452L192.271 413.137H185.595L174.777 321.984Z" fill="#3B63B8"/>
<path d="M171.247 321.984H177.922L188.741 413.137H182.065L171.247 321.984Z" fill="#4879E0"/>
<path d="M189.507 313.928H74.7506V322.214H189.507V313.928Z" fill="#4879E0"/>
<path d="M189.509 313.928H133.114V322.214H189.509V313.928Z" fill="#3B63B8"/>
<path d="M108.704 302.556C113.683 302.556 120.113 302.763 120.113 302.763C120.113 302.763 126.129 307.95 126.336 308.779C126.544 309.609 127.321 316.35 126.233 316.713C125.144 317.076 124.211 315.209 124.211 315.209C122.915 315.572 121.203 313.238 120.166 311.889C119.128 310.54 115.965 309.66 115.032 310.593C114.099 311.527 109.224 311.681 107.045 310.748C104.867 309.815 108.704 302.553 108.704 302.553V302.556Z" fill="#FF8762"/>
<path d="M80.3657 397.539L81.4666 404.459C79.9923 408.247 80.5927 413.063 80.5927 413.063L108.865 413.302C105.855 407.556 92.595 407.021 91.2204 404.272C89.8458 401.521 89.2943 393.394 89.2943 393.394L80.3636 397.539H80.3657Z" fill="#FF8762"/>
<path d="M86.6596 404.862C86.6235 403.871 87.3808 400.314 89.954 399.274C90.2573 401.224 90.6731 403.173 91.2204 404.27C92.595 407.021 105.853 407.554 108.865 413.3L80.5927 413.061C80.5927 413.061 79.9923 408.245 81.4666 404.457C81.4666 404.457 86.5535 406.648 86.6596 404.862Z" fill="#2B1710"/>
<path d="M108.114 412.204C108.407 412.547 108.662 412.912 108.865 413.302L80.5927 413.063C80.5927 413.063 80.5396 412.636 80.5036 411.943L108.112 412.206L108.114 412.204Z" fill="#693E2F"/>
<path d="M89.1479 405.613C89.2115 405.611 89.2709 405.57 89.2943 405.507C89.2985 405.496 89.7291 404.346 90.5543 403.99C90.8958 403.844 91.2649 403.854 91.651 404.02C91.7338 404.056 91.8292 404.018 91.8653 403.935C91.9013 403.852 91.8632 403.757 91.7804 403.721C91.3095 403.517 90.8534 403.508 90.427 403.691C89.4724 404.102 89.01 405.341 88.9909 405.392C88.9612 405.477 89.0036 405.57 89.0885 405.6C89.1097 405.609 89.1288 405.611 89.15 405.611L89.1479 405.613Z" fill="#693E2F"/>
<path d="M91.8059 407.511C91.8695 407.509 91.9289 407.469 91.9522 407.405C91.9565 407.395 92.3871 406.245 93.2123 405.889C93.5538 405.742 93.9229 405.753 94.309 405.918C94.3917 405.954 94.4872 405.916 94.5233 405.833C94.5593 405.751 94.5211 405.655 94.4384 405.619C93.9675 405.416 93.5114 405.407 93.085 405.589C92.1304 406.001 91.668 407.24 91.6489 407.291C91.6192 407.376 91.6616 407.469 91.7465 407.499C91.7677 407.507 91.7868 407.509 91.808 407.509L91.8059 407.511Z" fill="#693E2F"/>
<path d="M96.18 408.795C96.2437 408.793 96.3031 408.752 96.3264 408.689C96.3306 408.678 96.7613 407.528 97.5864 407.172C97.928 407.025 98.2971 407.036 98.6832 407.202C98.7659 407.238 98.8613 407.199 98.8974 407.117C98.9335 407.034 98.8953 406.939 98.8126 406.902C98.3416 406.699 97.8855 406.69 97.4592 406.873C96.5046 407.284 96.0421 408.523 96.023 408.574C95.9933 408.659 96.0358 408.752 96.1206 408.782C96.1418 408.788 96.1609 408.793 96.1821 408.793L96.18 408.795Z" fill="#693E2F"/>
<path d="M59.3605 318.966C59.3605 318.966 86.4644 318.412 90.8895 322.837C95.3145 327.262 93.102 402.214 93.102 402.214H75.4018L70.701 344.963H31.9808L30.5977 315.646L59.3626 318.966H59.3605Z" fill="#1A2B70"/>
<path d="M107.93 397.539L109.031 404.459C107.557 408.247 108.157 413.063 108.157 413.063L136.43 413.302C133.42 407.556 120.159 407.021 118.785 404.272C117.41 401.521 116.859 393.394 116.859 393.394L107.928 397.539H107.93Z" fill="#FF8762"/>
<path d="M114.224 404.862C114.188 403.871 114.945 400.314 117.518 399.274C117.822 401.224 118.237 403.173 118.785 404.27C120.159 407.021 133.417 407.554 136.43 413.3L108.157 413.061C108.157 413.061 107.557 408.245 109.031 404.457C109.031 404.457 114.118 406.648 114.224 404.862Z" fill="#2B1710"/>
<path d="M135.679 412.204C135.971 412.547 136.226 412.912 136.43 413.302L108.157 413.063C108.157 413.063 108.104 412.636 108.068 411.943L135.677 412.206L135.679 412.204Z" fill="#693E2F"/>
<path d="M116.712 405.613C116.776 405.611 116.835 405.57 116.859 405.507C116.863 405.496 117.293 404.346 118.119 403.99C118.46 403.844 118.829 403.854 119.215 404.02C119.298 404.056 119.393 404.018 119.43 403.935C119.466 403.852 119.427 403.757 119.345 403.721C118.874 403.517 118.418 403.508 117.991 403.691C117.037 404.102 116.574 405.341 116.555 405.392C116.525 405.477 116.568 405.57 116.653 405.6C116.674 405.609 116.693 405.611 116.714 405.611L116.712 405.613Z" fill="#693E2F"/>
<path d="M119.37 407.511C119.434 407.509 119.493 407.469 119.516 407.405C119.521 407.395 119.951 406.245 120.777 405.889C121.118 405.742 121.487 405.753 121.873 405.918C121.956 405.954 122.051 405.916 122.088 405.833C122.124 405.751 122.085 405.655 122.003 405.619C121.532 405.416 121.076 405.407 120.649 405.589C119.695 406.001 119.232 407.24 119.213 407.291C119.183 407.376 119.226 407.469 119.311 407.499C119.332 407.507 119.351 407.509 119.372 407.509L119.37 407.511Z" fill="#693E2F"/>
<path d="M123.746 408.795C123.81 408.793 123.869 408.752 123.893 408.689C123.897 408.678 124.328 407.528 125.153 407.172C125.494 407.025 125.863 407.036 126.25 407.202C126.332 407.238 126.428 407.199 126.464 407.117C126.5 407.034 126.462 406.939 126.379 406.902C125.908 406.699 125.452 406.69 125.026 406.873C124.071 407.284 123.608 408.523 123.589 408.574C123.56 408.659 123.602 408.752 123.687 408.782C123.708 408.788 123.727 408.793 123.749 408.793L123.746 408.795Z" fill="#693E2F"/>
<path d="M86.9269 318.966C86.9269 318.966 114.031 318.412 118.456 322.837C122.881 327.262 120.668 402.214 120.668 402.214H104.027L98.2653 344.963H59.5451L58.162 315.646L86.9269 318.966Z" fill="#203489"/>
<path d="M51.0217 254.012C51.0217 254.012 41.4737 241.933 46.6284 237.19C48.7158 232.451 56.781 232.086 56.781 232.086C61.7576 230.726 64.5365 234.733 62.5891 237.279C60.6418 239.824 59.2587 250.995 59.2587 250.995L52.8269 254.514L51.0217 254.012Z" fill="#2B1710"/>
<path d="M59.0678 234.602C61.1297 235.433 62.9583 236.937 63.5628 237.926C64.1695 238.914 64.5365 242.37 64.6701 242.741C64.8038 243.112 68.847 244.86 68.847 244.86C68.847 244.86 68.253 245.853 66.7999 246.657C67.5594 248.935 68.2912 253.801 67.5594 254.735C66.8296 255.668 63.6689 256.154 63.6689 256.154C63.0664 257.21 64.6553 260.988 64.6553 260.988C64.6553 260.988 64.8038 262.268 63.3168 263.604C61.8276 264.945 52.3305 262.265 51.308 261.285C53.2999 258.848 51.0217 254.009 51.0217 254.009C52.1396 253.608 52.5045 251.264 52.5045 251.264C52.5045 251.264 53.0284 250.46 52.9839 250.253C53.3339 249.118 54.2991 249.306 55.05 249.289C55.801 249.272 56.1213 246.721 55.0225 246.078C53.9236 245.435 52.6572 244.794 52.3538 244.258C52.0505 243.721 50.7268 238.534 52.1841 238.377C53.6415 238.22 58.6541 236.568 59.0699 234.597L59.0678 234.602Z" fill="#FF8762"/>
<path d="M54.165 254.24C55.4183 254.213 56.4124 253.175 56.3855 251.922C56.3586 250.669 55.3208 249.674 54.0675 249.701C52.8143 249.728 51.8201 250.766 51.847 252.019C51.8739 253.273 52.9117 254.267 54.165 254.24Z" fill="#FF7E5E"/>
<g style="mix-blend-mode:multiply">
<path d="M55.3215 252.433C55.3619 252.391 55.3746 252.329 55.3512 252.274C55.3194 252.2 55.2324 252.164 55.1582 252.196C54.963 252.278 54.7997 252.272 54.683 252.181C54.5642 252.085 54.507 251.903 54.5388 251.725C54.5748 251.532 54.7042 251.383 54.893 251.322C54.944 251.305 54.9821 251.262 54.9927 251.211C55.0033 251.158 54.9843 251.105 54.9461 251.071C54.5388 250.717 53.9682 250.675 53.4548 250.961C52.9223 251.26 52.6381 251.807 52.7314 252.359C52.7442 252.44 52.8205 252.495 52.9011 252.48C52.9817 252.467 53.0369 252.391 53.022 252.31C52.9351 251.793 53.2766 251.4 53.5969 251.22C53.86 251.074 54.2291 250.997 54.56 251.165C54.3967 251.286 54.2842 251.464 54.246 251.674C54.1951 251.96 54.2927 252.251 54.4964 252.414C54.613 252.508 54.8697 252.641 55.2706 252.471C55.2897 252.463 55.3067 252.452 55.3194 252.438L55.3215 252.433Z" fill="#E0B3A8"/>
</g>
<g style="mix-blend-mode:multiply">
<path d="M62.1649 245.732C62.1649 245.732 62.1437 245.749 62.131 245.755C61.9379 245.847 61.694 245.83 61.4628 245.707C61.1912 245.562 60.9982 245.301 60.9558 245.026C60.9473 244.964 60.9897 244.907 61.0512 244.896C61.1127 244.888 61.17 244.93 61.1806 244.992C61.2124 245.198 61.3609 245.395 61.5709 245.507C61.7364 245.594 61.9103 245.611 62.0355 245.552C62.0928 245.524 62.1585 245.55 62.1861 245.607C62.2073 245.651 62.1967 245.7 62.1649 245.734V245.732Z" fill="#E0B3A8"/>
</g>
<path d="M62.43 241.035C62.43 241.035 62.4194 241.044 62.4152 241.048C62.3961 241.063 60.419 242.497 59.3542 243.564C59.3096 243.609 59.2375 243.609 59.1951 243.564C59.1505 243.52 59.1632 243.458 59.1951 243.405C62.1225 238.45 62.2625 240.878 62.2837 240.864C62.3346 240.828 62.4046 240.838 62.4407 240.889C62.4725 240.934 62.4682 240.995 62.43 241.033V241.035Z" fill="#2B1710"/>
<path d="M61.2082 244.251C61.3418 244.854 61.6876 245.289 61.9782 245.225C62.271 245.159 62.3982 244.621 62.2667 244.018C62.1352 243.416 61.7873 242.981 61.4967 243.044C61.2061 243.108 61.0767 243.649 61.2082 244.251Z" fill="#2B1710"/>
<path d="M66.9463 247.088C63.6625 248.352 62.9264 249.527 60.5188 249.943C58.1111 250.361 56.0386 246.377 55.0203 246.08C54.0021 245.781 55.0479 249.292 55.0479 249.292C56.4819 250.163 56.484 251.786 56.938 252.87C57.392 253.952 58.5269 255.882 59.0593 256.003C59.5917 256.124 62.2243 256.894 64.1695 256.487C66.1148 256.08 68.5288 255.929 68.7197 254.037C68.9106 252.145 66.9463 247.088 66.9463 247.088Z" fill="#2B1710"/>
<path d="M67.2475 248.693C65.2302 249.311 62.5743 251.004 62.8097 251.704C63.0452 252.406 69.1949 251.939 67.2475 248.693Z" fill="#FF8762"/>
<path d="M67.1372 249.502C67.2051 249.432 67.2709 249.357 67.3366 249.281C67.4066 249.2 67.396 249.079 67.3154 249.012C67.2348 248.942 67.1224 248.956 67.046 249.033C65.5908 250.723 63.5098 250.878 63.4907 250.88C63.3846 250.887 63.304 250.978 63.3125 251.084C63.3189 251.19 63.4101 251.269 63.5162 251.262C63.6031 251.256 65.5972 251.114 67.1393 249.504L67.1372 249.502Z" fill="#2B1710"/>
<path d="M41.3188 265.31C25.7845 281.145 15.6807 310.555 42.5258 315.08C69.371 319.604 41.3188 265.31 41.3188 265.31Z" fill="#C23455"/>
<path d="M65.3744 260.861C69.8228 261.691 73.342 263.952 73.342 263.952C80.6818 275.413 84.1501 317.793 84.1501 317.793L38.1517 318.546C38.0011 315.379 37.5493 268.926 41.3188 265.307C45.0884 261.689 50.8965 260.405 50.8965 260.405C50.8965 260.405 60.3236 260.481 65.3744 260.857V260.861Z" fill="#618AF2"/>
<path d="M43.2704 354.277H36.6329V407.195H43.2704V354.277Z" fill="#6E88CC"/>
<path d="M58.4823 401.387H21.421V407.195H58.4823V401.387Z" fill="#5B70A8"/>
<path d="M92.8178 345.024H6.83063V354.413H92.8178C94.0163 354.413 94.99 353.441 94.99 352.241V347.194C94.99 345.996 94.0184 345.024 92.8178 345.024Z" fill="#FF5766"/>
<path d="M57.2371 354.415H9.94258V270.899C9.94258 264.86 14.8386 259.964 20.8779 259.964H46.3018C52.3411 259.964 57.2371 264.86 57.2371 270.899V354.415Z" fill="#FF5766"/>
<path d="M54.0573 354.415H6.76062V270.899C6.76062 264.86 11.6566 259.964 17.6959 259.964H43.1198C49.1592 259.964 54.0551 264.86 54.0551 270.899V354.415H54.0573Z" fill="#FF7A86"/>
<path d="M95.8979 315.625H56.9529C56.0789 315.625 55.3704 316.333 55.3704 317.207V320.888C55.3704 321.762 56.0789 322.47 56.9529 322.47H95.8979C96.7719 322.47 97.4804 321.762 97.4804 320.888V317.207C97.4804 316.333 96.7719 315.625 95.8979 315.625Z" fill="#FF5766"/>
<path d="M58.7581 354.277H21.1431V362.298H58.7581V354.277Z" fill="#5B70A8"/>
<path d="M22.2334 415.7C25.7024 415.7 28.5146 412.887 28.5146 409.418C28.5146 405.949 25.7024 403.137 22.2334 403.137C18.7644 403.137 15.9523 405.949 15.9523 409.418C15.9523 412.887 18.7644 415.7 22.2334 415.7Z" fill="#3D528A"/>
<path d="M22.2334 412.6C23.9908 412.6 25.4154 411.176 25.4154 409.418C25.4154 407.661 23.9908 406.236 22.2334 406.236C20.4761 406.236 19.0515 407.661 19.0515 409.418C19.0515 411.176 20.4761 412.6 22.2334 412.6Z" fill="#6E88CC"/>
<path d="M26.9321 399.45H17.5369C16.3617 399.45 15.4071 400.403 15.4071 401.58V406.654H29.0598V401.58C29.0598 400.405 28.1073 399.45 26.93 399.45H26.9321Z" fill="#6E88CC"/>
<path d="M40.2582 415.7C43.7272 415.7 46.5393 412.887 46.5393 409.418C46.5393 405.949 43.7272 403.137 40.2582 403.137C36.7892 403.137 33.977 405.949 33.977 409.418C33.977 412.887 36.7892 415.7 40.2582 415.7Z" fill="#3D528A"/>
<path d="M40.0269 412.6C41.7843 412.6 43.2089 411.176 43.2089 409.418C43.2089 407.661 41.7843 406.236 40.0269 406.236C38.2696 406.236 36.845 407.661 36.845 409.418C36.845 411.176 38.2696 412.6 40.0269 412.6Z" fill="#6E88CC"/>
<path d="M44.9547 399.45H35.5595C34.3843 399.45 33.4297 400.403 33.4297 401.58V406.654H47.0824V401.58C47.0824 400.405 46.1299 399.45 44.9526 399.45H44.9547Z" fill="#6E88CC"/>
<path d="M58.2808 415.7C61.7498 415.7 64.562 412.887 64.562 409.418C64.562 405.949 61.7498 403.137 58.2808 403.137C54.8118 403.137 51.9996 405.949 51.9996 409.418C51.9996 412.887 54.8118 415.7 58.2808 415.7Z" fill="#3D528A"/>
<path d="M58.0517 412.6C59.809 412.6 61.2336 411.176 61.2336 409.418C61.2336 407.661 59.809 406.236 58.0517 406.236C56.2943 406.236 54.8697 407.661 54.8697 409.418C54.8697 411.176 56.2943 412.6 58.0517 412.6Z" fill="#6E88CC"/>
<path d="M62.9795 399.45H53.5842C52.409 399.45 51.4544 400.403 51.4544 401.58V406.654H65.1072V401.58C65.1072 400.405 64.1547 399.45 62.9774 399.45H62.9795Z" fill="#6E88CC"/>
<path d="M71.7808 262.728C82.3597 262.936 79.042 300.897 79.042 300.897C81.5303 299.444 110.365 302.555 110.365 302.555C111.61 306.705 109.328 314.588 109.328 314.588C109.328 314.588 63.6922 316.246 62.0334 314.795C60.3745 313.344 61.2039 288.867 61.6176 279.325C62.0334 269.783 65.559 263.352 71.7829 262.73L71.7808 262.728Z" fill="#3D6AD9"/>
<path d="M391.839 67.012H172.104V82.3236H391.839V67.012Z" fill="#75A2FF"/>
<path d="M363.242 75.6182H354.708V77.5146H363.242V75.6182Z" fill="white"/>
<path d="M375.065 77.0903L369.03 71.0558L367.689 72.3968L373.724 78.4313L375.065 77.0903Z" fill="white"/>
<path d="M369.031 78.4317L375.065 72.3972L373.724 71.0562L367.69 77.0907L369.031 78.4317Z" fill="white"/>
<path d="M378.602 70.65V78.431H386.383V70.65H378.602ZM384.875 76.9227H380.108V72.1562H384.875V76.9227Z" fill="white"/>
<path d="M201.934 75.1876C202.149 73.8623 201.249 72.6136 199.923 72.3985C198.598 72.1833 197.349 73.0833 197.134 74.4086C196.919 75.7338 197.819 76.9826 199.144 77.1977C200.47 77.4128 201.718 76.5128 201.934 75.1876Z" fill="white"/>
<path d="M191.142 76.5121C192.091 75.5627 192.091 74.0235 191.142 73.0741C190.192 72.1247 188.653 72.1247 187.704 73.0741C186.754 74.0235 186.754 75.5627 187.704 76.5121C188.653 77.4614 190.192 77.4614 191.142 76.5121Z" fill="white"/>
<path d="M181.716 75.1508C181.916 73.8232 181.002 72.5847 179.674 72.3846C178.347 72.1846 177.108 73.0986 176.908 74.4263C176.708 75.7539 177.622 76.9923 178.95 77.1924C180.277 77.3925 181.516 76.4784 181.716 75.1508Z" fill="white"/>
</svg>
