<svg width="187" height="257" viewBox="0 0 187 257" fill="none" xmlns="http://www.w3.org/2000/svg">
<path d="M17.465 223.185C17.7908 222.183 19.2092 222.183 19.535 223.185L22.4092 232.031C22.5549 232.48 22.9727 232.783 23.4442 232.783H32.7453C33.7995 232.783 34.2378 234.132 33.3849 234.752L25.8602 240.219C25.4788 240.496 25.3192 240.987 25.4648 241.436L28.3391 250.281C28.6648 251.284 27.5173 252.118 26.6644 251.498L19.1396 246.031C18.7582 245.754 18.2418 245.754 17.8604 246.031L10.3356 251.498C9.4827 252.118 8.33518 251.284 8.66095 250.281L11.5352 241.436C11.6808 240.987 11.5212 240.496 11.1398 240.219L3.61505 234.752C2.76218 234.132 3.2005 232.783 4.2547 232.783H13.5558C14.0273 232.783 14.4451 232.48 14.5908 232.031L17.465 223.185Z" fill="#1A85D5"/>
<path d="M55.5533 3.18532C55.879 2.18272 57.2975 2.18272 57.6232 3.18532L60.4974 12.0312C60.6431 12.4796 61.061 12.7832 61.5324 12.7832H70.8336C71.8878 12.7832 72.3261 14.1322 71.4732 14.7518L63.9484 20.2189C63.567 20.496 63.4074 20.9872 63.5531 21.4356L66.4273 30.2815C66.7531 31.2841 65.6056 32.1178 64.7527 31.4982L57.2279 26.0311C56.8465 25.754 56.33 25.754 55.9486 26.0311L48.4238 31.4982C47.571 32.1178 46.4234 31.2841 46.7492 30.2815L49.6234 21.4356C49.7691 20.9872 49.6095 20.496 49.2281 20.2189L41.7033 14.7518C40.8504 14.1322 41.2888 12.7832 42.343 12.7832H51.6441C52.1156 12.7832 52.5334 12.4796 52.6791 12.0312L55.5533 3.18532Z" fill="#1A85D5"/>
<path d="M92.5533 3.18532C92.879 2.18272 94.2975 2.18272 94.6232 3.18532L97.4974 12.0312C97.6431 12.4796 98.061 12.7832 98.5324 12.7832H107.834C108.888 12.7832 109.326 14.1322 108.473 14.7518L100.948 20.2189C100.567 20.496 100.407 20.9872 100.553 21.4356L103.427 30.2815C103.753 31.2841 102.606 32.1178 101.753 31.4982L94.2279 26.0311C93.8465 25.754 93.33 25.754 92.9486 26.0311L85.4238 31.4982C84.571 32.1178 83.4234 31.2841 83.7492 30.2815L86.6234 21.4356C86.7691 20.9872 86.6095 20.496 86.2281 20.2189L78.7033 14.7518C77.8504 14.1322 78.2888 12.7832 79.343 12.7832H88.6441C89.1156 12.7832 89.5334 12.4796 89.6791 12.0312L92.5533 3.18532Z" fill="#1A85D5"/>
<path d="M129.553 3.18532C129.879 2.18272 131.297 2.18272 131.623 3.18532L134.497 12.0312C134.643 12.4796 135.061 12.7832 135.532 12.7832H144.834C145.888 12.7832 146.326 14.1322 145.473 14.7518L137.948 20.2189C137.567 20.496 137.407 20.9872 137.553 21.4356L140.427 30.2815C140.753 31.2841 139.606 32.1178 138.753 31.4982L131.228 26.0311C130.846 25.754 130.33 25.754 129.949 26.0311L122.424 31.4982C121.571 32.1178 120.423 31.2841 120.749 30.2815L123.623 21.4356C123.769 20.9872 123.61 20.496 123.228 20.2189L115.703 14.7518C114.85 14.1322 115.289 12.7832 116.343 12.7832H125.644C126.116 12.7832 126.533 12.4796 126.679 12.0312L129.553 3.18532Z" fill="#1A85D5"/>
<path d="M166.553 3.18532C166.879 2.18272 168.297 2.18272 168.623 3.18532L171.497 12.0312C171.643 12.4796 172.061 12.7832 172.532 12.7832H181.834C182.888 12.7832 183.326 14.1322 182.473 14.7518L174.948 20.2189C174.567 20.496 174.407 20.9872 174.553 21.4356L177.427 30.2815C177.753 31.2841 176.606 32.1178 175.753 31.4982L168.228 26.0311C167.846 25.754 167.33 25.754 166.949 26.0311L159.424 31.4982C158.571 32.1178 157.423 31.2841 157.749 30.2815L160.623 21.4356C160.769 20.9872 160.61 20.496 160.228 20.2189L152.703 14.7518C151.85 14.1322 152.289 12.7832 153.343 12.7832H162.644C163.116 12.7832 163.533 12.4796 163.679 12.0312L166.553 3.18532Z" fill="#1A85D5"/>
</svg>
