<svg width="529" height="673" viewBox="0 0 529 673" fill="none" xmlns="http://www.w3.org/2000/svg">
<g style="mix-blend-mode:multiply" opacity="0.3">
<path d="M476.666 333.4L418.226 299.664L374.756 315.371C355.798 308.759 335.512 303.955 314.682 300.977L302.882 272.045H220.473L209.041 300.977C188.146 303.971 167.972 308.791 149.079 315.403L105.481 299.68L47.3768 333.448L74.6597 358.649C63.3239 369.617 55.0461 381.321 49.9546 393.425L0 400.15L0.304211 447.895L50.2908 454.636C55.5104 466.692 63.8842 478.428 75.3482 489.396L48.3855 514.629L106.826 548.364L150.296 532.658C169.253 539.27 189.539 544.074 210.418 547.084L222.17 576H304.579L308.149 573.902L316.011 547.068C336.905 544.074 357.111 539.27 376.004 532.674L419.603 548.397L477.707 514.629L450.424 489.428C461.76 478.46 470.006 466.74 475.081 454.636L525.036 447.911L528.606 445.797L524.731 400.182L474.777 393.457C469.509 381.369 461.151 369.649 449.687 358.681L476.65 333.448L476.666 333.4Z" fill="#B3B3B3"/>
</g>
<path d="M480.237 331.287L421.796 297.552L378.326 313.259C359.369 306.646 339.083 301.843 318.252 298.865L306.452 269.933H224.043L212.611 298.865C191.717 301.859 171.543 306.678 152.65 313.291L109.051 297.568L50.9472 331.335L78.2301 356.537C66.8943 367.504 58.6166 379.209 53.525 391.313L3.57043 398.038L3.87465 445.783L53.8613 452.523C59.0809 464.58 67.4547 476.316 78.9186 487.283L51.9559 512.517L110.396 546.252L153.867 530.545C172.824 537.158 193.11 541.961 213.988 544.971L225.74 573.887H308.149L319.581 544.955C340.476 541.961 360.682 537.158 379.575 530.561L423.173 546.284L481.277 512.517L453.994 487.315C465.33 476.348 473.576 464.628 478.651 452.523L528.606 445.799L528.302 398.054L478.347 391.329C473.08 379.241 464.722 367.52 453.258 356.553L480.22 331.319L480.237 331.287Z" fill="#EF8181"/>
<path d="M480.237 331.286V314.219L453.274 339.436V356.504L480.237 331.286Z" fill="#D86A6A"/>
<path d="M50.9312 534.235V551.303L78.2301 576.504V559.437L50.9312 534.235Z" fill="#D86A6A"/>
<path d="M480.237 314.219L421.796 280.484L378.326 296.191C359.369 289.578 339.083 284.775 318.252 281.797L306.452 252.865H224.043L212.611 281.797C191.717 284.791 171.543 289.61 152.65 296.223L109.051 280.5L50.9472 314.267L78.2301 339.468C66.8943 350.436 58.6166 362.14 53.525 374.245L3.57043 380.969L3.87465 428.714L53.8613 435.455C59.0809 447.511 67.4547 459.247 78.9186 470.215L51.9559 495.448L110.396 529.184L153.867 513.477C172.824 520.09 193.11 524.893 213.988 527.903L225.74 556.819H308.149L319.581 527.887C340.476 524.893 360.682 520.09 379.575 513.493L423.173 529.216L481.277 495.448L453.994 470.247C465.33 459.279 473.576 447.559 478.651 435.455L528.606 428.73L528.302 380.985L478.347 374.261C473.08 362.172 464.722 350.452 453.258 339.484L480.22 314.251L480.237 314.219Z" fill="#FF9797"/>
<path d="M110.396 546.204V529.137L153.867 513.43V530.497L110.396 546.204Z" fill="#D86A6A"/>
<path d="M225.74 556.771V573.838L213.988 544.922V527.854L225.74 556.771Z" fill="#D86A6A"/>
<path d="M308.165 573.856V556.788L319.597 527.84V544.908L308.165 573.856Z" fill="#D86A6A"/>
<path d="M423.189 546.22V529.169L379.591 513.43V530.497L423.189 546.22Z" fill="#D86A6A"/>
<path d="M478.667 452.459V435.391L528.622 428.666V445.734L478.667 452.459Z" fill="#D86A6A"/>
<path d="M53.8773 672.475V655.423L3.87463 648.683V665.75L53.8773 672.475Z" fill="#D86A6A"/>
<path d="M51.9559 495.401V512.469L110.396 546.205V529.137L51.9559 495.401Z" fill="#EF8181"/>
<path d="M481.293 512.469V495.401L423.189 529.169V546.221L481.293 512.469Z" fill="#EF8181"/>
<path d="M470.284 403.398C470.466 338.343 379.568 285.351 267.257 285.037C154.947 284.724 63.7538 337.207 63.5721 402.263C63.3904 467.318 154.289 520.31 266.599 520.624C378.91 520.937 470.102 468.454 470.284 403.398Z" stroke="white" stroke-miterlimit="10"/>
<g style="mix-blend-mode:multiply" opacity="0.2">
<path d="M431.931 351.893L305.684 279.01C303.202 277.585 299.199 277.585 296.734 279.01L285.27 285.671C282.804 287.096 282.82 289.417 285.302 290.858L411.549 363.741C414.031 365.166 418.034 365.166 420.499 363.741L431.963 357.08C434.429 355.655 434.413 353.334 431.931 351.893Z" fill="#808080"/>
</g>
<path d="M410.941 55.9762L317.772 2.17894C313.225 -0.44688 309.142 -0.606991 306.212 1.20226L301.345 4.0042L303.314 4.35645C302.321 6.1657 301.761 8.48731 301.745 11.2892L301.008 271.357C300.976 281.492 308.101 293.821 316.923 298.912L410.092 352.71C412.606 354.167 414.975 354.839 417.089 354.871L416.544 356.648L421.396 353.862H421.428C424.31 352.197 426.103 348.659 426.119 343.615L426.856 83.5473C427.496 70.8185 419.763 61.0837 410.941 55.9922V55.9762Z" fill="#1B1F2D"/>
<path d="M405.609 59.0663L312.44 5.26906C303.618 0.177538 296.461 4.26037 296.429 14.3954L295.693 274.463C295.661 284.599 302.786 296.927 311.608 302.019L404.776 355.816C413.598 360.907 420.755 356.825 420.787 346.69L421.524 86.6214C422.164 73.8926 414.431 64.1578 405.609 59.0663Z" fill="#31394C"/>
<path d="M404.984 61.7247L313.033 8.6319C305.331 4.18081 299.039 7.7673 299.023 16.6214L298.287 275.265C298.255 284.119 304.499 294.926 312.216 299.377L404.168 352.47C411.869 356.921 418.162 353.335 418.194 344.496L418.93 85.8534C418.93 75.0459 412.702 66.1757 405 61.7407L404.984 61.7247Z" fill="#1B1F2D"/>
<path d="M404.76 64.6382L393.136 57.9295C392.432 57.5132 391.839 57.8175 391.743 58.57C391.119 63.4053 387.228 65.1826 382.537 62.4767L335.384 35.2578C330.693 32.552 326.834 26.3076 326.226 20.7518C326.13 19.8872 325.569 18.9265 324.849 18.5102C322.623 17.2294 317.868 14.4754 313.225 11.8016C306.692 8.02298 301.377 11.0491 301.361 18.5583L300.624 276.049C300.608 283.542 305.876 292.684 312.408 296.463L403.928 349.299C410.46 353.078 415.776 350.036 415.792 342.543L416.528 85.0523C416.544 77.5431 411.277 68.4168 404.744 64.6382H404.76Z" fill="#546FBF"/>
<path d="M364.781 197.258L333.463 179.182C332.246 178.477 331.237 179.038 331.237 180.447C331.237 181.855 332.23 183.569 333.447 184.273L364.765 202.35C365.981 203.054 366.99 202.478 366.99 201.085C366.99 199.692 365.997 197.963 364.781 197.258Z" fill="#F24B4B"/>
<path d="M380.888 206.561L372.674 201.822C371.457 201.117 370.465 201.678 370.448 203.087C370.432 204.496 371.425 206.209 372.658 206.913L380.872 211.653C382.089 212.357 383.081 211.781 383.097 210.372C383.113 208.963 382.121 207.266 380.888 206.545" fill="#F24B4B"/>
<path d="M376.196 217.128L338.026 195.097C337.322 194.697 336.761 195.017 336.761 195.817C336.761 196.618 337.322 197.595 338.026 197.995L376.196 220.026C376.885 220.426 377.461 220.106 377.461 219.306C377.461 218.505 376.901 217.528 376.212 217.128" fill="#FF9797"/>
<path d="M376.165 228.624L369.136 224.573C368.447 224.173 367.871 224.493 367.871 225.31C367.871 226.11 368.431 227.087 369.12 227.487L376.148 231.538C376.837 231.938 377.413 231.618 377.413 230.817C377.413 230.017 376.853 229.04 376.165 228.64" fill="#FF9797"/>
<path d="M363.884 221.531L338.01 206.593C337.306 206.193 336.745 206.513 336.745 207.314C336.745 208.114 337.306 209.091 338.01 209.491L363.884 224.429C364.588 224.83 365.149 224.51 365.149 223.709C365.149 222.908 364.588 221.932 363.884 221.515" fill="#FF9797"/>
<path d="M379.255 224.653L351.091 208.386C350.403 207.986 349.826 208.306 349.826 209.107C349.826 209.907 350.387 210.884 351.075 211.284L379.239 227.551C379.943 227.952 380.503 227.632 380.503 226.831C380.503 226.03 379.943 225.054 379.239 224.653" fill="#FF9797"/>
<path d="M345.888 205.392L334.952 199.083C334.263 198.683 333.687 199.003 333.687 199.804C333.687 200.604 334.247 201.581 334.936 201.981L345.872 208.306C346.56 208.706 347.136 208.386 347.136 207.585C347.136 206.785 346.576 205.808 345.888 205.408" fill="#FF9797"/>
<path d="M358.76 84.8275C358.44 84.6353 358.12 84.4752 357.8 84.3311C355.478 83.2424 353.092 82.3938 351.011 82.4898C349.234 82.5699 347.649 83.3865 346.88 85.1157C346.464 86.0443 346.256 87.1971 346.336 88.51C346.352 88.6701 346.368 88.8302 346.384 89.0224C346.224 88.8783 346.064 88.7662 345.903 88.6701C345.231 88.2859 344.527 88.2218 343.966 88.4139C342.669 88.8623 342.237 90.5594 342.013 92.2406C341.757 94.242 341.789 96.4035 341.981 98.661C342.077 99.7818 342.237 100.935 342.445 102.087C342.525 102.568 342.605 103.032 342.685 103.512C341.228 102.952 340.075 105.306 341.276 108.38C342.381 111.198 343.342 114.288 344.607 115.008C344.671 115.04 344.735 115.072 344.799 115.104C344.959 115.152 345.119 115.184 345.263 115.168C346.288 118.723 347.889 122.197 349.89 125.255V132.508H331.237C329.348 132.573 328.083 133.965 327.827 136.255L326.242 151.081C326.242 151.081 337.402 163.25 358.232 175.274C376.597 185.873 390.27 188.051 390.27 188.051L388.765 171.415C388.541 168.854 387.292 166.004 385.419 163.778L367.038 142.435V135.182C369.072 134.446 370.705 132.845 371.745 130.475C371.889 130.651 372.034 130.811 372.21 130.955C372.274 131.003 372.338 131.051 372.402 131.084C373.651 131.804 374.627 129.835 375.748 128.298C376.949 126.648 375.86 123.062 374.451 121.877C374.611 119.379 374.547 116.754 374.371 114.064C374.195 111.422 374.067 107.851 372.226 105.033C372.13 104.889 372.034 104.745 371.922 104.617C372.194 104.361 372.386 104.009 372.466 103.496C372.69 101.895 371.633 99.9419 370.24 98.6931C369.664 98.1807 369.056 97.7644 368.447 97.3962C368.303 97.3161 368.159 97.2361 368.015 97.156C368.079 96.8998 368.127 96.6116 368.127 96.2914C368.111 94.4661 366.958 92.3046 365.517 90.9437C364.957 90.4153 364.38 89.983 363.82 89.6628C363.292 89.3586 362.779 89.1505 362.267 88.9903C362.251 88.8783 362.235 88.7662 362.203 88.6381C362.011 87.9816 361.514 87.2451 361.066 86.7168C360.362 85.8682 359.577 85.2758 358.792 84.8115" fill="#D0D9F2"/>
<path d="M377.99 249.711C369.952 245.068 363.404 248.799 363.372 258.037C363.34 267.275 369.84 278.531 377.894 283.174C385.947 287.818 392.48 284.087 392.512 274.849C392.544 265.61 386.043 254.354 377.99 249.695V249.711Z" fill="#F24B4B"/>
<path d="M377.958 262.071C373.523 259.509 371.393 259.733 370.176 260.181C368.959 260.614 368.399 262.279 368.607 263.368C368.735 264.008 369.12 264.889 369.424 265.529C369.584 265.865 369.84 266.154 370.096 266.298C370.192 266.346 370.288 266.394 370.368 266.41L373.33 266.97C373.683 267.034 373.923 266.794 373.923 266.378V264.536C373.923 264.168 374.099 263.928 374.387 263.928C375.7 263.96 377.942 265.225 377.942 265.225C377.942 265.225 380.183 266.554 381.48 268.027C381.768 268.347 381.944 268.795 381.944 269.164V271.005C381.944 271.421 382.169 271.934 382.521 272.27L385.483 275.136C385.579 275.216 385.659 275.296 385.755 275.344C386.011 275.488 386.267 275.504 386.428 275.344C386.732 275.056 387.116 274.623 387.26 274.127C387.484 273.295 386.924 270.989 385.723 269.164C384.522 267.322 382.393 264.633 377.958 262.071Z" fill="white"/>
<path d="M337.402 226.206C329.348 221.563 322.816 225.294 322.784 234.532C322.752 243.77 329.252 255.026 337.306 259.669C345.343 264.313 351.892 260.582 351.924 251.344C351.956 242.105 345.455 230.833 337.402 226.19V226.206Z" fill="#91AAF2"/>
<path d="M332.999 231.745C332.999 231.745 332.919 231.697 332.887 231.681C332.39 231.473 331.702 231.233 331.269 231.265C330.517 231.329 329.684 232.706 329.844 234.595C329.989 236.469 330.597 239.591 333.719 245.003C336.841 250.43 339.243 252.512 340.796 253.585C340.924 253.681 341.052 253.761 341.18 253.825C342.605 254.657 344.014 254.593 344.399 254.033C344.655 253.681 344.799 252.976 344.863 252.432C344.911 252.047 344.719 251.535 344.399 251.151L341.597 247.949C341.468 247.805 341.34 247.708 341.212 247.628C340.988 247.5 340.764 247.468 340.604 247.564L339.467 248.221C339.307 248.317 339.083 248.301 338.859 248.173C338.779 248.125 338.683 248.061 338.602 247.981C337.242 246.636 335.64 243.914 335.64 243.914C335.64 243.914 334.087 241.16 333.607 239.319C333.495 238.902 333.607 238.582 333.831 238.454L334.968 237.798C335.224 237.654 335.288 237.221 335.128 236.757L333.751 232.738C333.607 232.322 333.319 231.938 332.999 231.745Z" fill="white"/>
<path d="M366.366 45.2332L350.098 35.8347C349.634 35.5625 349.266 35.7707 349.266 36.299C349.266 36.8114 349.634 37.4518 350.082 37.708L366.35 47.1065C366.798 47.3627 367.182 47.1705 367.182 46.6422C367.182 46.1138 366.814 45.4734 366.366 45.2172" fill="#31394C"/>
<path d="M372.21 48.1145C371.361 47.6182 370.673 48.0185 370.673 48.9952C370.673 49.9558 371.345 51.1406 372.21 51.637C373.058 52.1173 373.747 51.733 373.747 50.7724C373.747 49.7957 373.058 48.6109 372.21 48.1145Z" fill="#31394C"/>
<path d="M372.194 48.5144C371.537 48.1301 371.009 48.4343 371.009 49.1869C371.009 49.9394 371.537 50.852 372.194 51.2363C372.85 51.6045 373.379 51.3163 373.379 50.5638C373.379 49.8113 372.85 48.8987 372.21 48.5144" fill="#1B1F2D"/>
<path d="M372.194 49.5719C372.034 49.4758 371.922 49.5558 371.922 49.732C371.922 49.9081 372.05 50.1162 372.194 50.1963C372.338 50.2763 372.466 50.1963 372.466 50.0362C372.466 49.8601 372.338 49.6519 372.194 49.5559" fill="#31394C"/>
<g opacity="0.1">
<path d="M393.152 57.9291C392.448 57.5128 391.855 57.817 391.759 58.5695C391.135 63.4049 387.244 65.1821 382.553 62.4762L335.4 35.2574C331.269 32.8717 327.763 27.7162 326.594 22.7207L301.313 41.95L301.04 138.273L400.79 62.3481L393.136 57.9291H393.152Z" fill="white"/>
<path d="M300.912 182.624L300.848 203.455L416.464 115.458L416.528 94.6273L300.912 182.624Z" fill="white"/>
<path d="M300.656 276.049C300.64 283.542 305.908 292.684 312.44 296.463L339.883 312.298L416.08 254.306L416.352 157.983L300.736 245.98L300.656 276.033V276.049Z" fill="white"/>
<path d="M388.461 340.349L415.888 319.486L415.936 298.656L372.93 331.382L388.461 340.349Z" fill="white"/>
</g>
<path d="M453.658 211.108L439.216 202.766C438.736 202.478 438.336 202.718 438.336 203.278C438.336 203.839 438.72 204.511 439.216 204.783L453.658 213.125C454.138 213.413 454.539 213.189 454.539 212.629C454.539 212.069 454.138 211.38 453.658 211.108Z" fill="#91AAF2"/>
<path d="M459.71 219.177L439.2 207.328C438.72 207.04 438.32 207.264 438.32 207.825C438.32 208.385 438.704 209.074 439.2 209.346L459.71 221.194C460.191 221.482 460.591 221.242 460.591 220.682C460.591 220.121 460.207 219.449 459.71 219.177Z" fill="#91AAF2"/>
<path d="M473.112 226.909L464.338 221.85C463.857 221.562 463.457 221.786 463.457 222.346C463.457 222.907 463.857 223.595 464.338 223.867L473.112 228.927C473.592 229.215 473.992 228.975 473.992 228.414C473.992 227.854 473.592 227.182 473.112 226.893" fill="#91AAF2"/>
<path d="M446.501 216.118L439.184 211.891C438.704 211.603 438.304 211.827 438.304 212.388C438.304 212.948 438.688 213.621 439.184 213.893L446.501 218.12C446.982 218.408 447.382 218.184 447.382 217.623C447.382 217.063 446.998 216.391 446.501 216.118Z" fill="#91AAF2"/>
<path d="M464.93 226.75L450.344 218.328C449.864 218.04 449.463 218.264 449.463 218.825C449.463 219.385 449.864 220.058 450.344 220.346L464.93 228.768C465.41 229.056 465.811 228.832 465.811 228.271C465.811 227.711 465.426 227.038 464.93 226.766" fill="#91AAF2"/>
<path d="M451.657 223.66L439.184 216.455C438.704 216.167 438.304 216.407 438.304 216.967C438.304 217.528 438.688 218.2 439.184 218.472L451.657 225.677C452.137 225.966 452.537 225.741 452.537 225.181C452.537 224.621 452.153 223.932 451.657 223.66Z" fill="#91AAF2"/>
<path d="M459.694 228.303L455.595 225.933C455.115 225.645 454.715 225.885 454.715 226.445C454.715 227.006 455.099 227.678 455.595 227.95L459.694 230.32C460.175 230.608 460.575 230.384 460.575 229.824C460.575 229.263 460.191 228.575 459.694 228.303Z" fill="#91AAF2"/>
<path d="M468.324 219.561L456.78 212.9C456.3 212.612 455.9 212.852 455.9 213.412C455.9 213.973 456.284 214.645 456.78 214.917L468.324 221.578C468.805 221.866 469.205 221.642 469.205 221.082C469.205 220.521 468.805 219.833 468.324 219.561Z" fill="#91AAF2"/>
<path d="M460.127 206.64L439.841 194.92C439.04 194.456 438.368 194.824 438.368 195.768C438.368 196.697 439.024 197.834 439.825 198.298L460.111 210.018C460.928 210.483 461.584 210.114 461.584 209.186C461.584 208.241 460.928 207.104 460.111 206.64" fill="#1B1F2D"/>
<path d="M472.791 213.957L465.186 209.57C464.37 209.105 463.713 209.474 463.713 210.418C463.713 211.347 464.37 212.484 465.186 212.948L472.791 217.335C473.608 217.799 474.264 217.431 474.264 216.503C474.264 215.558 473.608 214.421 472.791 213.957Z" fill="#1B1F2D"/>
<path d="M453.274 244.619L438.832 236.277C438.351 235.989 437.951 236.229 437.951 236.79C437.951 237.35 438.335 238.022 438.832 238.295L453.274 246.636C453.754 246.925 454.154 246.7 454.154 246.14C454.154 245.58 453.754 244.891 453.274 244.619Z" fill="#91AAF2"/>
<path d="M459.326 252.688L438.816 240.84C438.336 240.552 437.935 240.776 437.935 241.336C437.935 241.897 438.32 242.585 438.816 242.857L459.326 254.706C459.806 254.994 460.207 254.754 460.207 254.193C460.207 253.633 459.822 252.96 459.326 252.688Z" fill="#91AAF2"/>
<path d="M472.727 260.421L463.953 255.362C463.473 255.073 463.073 255.297 463.073 255.858C463.073 256.418 463.473 257.107 463.953 257.379L472.727 262.438C473.208 262.727 473.608 262.486 473.608 261.926C473.608 261.366 473.208 260.693 472.727 260.405" fill="#91AAF2"/>
<path d="M446.117 249.631L438.8 245.404C438.319 245.115 437.919 245.34 437.919 245.9C437.919 246.46 438.303 247.133 438.8 247.405L446.117 251.632C446.597 251.92 446.997 251.696 446.997 251.136C446.997 250.575 446.613 249.903 446.117 249.631Z" fill="#91AAF2"/>
<path d="M464.53 260.262L449.944 251.84C449.463 251.552 449.063 251.776 449.063 252.336C449.063 252.897 449.463 253.569 449.944 253.857L464.53 262.279C465.01 262.567 465.41 262.343 465.41 261.783C465.41 261.223 465.026 260.55 464.53 260.278" fill="#91AAF2"/>
<path d="M451.256 257.172L438.784 249.967C438.303 249.678 437.903 249.919 437.903 250.479C437.903 251.039 438.287 251.712 438.784 251.984L451.256 259.189C451.737 259.477 452.137 259.253 452.137 258.693C452.137 258.132 451.753 257.444 451.256 257.172Z" fill="#91AAF2"/>
<path d="M459.294 261.814L455.195 259.445C454.715 259.157 454.315 259.397 454.315 259.957C454.315 260.518 454.699 261.19 455.195 261.462L459.294 263.832C459.774 264.12 460.175 263.896 460.175 263.335C460.175 262.775 459.79 262.087 459.294 261.814Z" fill="#91AAF2"/>
<path d="M467.924 253.089L456.38 246.428C455.9 246.14 455.499 246.38 455.499 246.941C455.499 247.501 455.884 248.173 456.38 248.446L467.924 255.106C468.404 255.394 468.805 255.17 468.805 254.61C468.805 254.05 468.404 253.361 467.924 253.089Z" fill="#91AAF2"/>
<path d="M459.743 240.152L439.456 228.432C438.656 227.967 437.983 228.336 437.983 229.28C437.983 230.209 438.64 231.346 439.44 231.81L459.726 243.53C460.543 243.994 461.199 243.626 461.199 242.697C461.199 241.753 460.543 240.616 459.726 240.152" fill="#1B1F2D"/>
<path d="M472.407 247.469L464.802 243.082C463.985 242.617 463.329 242.985 463.329 243.93C463.329 244.859 463.985 245.995 464.802 246.46L472.407 250.847C473.224 251.311 473.88 250.943 473.88 250.014C473.88 249.07 473.224 247.933 472.407 247.469Z" fill="#1B1F2D"/>
<path d="M442.338 175.051C441.698 174.683 441.169 173.786 441.185 173.05L441.25 151.643C441.25 150.907 441.778 150.602 442.418 150.971L469.477 166.581C470.118 166.95 470.63 167.846 470.63 168.583L470.566 189.99C470.566 190.726 470.037 191.03 469.397 190.662L453.322 181.392C452.505 180.927 451.737 180.831 451.144 181.152L446.469 183.713V180.991C446.469 179.038 445.092 176.636 443.395 175.66L442.338 175.051ZM469.461 164.372L442.402 148.761C440.705 147.784 439.312 148.569 439.296 150.522L439.232 171.929C439.232 173.883 440.609 176.284 442.306 177.261L443.363 177.869C444.003 178.238 444.516 179.134 444.516 179.871V182.817C444.516 183.681 444.948 184.69 445.637 185.443C445.861 185.683 446.101 185.875 446.341 186.019C446.821 186.291 447.286 186.355 447.638 186.163L452.457 183.521C452.681 183.409 452.97 183.441 453.274 183.617L469.349 192.888C471.046 193.864 472.439 193.08 472.455 191.126L472.519 169.72C472.519 167.766 471.142 165.365 469.445 164.388" fill="#F24B4B"/>
<path d="M447.638 163.362C446.245 162.562 445.108 163.202 445.092 164.803C445.092 166.405 446.213 168.374 447.622 169.175C449.015 169.975 450.152 169.319 450.152 167.717C450.152 166.116 449.031 164.163 447.638 163.346" fill="#F24B4B"/>
<path d="M455.9 168.134C454.507 167.334 453.37 167.974 453.354 169.575C453.354 171.176 454.475 173.146 455.884 173.946C457.293 174.747 458.413 174.106 458.429 172.505C458.429 170.904 457.309 168.935 455.9 168.134Z" fill="#F24B4B"/>
<path d="M464.161 172.906C462.768 172.105 461.632 172.746 461.616 174.347C461.616 175.948 462.736 177.917 464.145 178.718C465.538 179.518 466.675 178.878 466.691 177.277C466.691 175.676 465.57 173.706 464.161 172.906Z" fill="#F24B4B"/>
<path d="M254.784 159.295C254.144 158.927 253.632 158.031 253.632 157.294L253.696 135.887C253.696 135.151 254.224 134.847 254.864 135.215L281.923 150.826C282.564 151.194 283.092 152.09 283.076 152.827L283.012 174.234C283.012 174.97 282.484 175.275 281.843 174.906L265.768 165.636C264.951 165.172 264.183 165.075 263.591 165.396L258.915 167.957V165.236C258.915 163.282 257.538 160.881 255.841 159.904L254.784 159.295ZM281.907 148.616L254.848 133.005C253.151 132.029 251.758 132.813 251.742 134.766L251.678 156.173C251.678 158.127 253.055 160.528 254.752 161.505L255.809 162.113C256.45 162.482 256.978 163.378 256.962 164.115V167.061C256.962 167.925 257.394 168.934 258.083 169.687C258.307 169.927 258.547 170.119 258.787 170.263C259.268 170.535 259.732 170.599 260.084 170.407L264.903 167.765C265.128 167.653 265.416 167.685 265.72 167.861L281.795 177.132C283.492 178.108 284.885 177.324 284.901 175.371L284.965 153.964C284.965 152.01 283.588 149.609 281.891 148.632" fill="#546FBF"/>
<path d="M260.084 147.623C258.691 146.823 257.554 147.463 257.538 149.064C257.538 150.665 258.659 152.635 260.068 153.435C261.477 154.236 262.598 153.579 262.598 151.978C262.598 150.377 261.477 148.424 260.084 147.607" fill="#546FBF"/>
<path d="M268.346 152.379C266.953 151.578 265.816 152.219 265.8 153.82C265.8 155.421 266.921 157.39 268.33 158.191C269.723 158.991 270.86 158.351 270.876 156.75C270.876 155.149 269.755 153.179 268.346 152.379Z" fill="#546FBF"/>
<path d="M276.608 157.15C275.215 156.35 274.078 156.99 274.062 158.591C274.062 160.192 275.183 162.162 276.592 162.962C277.985 163.763 279.121 163.122 279.137 161.521C279.137 159.92 278.017 157.951 276.608 157.15Z" fill="#546FBF"/>
<path d="M265.704 102.681C254.896 96.4366 246.122 81.2581 246.154 68.8335C246.186 56.4089 255.009 51.3814 265.832 57.6257C276.656 63.8701 285.414 79.0486 285.382 91.4732C285.35 103.898 276.527 108.925 265.704 102.681ZM265.832 54.8558C253.696 47.843 243.785 53.5109 243.753 67.4565C243.721 81.4022 253.552 98.454 265.688 105.467C277.84 112.48 287.735 106.828 287.783 92.8822C287.831 78.9365 277.984 61.8847 265.832 54.8718" fill="#1B1F2D"/>
<path d="M265.816 61.8204C265.304 61.5162 264.871 61.7403 264.839 62.3327L264.327 78.8402C264.279 78.9843 264.247 79.1604 264.263 79.3525C264.263 79.8489 264.471 80.3772 264.759 80.8256C265.015 81.2418 265.368 81.6261 265.736 81.8343C265.752 81.8343 265.768 81.8503 265.8 81.8663C265.928 81.9303 266.04 81.9784 266.152 81.9944L277.92 88.2707C278.417 88.5429 278.833 88.3187 278.849 87.7423C278.865 87.1499 278.465 86.3974 277.92 86.0612L267.145 79.3525L266.761 63.4375C266.761 62.8451 266.344 62.1406 265.832 61.8204C265.832 61.8204 265.816 61.8204 265.8 61.8044" fill="#1B1F2D"/>
<path d="M249.677 104.49C248.796 103.978 248.012 103.738 247.323 103.738C246.635 103.754 246.107 104.058 245.706 104.65C245.322 105.227 245.114 106.091 245.114 107.228L247.932 108.861V108.589C247.932 108.061 248.06 107.628 248.284 107.26C248.524 106.908 249.004 106.94 249.741 107.356C250.317 107.693 250.75 108.125 251.022 108.669C251.31 109.214 251.438 109.758 251.438 110.286C251.438 110.831 251.294 111.279 251.006 111.631C250.718 111.984 250.349 112.256 249.917 112.48C249.485 112.688 248.844 112.928 248.028 113.216C247.852 113.264 247.676 113.328 247.499 113.392C247.323 113.457 247.131 113.537 246.939 113.601L245.242 114.289V117.075L254.208 122.263V119.413L248.956 116.371V116.274L250.67 115.602L251.07 115.458C251.71 115.218 252.239 114.978 252.639 114.737C253.055 114.497 253.392 114.113 253.696 113.633C253.984 113.136 254.144 112.48 254.144 111.663C254.144 110.799 253.968 109.934 253.616 109.021C253.263 108.125 252.751 107.276 252.079 106.492C251.39 105.707 250.606 105.051 249.677 104.522" fill="#F24B4B"/>
<path d="M258.723 118.82L261.445 115.49V120.373L258.723 118.804M264.279 113.216L260.677 111.135L255.825 117.267V119.669L261.429 122.919V126.393L264.231 128.026V124.552L265.752 125.417V122.935L264.247 122.07L264.279 113.232" fill="#F24B4B"/>
<path d="M276.143 118.324L273.453 116.771L267.001 133.983L269.675 135.536L276.143 118.324Z" fill="#F24B4B"/>
<path d="M286.15 125.864L277.2 120.693V123.671L283.476 127.289V127.434L278.497 135.999V136.256L281.507 138.001L286.134 129.211L286.15 125.864Z" fill="#F24B4B"/>
<g style="mix-blend-mode:multiply" opacity="0.2">
<path d="M381.96 428.25L206.031 326.676C202.572 324.675 196.984 324.675 193.558 326.676L124.566 366.768C121.14 368.753 121.156 372.003 124.614 373.989L300.544 475.563C304.002 477.565 309.59 477.565 313.017 475.563L382.008 435.471C385.435 433.486 385.419 430.236 381.96 428.25Z" fill="#808080"/>
</g>
<path d="M140.369 372.275L140.081 271.133L181.518 247.212L208.4 332.984L140.353 372.259M184.816 240.151L135.582 268.571L135.902 379.992L214.452 334.649L184.832 240.151H184.816Z" fill="#31394C"/>
<path d="M202.38 331.351L208.416 333L181.534 247.213L176.858 249.919L202.38 331.351Z" fill="#1B1F2D"/>
<path d="M140.353 367.119L140.369 372.275L208.416 333L202.364 331.351L140.353 367.119Z" fill="#1B1F2D"/>
<path d="M129.578 265.097L135.598 268.587L135.918 379.992L129.898 376.518L129.578 265.097Z" fill="#1B1F2D"/>
<path d="M129.578 265.097L135.598 268.587L184.848 240.152L178.828 236.677L129.578 265.097Z" fill="#1B1F2D"/>
<path d="M304.291 466.661L304.002 365.519L345.439 341.598L372.322 427.37L304.275 466.645M348.737 334.537L299.503 362.957L299.824 474.378L378.374 429.035L348.753 334.537H348.737Z" fill="#31394C"/>
<path d="M366.302 425.736L372.338 427.385L345.455 341.614L340.78 344.303L366.302 425.736Z" fill="#1B1F2D"/>
<path d="M304.275 461.521L304.291 466.661L372.338 427.402L366.286 425.737L304.275 461.521Z" fill="#1B1F2D"/>
<path d="M293.499 359.498L299.519 362.972L299.824 474.394L293.803 470.903L293.499 359.498Z" fill="#1B1F2D"/>
<path d="M293.499 359.498L299.519 362.973L348.753 334.553L342.733 331.079L293.499 359.498Z" fill="#1B1F2D"/>
<path d="M384.57 315.692L381.32 316.204L206.031 214.998C202.572 212.997 196.984 212.997 193.558 214.998L124.678 255.026L122.02 254.017V258.708V258.772C122.052 260.053 122.917 261.35 124.614 262.327L300.544 363.901C304.002 365.902 309.59 365.902 313.017 363.901L382.008 323.809C383.802 322.769 384.65 321.376 384.554 319.999H384.57C384.538 319.839 384.57 315.692 384.57 315.692Z" fill="#A6BFFF"/>
<path d="M313.033 363.902L382.025 323.81C383.818 322.769 384.666 321.376 384.57 319.999H384.586C384.554 319.839 384.586 315.692 384.586 315.692L381.336 316.205L356.871 302.083L306.58 352.374V365.375C308.918 365.407 311.272 364.926 313.033 363.902Z" fill="#91AAF2"/>
<path d="M381.96 311.77L206.031 210.195C202.572 208.194 196.984 208.194 193.558 210.195L124.566 250.287C121.14 252.273 121.156 255.523 124.614 257.508L300.544 359.083C304.002 361.084 309.59 361.084 313.017 359.083L382.008 318.991C385.435 317.005 385.419 313.755 381.96 311.77Z" fill="#CFDEFF"/>
<path d="M148.231 243.289C147.334 242.825 145.941 242.825 145.076 243.338L133.404 250.126C132.508 250.639 132.524 251.487 133.404 252L150.616 261.926C151.513 262.439 152.954 262.439 153.85 261.926L165.523 255.138C166.387 254.641 166.403 253.841 165.587 253.312C165.955 253.553 166.147 253.841 166.179 254.129L151.433 253.12L152.522 262.295C152.233 262.311 151.929 262.295 151.641 262.263L150.552 253.072L148.919 252.96L148.727 252.016L132.86 251.407C132.78 251.231 132.764 251.071 132.796 250.895L148.631 251.487L146.838 242.953C147.35 242.953 147.846 243.081 148.263 243.289M165.587 253.296C165.587 253.296 165.603 253.296 165.619 253.296C165.619 253.296 165.603 253.296 165.587 253.296ZM148.295 243.322C148.295 243.322 148.279 243.322 148.263 243.306C148.263 243.306 148.279 243.305 148.295 243.322Z" fill="white"/>
<path d="M151.449 253.121L150.552 253.057L151.641 262.247C151.929 262.295 152.233 262.311 152.522 262.279L151.433 253.105M148.599 251.472L132.764 250.88C132.732 251.056 132.748 251.216 132.828 251.392L148.695 252L148.583 251.488" fill="#EEF4FF"/>
<path d="M165.523 253.265L148.311 243.338C148.311 243.338 148.279 243.338 148.263 243.322C148.263 243.322 148.247 243.322 148.231 243.306C147.83 243.098 147.318 242.985 146.806 242.969L148.599 251.503L148.711 252.016L148.903 252.96L150.536 253.072L151.433 253.137L166.179 254.145C166.147 253.841 165.971 253.553 165.587 253.329C165.587 253.329 165.571 253.329 165.555 253.329C165.555 253.329 165.523 253.329 165.523 253.313" fill="#EEF4FF"/>
<path d="M172.696 230.224C171.799 229.76 170.406 229.76 169.541 230.272L157.869 237.061C156.973 237.574 156.989 238.422 157.869 238.934L175.081 248.861C175.978 249.374 177.419 249.374 178.315 248.861L189.988 242.073C190.852 241.576 190.868 240.776 190.052 240.247C190.42 240.488 190.612 240.776 190.644 241.064L175.898 240.055L176.987 249.23C176.698 249.246 176.394 249.23 176.106 249.198L175.017 240.007L173.384 239.895L173.192 238.95L157.325 238.342C157.245 238.166 157.229 238.006 157.261 237.83L173.096 238.422L171.303 229.888C171.815 229.888 172.311 230.016 172.728 230.224M190.052 240.231C190.052 240.231 190.068 240.231 190.084 240.231C190.084 240.231 190.068 240.231 190.052 240.231ZM172.76 230.256C172.76 230.256 172.744 230.256 172.728 230.24C172.728 230.24 172.744 230.24 172.76 230.256Z" fill="white"/>
<path d="M175.898 240.056L175.001 239.992L176.09 249.182C176.378 249.23 176.682 249.246 176.971 249.214L175.882 240.04M173.048 238.407L157.213 237.814C157.181 237.99 157.197 238.15 157.277 238.327L173.144 238.935L173.032 238.423" fill="#EEF4FF"/>
<path d="M189.987 240.2L172.776 230.273C172.776 230.273 172.744 230.273 172.728 230.257C172.728 230.257 172.712 230.257 172.695 230.241C172.295 230.033 171.783 229.921 171.271 229.905L173.064 238.439L173.176 238.951L173.368 239.896L175.001 240.008L175.898 240.072L190.644 241.081C190.612 240.776 190.436 240.488 190.052 240.264C190.052 240.264 190.035 240.264 190.019 240.264C190.019 240.264 189.987 240.264 189.987 240.248" fill="#EEF4FF"/>
<path d="M197.161 217.144C196.264 216.679 194.871 216.679 194.006 217.192L182.334 223.98C181.438 224.493 181.454 225.341 182.334 225.854L199.546 235.781C200.443 236.293 201.884 236.293 202.78 235.781L214.453 228.992C215.317 228.496 215.333 227.695 214.517 227.167C214.885 227.407 215.077 227.695 215.109 227.983L200.363 226.975L201.452 236.149C201.163 236.165 200.859 236.149 200.571 236.117L199.482 226.927L197.849 226.814L197.657 225.87L181.79 225.261C181.71 225.085 181.694 224.925 181.726 224.749L197.561 225.341L195.768 216.808C196.28 216.808 196.776 216.936 197.193 217.144M214.517 227.151C214.517 227.151 214.533 227.151 214.549 227.151C214.549 227.151 214.533 227.151 214.517 227.151ZM197.225 217.176C197.225 217.176 197.209 217.176 197.193 217.16C197.193 217.16 197.209 217.16 197.225 217.176Z" fill="white"/>
<path d="M200.363 226.99L199.466 226.926L200.555 236.116C200.843 236.164 201.147 236.18 201.435 236.148L200.347 226.974M197.513 225.341L181.678 224.749C181.646 224.925 181.662 225.085 181.742 225.261L197.609 225.869L197.497 225.357" fill="#EEF4FF"/>
<path d="M214.452 227.118L197.24 217.191C197.24 217.191 197.208 217.191 197.192 217.175C197.192 217.175 197.176 217.175 197.16 217.159C196.76 216.951 196.248 216.839 195.735 216.823L197.529 225.357L197.641 225.869L197.833 226.814L199.466 226.926L200.363 226.99L215.109 227.999C215.077 227.695 214.901 227.406 214.516 227.182C214.516 227.182 214.5 227.182 214.484 227.182C214.484 227.182 214.452 227.182 214.452 227.166" fill="#EEF4FF"/>
<path d="M348.753 319.663L325.281 306.117L295.981 323.137L319.453 336.699L348.753 319.663Z" fill="white"/>
<path d="M335 324.258L316.907 313.819L316.555 314.011L334.648 324.466L335 324.258Z" fill="#A6BFFF"/>
<path d="M333.495 325.139L315.386 314.7L315.034 314.892L333.143 325.347L333.495 325.139Z" fill="#A6BFFF"/>
<path d="M331.974 326.02L313.881 315.58L313.529 315.773L331.622 326.228L331.974 326.02Z" fill="#A6BFFF"/>
<path d="M330.469 326.901L312.36 316.461L312.008 316.654L330.117 327.109L330.469 326.901Z" fill="#A6BFFF"/>
<path d="M328.948 327.781L310.855 317.326L310.503 317.534L328.595 327.989L328.948 327.781Z" fill="#A6BFFF"/>
<path d="M327.443 328.661L309.334 318.206L308.982 318.414L327.09 328.87L327.443 328.661Z" fill="#A6BFFF"/>
<path d="M325.922 329.542L307.813 319.087L307.461 319.295L325.569 329.75L325.922 329.542Z" fill="#A6BFFF"/>
<path d="M324.401 330.423L306.308 319.968L305.956 320.176L324.064 330.631L324.401 330.423Z" fill="#A6BFFF"/>
<path d="M322.895 331.304L304.787 320.848L304.435 321.057L322.543 331.512L322.895 331.304Z" fill="#A6BFFF"/>
<path d="M311.96 326.868L303.314 321.873L302.962 322.081L311.608 327.06L311.96 326.868Z" fill="#A6BFFF"/>
<path d="M332.294 316.349L322.335 310.601L321.375 311.161L331.349 316.909L332.294 316.349Z" fill="#F24B4B"/>
<path d="M326.434 314.908L320.702 311.594L320.03 311.994L325.762 315.308L326.434 314.908Z" fill="#546FBF"/>
<path d="M349.234 318.99L325.762 305.429L296.461 322.449L319.934 336.01L349.234 318.99Z" fill="white"/>
<path d="M335.48 323.585L317.388 313.13L317.035 313.338L335.128 323.793L335.48 323.585Z" fill="#A6BFFF"/>
<path d="M333.975 324.466L315.867 314.01L315.514 314.219L333.623 324.674L333.975 324.466Z" fill="#A6BFFF"/>
<path d="M332.454 325.346L314.362 314.891L314.009 315.099L332.102 325.554L332.454 325.346Z" fill="#A6BFFF"/>
<path d="M330.949 326.226L312.841 315.771L312.488 315.979L330.597 326.419L330.949 326.226Z" fill="#A6BFFF"/>
<path d="M329.428 327.108L311.336 316.653L310.983 316.861L329.076 327.3L329.428 327.108Z" fill="#A6BFFF"/>
<path d="M327.923 327.988L309.814 317.532L309.462 317.741L327.571 328.18L327.923 327.988Z" fill="#A6BFFF"/>
<path d="M326.402 328.869L308.293 318.413L307.941 318.621L326.05 329.061L326.402 328.869Z" fill="#A6BFFF"/>
<path d="M324.881 329.733L306.788 319.294L306.436 319.486L324.545 329.941L324.881 329.733Z" fill="#A6BFFF"/>
<path d="M323.376 330.614L305.267 320.175L304.915 320.367L323.024 330.822L323.376 330.614Z" fill="#A6BFFF"/>
<path d="M312.44 326.179L303.794 321.183L303.442 321.392L312.088 326.387L312.44 326.179Z" fill="#A6BFFF"/>
<path d="M332.774 315.676L322.815 309.928L321.855 310.472L331.83 316.236L332.774 315.676Z" fill="#F24B4B"/>
<path d="M326.914 314.235L321.182 310.921L320.51 311.305L326.242 314.62L326.914 314.235Z" fill="#546FBF"/>
<path d="M342.765 318.398L319.293 304.852L289.993 321.872L313.465 335.433L342.765 318.398Z" fill="white"/>
<path d="M329.012 323.009L310.919 312.554L310.567 312.762L328.66 323.217L329.012 323.009Z" fill="#A6BFFF"/>
<path d="M327.507 323.89L309.398 313.435L309.046 313.643L327.154 324.098L327.507 323.89Z" fill="#A6BFFF"/>
<path d="M325.986 324.771L307.893 314.315L307.541 314.523L325.633 324.979L325.986 324.771Z" fill="#A6BFFF"/>
<path d="M324.481 325.651L306.372 315.196L306.02 315.404L324.128 325.844L324.481 325.651Z" fill="#A6BFFF"/>
<path d="M322.96 326.532L304.867 316.077L304.515 316.285L322.607 326.724L322.96 326.532Z" fill="#A6BFFF"/>
<path d="M321.455 327.397L303.346 316.957L302.994 317.166L321.102 327.605L321.455 327.397Z" fill="#A6BFFF"/>
<path d="M319.933 328.278L301.825 317.838L301.473 318.047L319.581 328.486L319.933 328.278Z" fill="#A6BFFF"/>
<path d="M318.412 329.158L300.32 318.719L299.968 318.911L318.076 329.366L318.412 329.158Z" fill="#A6BFFF"/>
<path d="M316.907 330.039L298.799 319.6L298.447 319.792L316.555 330.247L316.907 330.039Z" fill="#A6BFFF"/>
<path d="M305.972 325.603L297.326 320.607L296.974 320.815L305.62 325.811L305.972 325.603Z" fill="#A6BFFF"/>
<path d="M326.306 315.1L316.347 309.352L315.386 309.896L325.361 315.66L326.306 315.1Z" fill="#F24B4B"/>
<path d="M320.446 313.659L314.714 310.345L314.025 310.729L319.773 314.043L320.446 313.659Z" fill="#546FBF"/>
<g style="mix-blend-mode:multiply" opacity="0.3">
<g style="mix-blend-mode:multiply">
<path d="M283.684 293.581L256.337 309.464C255.665 309.848 254.832 309.848 254.16 309.464L208.977 283.174C207.536 282.341 207.536 280.243 208.977 279.411L236.628 263.352C237.3 262.968 238.133 262.968 238.805 263.352L283.54 291.627C284.725 292.3 284.661 293.004 283.684 293.597V293.581Z" fill="#CCCCCC"/>
</g>
</g>
<path d="M284.197 291.211C284.197 291.211 282.868 291.339 282.419 291.099L236.548 264.377C235.907 264.009 235.123 264.009 234.482 264.377L209.217 278.05C207.456 279.283 207.824 281.861 209.201 282.645L254.32 308.695C254.96 309.064 255.745 309.064 256.385 308.695L283.908 292.7C284.565 292.3 284.357 291.612 284.197 291.211Z" fill="#1B1F2D"/>
<path d="M235.651 230.849L236.324 262.055C236.324 262.887 236.756 263.64 237.476 264.072L282.548 290.666C284.053 291.547 285.894 290.138 285.91 288.393L285.99 258.02C285.99 257.203 285.558 256.451 284.869 256.034L239.093 228.96C237.556 228.047 235.555 229.008 235.667 230.865L235.651 230.849Z" fill="#31394C"/>
<path d="M235.635 230.673L235.539 262.455C235.539 263.288 235.971 264.04 236.692 264.473L281.747 290.763C283.252 291.643 285.125 290.555 285.125 288.793L285.205 258.404C285.205 257.588 284.773 256.835 284.085 256.419L238.149 229.264C237.028 228.608 235.619 229.392 235.619 230.689L235.635 230.673Z" fill="#1B1F2D"/>
<path d="M237.348 230.898L237.252 262.039L283.284 288.65L283.364 257.828L237.348 230.898Z" fill="#546FBF"/>
<g style="mix-blend-mode:hard-light" opacity="0.03">
<path d="M243.192 234.307L237.332 237.013L237.268 259.38L264.503 246.78L243.192 234.307Z" fill="white"/>
<path d="M268.058 248.862L238.277 262.631L243.769 265.801L273.517 252.064L268.058 248.862Z" fill="white"/>
<path d="M277.072 254.146L247.355 267.867L268.81 280.276L283.316 273.567L283.364 257.828L277.072 254.146Z" fill="white"/>
<path d="M277.888 285.527L283.3 283.029L283.316 277.297L272.381 282.341L277.888 285.527Z" fill="white"/>
</g>
<path d="M283.989 291.851L256.321 307.814C255.681 308.183 254.896 308.183 254.256 307.814L209.217 281.636C207.84 280.836 207.84 278.85 209.217 278.05L234.546 263.432C235.187 263.063 235.971 263.063 236.612 263.432L283.973 290.971C284.309 291.163 284.309 291.659 283.973 291.851H283.989Z" fill="#31394C"/>
<path d="M246.122 292.908L239.206 297.006C239.029 297.103 238.821 297.103 238.645 297.006L226.541 290.026C226.173 289.818 226.173 289.273 226.541 289.065L233.169 285.318C233.346 285.222 233.554 285.222 233.73 285.318L246.122 292.683C246.218 292.732 246.218 292.86 246.122 292.924V292.908Z" fill="#CFDEFF"/>
<path d="M235.283 267.194L236.836 268.107C237.028 268.219 237.332 268.219 237.508 268.107L238.277 267.643C238.469 267.53 238.469 267.354 238.277 267.242L236.724 266.346C236.532 266.234 236.243 266.25 236.051 266.346L235.283 266.794C235.091 266.906 235.091 267.082 235.283 267.194Z" fill="#CFDEFF"/>
<path d="M238.005 268.795L239.574 269.707C239.766 269.82 240.07 269.82 240.262 269.707L241.031 269.243C241.223 269.131 241.223 268.955 241.031 268.843L239.462 267.93C239.27 267.818 238.965 267.818 238.773 267.93L238.005 268.395C237.813 268.507 237.813 268.683 238.005 268.795Z" fill="#CFDEFF"/>
<path d="M240.775 270.411L242.36 271.34C242.552 271.452 242.856 271.452 243.048 271.34L243.833 270.876C244.025 270.764 244.025 270.571 243.833 270.475L242.248 269.547C242.056 269.435 241.751 269.435 241.559 269.547L240.791 270.011C240.599 270.123 240.599 270.299 240.791 270.411H240.775Z" fill="#CFDEFF"/>
<path d="M243.577 272.061L245.178 273.006C245.37 273.118 245.674 273.118 245.866 273.006L246.651 272.541C246.843 272.429 246.843 272.237 246.651 272.125L245.034 271.196C244.841 271.084 244.537 271.084 244.345 271.196L243.561 271.661C243.368 271.773 243.368 271.965 243.561 272.077L243.577 272.061Z" fill="#CFDEFF"/>
<path d="M246.411 273.71L248.044 274.655C248.236 274.767 248.556 274.767 248.748 274.655L249.533 274.174C249.725 274.062 249.725 273.87 249.533 273.758L247.9 272.813C247.707 272.701 247.387 272.701 247.195 272.813L246.411 273.278C246.218 273.39 246.218 273.582 246.411 273.694V273.71Z" fill="#CFDEFF"/>
<path d="M249.276 275.391L250.926 276.352C251.118 276.464 251.438 276.464 251.63 276.352L252.415 275.872C252.607 275.759 252.607 275.567 252.415 275.455L250.766 274.495C250.573 274.383 250.253 274.383 250.061 274.495L249.276 274.975C249.084 275.087 249.084 275.279 249.276 275.391Z" fill="#CFDEFF"/>
<path d="M252.191 277.088L253.856 278.065C254.048 278.177 254.368 278.177 254.56 278.065L255.345 277.585C255.537 277.473 255.537 277.28 255.345 277.152L253.68 276.176C253.488 276.064 253.167 276.064 252.975 276.176L252.191 276.656C251.998 276.768 251.998 276.96 252.191 277.072V277.088Z" fill="#CFDEFF"/>
<path d="M255.137 278.802L256.818 279.795C257.026 279.907 257.346 279.907 257.538 279.795L258.323 279.298C258.515 279.186 258.515 278.978 258.307 278.866L256.61 277.889C256.402 277.777 256.081 277.777 255.889 277.889L255.105 278.37C254.912 278.482 254.912 278.674 255.105 278.802H255.137Z" fill="#CFDEFF"/>
<path d="M258.115 280.547L259.828 281.539C260.036 281.652 260.356 281.652 260.548 281.539L261.333 281.043C261.525 280.915 261.509 280.723 261.317 280.611L259.604 279.618C259.396 279.506 259.075 279.506 258.883 279.618L258.099 280.114C257.906 280.227 257.907 280.435 258.115 280.547Z" fill="#CFDEFF"/>
<path d="M261.125 282.308L262.854 283.317C263.062 283.445 263.382 283.445 263.591 283.317L264.391 282.82C264.583 282.692 264.567 282.5 264.359 282.388L262.63 281.379C262.422 281.267 262.101 281.267 261.909 281.379L261.125 281.876C260.933 282.004 260.933 282.196 261.141 282.308H261.125Z" fill="#CFDEFF"/>
<path d="M264.183 284.102L265.944 285.126C266.152 285.254 266.488 285.254 266.681 285.126L267.481 284.63C267.673 284.502 267.657 284.31 267.449 284.182L265.688 283.157C265.48 283.029 265.159 283.029 264.951 283.157L264.151 283.653C263.959 283.781 263.975 283.973 264.183 284.102Z" fill="#CFDEFF"/>
<path d="M267.273 285.911L269.05 286.951C269.258 287.079 269.595 287.079 269.787 286.951L270.587 286.439C270.779 286.311 270.763 286.119 270.555 285.991L268.778 284.95C268.57 284.822 268.234 284.822 268.042 284.95L267.241 285.446C267.049 285.574 267.065 285.767 267.273 285.895V285.911Z" fill="#CFDEFF"/>
<path d="M270.411 287.752L272.204 288.809C272.413 288.937 272.749 288.937 272.957 288.809L273.757 288.296C273.95 288.168 273.934 287.96 273.725 287.848L271.916 286.807C271.708 286.679 271.372 286.679 271.18 286.807L270.379 287.32C270.187 287.448 270.203 287.64 270.411 287.768V287.752Z" fill="#CFDEFF"/>
<path d="M276.928 289.689L275.102 288.633C274.878 288.505 274.558 288.505 274.35 288.633L273.549 289.145C273.357 289.273 273.373 289.481 273.581 289.609L275.407 290.682C275.631 290.81 275.967 290.81 276.159 290.682L276.96 290.17C277.152 290.042 277.136 289.834 276.912 289.705L276.928 289.689Z" fill="#CFDEFF"/>
<path d="M232.753 268.795L234.178 269.644C234.402 269.788 234.786 269.772 235.027 269.644L236.436 268.811C236.676 268.667 236.676 268.443 236.436 268.315L235.011 267.482C234.787 267.354 234.402 267.354 234.162 267.482L232.769 268.315C232.529 268.459 232.529 268.683 232.769 268.811L232.753 268.795Z" fill="#CFDEFF"/>
<path d="M239.077 269.835L237.636 268.986C237.396 268.842 237.028 268.858 236.788 268.986L235.379 269.819C235.139 269.963 235.139 270.187 235.379 270.331L236.82 271.18C237.06 271.324 237.444 271.308 237.668 271.18L239.077 270.331C239.318 270.187 239.318 269.963 239.077 269.819V269.835Z" fill="#CFDEFF"/>
<path d="M241.751 271.405L240.294 270.557C240.054 270.413 239.67 270.429 239.43 270.557L238.021 271.405C237.781 271.549 237.781 271.773 238.021 271.918L239.478 272.782C239.718 272.926 240.102 272.926 240.342 272.782L241.751 271.934C241.992 271.789 241.992 271.565 241.751 271.421V271.405Z" fill="#CFDEFF"/>
<path d="M234.066 272.702L235.507 273.566C235.747 273.71 236.131 273.71 236.372 273.566L237.797 272.718C238.037 272.574 238.037 272.349 237.797 272.205L236.356 271.357C236.115 271.213 235.747 271.229 235.507 271.357L234.098 272.205C233.858 272.349 233.858 272.574 234.098 272.718L234.066 272.702Z" fill="#CFDEFF"/>
<path d="M230.127 270.348L232.769 271.933C232.993 272.077 233.378 272.061 233.618 271.933L235.027 271.084C235.267 270.94 235.267 270.716 235.027 270.572L232.369 269.003C232.145 268.859 231.76 268.875 231.52 269.003L230.111 269.835C229.871 269.979 229.871 270.204 230.095 270.332L230.127 270.348Z" fill="#CFDEFF"/>
<path d="M240.471 273.79L239.013 272.925C238.773 272.781 238.389 272.781 238.149 272.925L236.724 273.774C236.484 273.918 236.484 274.142 236.724 274.286L238.181 275.167C238.421 275.311 238.805 275.311 239.046 275.167L240.471 274.302C240.711 274.158 240.711 273.934 240.471 273.79Z" fill="#CFDEFF"/>
<path d="M243.192 275.391L241.719 274.511C241.479 274.366 241.095 274.366 240.855 274.511L239.43 275.375C239.19 275.519 239.19 275.759 239.43 275.904L240.903 276.784C241.143 276.928 241.527 276.928 241.783 276.784L243.208 275.92C243.448 275.775 243.448 275.535 243.208 275.391H243.192Z" fill="#CFDEFF"/>
<path d="M245.93 277.025L244.425 276.144C244.185 276 243.785 276 243.545 276.144L242.12 277.009C241.879 277.153 241.879 277.393 242.12 277.537L243.609 278.434C243.849 278.578 244.249 278.578 244.489 278.434L245.914 277.569C246.154 277.425 246.154 277.185 245.914 277.041L245.93 277.025Z" fill="#CFDEFF"/>
<path d="M248.7 278.658L247.179 277.761C246.939 277.617 246.539 277.617 246.298 277.761L244.873 278.642C244.633 278.786 244.633 279.026 244.873 279.17L246.379 280.083C246.619 280.227 247.019 280.227 247.259 280.083L248.7 279.202C248.94 279.058 248.94 278.818 248.7 278.674V278.658Z" fill="#CFDEFF"/>
<path d="M251.502 280.322L249.965 279.41C249.725 279.266 249.325 279.266 249.084 279.41L247.643 280.29C247.403 280.434 247.403 280.675 247.643 280.835L249.18 281.747C249.437 281.891 249.837 281.891 250.077 281.747L251.518 280.867C251.758 280.723 251.758 280.482 251.518 280.322H251.502Z" fill="#CFDEFF"/>
<path d="M254.352 282.004L252.799 281.092C252.543 280.948 252.142 280.948 251.902 281.092L250.461 281.988C250.221 282.133 250.221 282.389 250.461 282.533L252.014 283.461C252.271 283.606 252.671 283.606 252.911 283.461L254.352 282.565C254.592 282.421 254.592 282.165 254.336 282.02L254.352 282.004Z" fill="#CFDEFF"/>
<path d="M257.234 283.718L255.665 282.789C255.409 282.645 255.008 282.645 254.768 282.789L253.327 283.685C253.087 283.83 253.087 284.086 253.327 284.23L254.896 285.175C255.153 285.335 255.553 285.335 255.809 285.175L257.25 284.278C257.49 284.118 257.49 283.878 257.234 283.734V283.718Z" fill="#CFDEFF"/>
<path d="M256.209 285.959L257.794 286.903C258.051 287.063 258.467 287.063 258.707 286.903L260.164 285.991C260.404 285.831 260.404 285.59 260.132 285.43L258.547 284.486C258.291 284.326 257.891 284.342 257.634 284.486L256.193 285.398C255.953 285.558 255.953 285.799 256.209 285.959Z" fill="#CFDEFF"/>
<path d="M263.11 287.752C263.35 287.592 263.35 287.352 263.078 287.192L261.461 286.231C261.205 286.071 260.788 286.071 260.548 286.231L259.091 287.144C258.851 287.304 258.851 287.544 259.107 287.704L260.708 288.665C260.965 288.825 261.381 288.825 261.637 288.665L263.094 287.752H263.11Z" fill="#CFDEFF"/>
<path d="M266.104 289.529C266.344 289.369 266.328 289.113 266.072 288.952L264.439 287.992C264.183 287.832 263.767 287.832 263.51 287.992L262.053 288.92C261.813 289.081 261.813 289.337 262.085 289.481L263.719 290.458C263.991 290.618 264.407 290.618 264.647 290.458L266.104 289.529Z" fill="#CFDEFF"/>
<path d="M265.079 291.275L266.729 292.267C267.001 292.427 267.417 292.427 267.657 292.267L269.13 291.323C269.37 291.162 269.354 290.906 269.098 290.746L267.449 289.769C267.177 289.609 266.761 289.609 266.52 289.769L265.063 290.698C264.823 290.858 264.823 291.114 265.096 291.275H265.079Z" fill="#CFDEFF"/>
<path d="M232.113 274.175C231.873 274.319 231.873 274.543 232.113 274.687L233.554 275.568C233.794 275.712 234.178 275.712 234.418 275.568L235.843 274.72C236.083 274.575 236.083 274.351 235.843 274.207L234.402 273.343C234.162 273.198 233.778 273.198 233.538 273.343L232.113 274.191V274.175Z" fill="#CFDEFF"/>
<path d="M227.485 271.902L230.832 273.935C231.056 274.079 231.44 274.079 231.696 273.935L233.121 273.086C233.362 272.942 233.362 272.718 233.121 272.574L229.759 270.557C229.535 270.413 229.151 270.429 228.91 270.557L227.501 271.389C227.261 271.533 227.245 271.757 227.485 271.902Z" fill="#CFDEFF"/>
<path d="M234.754 275.776C234.514 275.92 234.514 276.16 234.754 276.304L236.211 277.185C236.452 277.329 236.836 277.329 237.076 277.185L238.501 276.32C238.741 276.176 238.741 275.936 238.501 275.792L237.044 274.911C236.804 274.767 236.42 274.767 236.179 274.911L234.754 275.776Z" fill="#CFDEFF"/>
<path d="M237.428 277.921L238.901 278.818C239.142 278.962 239.542 278.962 239.782 278.818L241.223 277.953C241.463 277.809 241.463 277.569 241.223 277.425L239.75 276.544C239.51 276.4 239.125 276.4 238.885 276.544L237.46 277.409C237.22 277.553 237.22 277.793 237.46 277.937L237.428 277.921Z" fill="#CFDEFF"/>
<path d="M240.15 279.57L241.639 280.467C241.879 280.611 242.28 280.611 242.52 280.467L243.961 279.586C244.201 279.442 244.201 279.202 243.961 279.058L242.456 278.161C242.216 278.017 241.815 278.017 241.575 278.161L240.134 279.026C239.894 279.17 239.894 279.41 240.134 279.554L240.15 279.57Z" fill="#CFDEFF"/>
<path d="M242.904 281.235L244.409 282.148C244.649 282.292 245.05 282.292 245.306 282.148L246.747 281.267C246.987 281.123 246.987 280.883 246.747 280.723L245.226 279.81C244.986 279.666 244.585 279.666 244.345 279.81L242.904 280.691C242.664 280.835 242.664 281.075 242.904 281.235Z" fill="#CFDEFF"/>
<path d="M245.69 282.932L247.227 283.861C247.483 284.005 247.884 284.005 248.124 283.861L249.581 282.964C249.821 282.82 249.821 282.564 249.581 282.42L248.044 281.507C247.804 281.363 247.403 281.363 247.147 281.507L245.706 282.388C245.466 282.532 245.466 282.788 245.706 282.932H245.69Z" fill="#CFDEFF"/>
<path d="M248.492 284.629L250.045 285.574C250.301 285.734 250.702 285.734 250.942 285.574L252.399 284.677C252.639 284.517 252.639 284.277 252.399 284.133L250.846 283.204C250.589 283.06 250.189 283.06 249.949 283.204L248.492 284.101C248.252 284.245 248.252 284.501 248.492 284.645V284.629Z" fill="#CFDEFF"/>
<path d="M251.358 286.359L252.927 287.303C253.183 287.464 253.584 287.464 253.84 287.303L255.297 286.391C255.537 286.231 255.537 285.991 255.281 285.83L253.712 284.886C253.455 284.726 253.055 284.742 252.815 284.886L251.358 285.782C251.118 285.943 251.118 286.183 251.358 286.343V286.359Z" fill="#CFDEFF"/>
<path d="M254.24 288.104L255.825 289.065C256.081 289.225 256.498 289.225 256.738 289.065L258.195 288.152C258.435 287.992 258.435 287.752 258.179 287.592L256.594 286.631C256.337 286.471 255.921 286.471 255.681 286.631L254.224 287.544C253.984 287.704 253.984 287.944 254.24 288.104Z" fill="#CFDEFF"/>
<path d="M257.154 289.881L258.755 290.858C259.011 291.018 259.428 291.018 259.684 290.858L261.157 289.929C261.397 289.769 261.397 289.513 261.125 289.353L259.508 288.392C259.251 288.232 258.835 288.232 258.595 288.392L257.138 289.305C256.898 289.465 256.898 289.721 257.154 289.865V289.881Z" fill="#CFDEFF"/>
<path d="M262.678 292.652L264.151 291.707C264.407 291.547 264.391 291.291 264.119 291.13L262.486 290.154C262.23 289.994 261.813 289.994 261.557 290.154L260.084 291.082C259.828 291.243 259.844 291.499 260.116 291.659L261.749 292.652C262.021 292.812 262.438 292.812 262.678 292.652Z" fill="#CFDEFF"/>
<path d="M269.419 294.317L265.528 291.979C265.256 291.819 264.839 291.819 264.599 291.979L263.126 292.924C262.87 293.084 262.886 293.34 263.158 293.5L267.033 295.854C267.305 296.014 267.721 296.014 267.978 295.854L269.451 294.909C269.707 294.749 269.675 294.493 269.419 294.317Z" fill="#CFDEFF"/>
<path d="M230.8 277.137L232.241 278.017C232.481 278.161 232.865 278.161 233.105 278.017L234.546 277.153C234.786 277.009 234.786 276.769 234.546 276.624L233.089 275.744C232.849 275.6 232.465 275.6 232.225 275.744L230.784 276.608C230.544 276.753 230.528 276.993 230.768 277.137H230.8Z" fill="#CFDEFF"/>
<path d="M225.932 274.703L224.235 273.662C224.091 273.566 223.835 273.566 223.675 273.662L221.577 274.911C221.417 275.007 221.401 275.151 221.561 275.247L223.243 276.288C223.387 276.384 223.643 276.384 223.803 276.288L225.916 275.039C226.076 274.943 226.076 274.799 225.916 274.703H225.932Z" fill="#CFDEFF"/>
<path d="M228.558 276.304L226.845 275.247C226.701 275.151 226.445 275.151 226.285 275.247L224.171 276.496C224.011 276.592 223.995 276.752 224.155 276.832L225.852 277.889C225.996 277.985 226.253 277.985 226.413 277.889L228.526 276.624C228.686 276.528 228.686 276.368 228.526 276.288L228.558 276.304Z" fill="#CFDEFF"/>
<path d="M231.216 277.937L229.487 276.881C229.327 276.785 229.087 276.785 228.926 276.881L226.813 278.146C226.653 278.242 226.653 278.402 226.813 278.498L228.542 279.571C228.702 279.667 228.958 279.667 229.119 279.571L231.248 278.29C231.408 278.194 231.408 278.033 231.248 277.937H231.216Z" fill="#CFDEFF"/>
<path d="M234.498 279.954L232.129 278.497C231.969 278.401 231.712 278.401 231.552 278.497L229.423 279.778C229.263 279.874 229.263 280.035 229.423 280.131L231.776 281.604C231.937 281.7 232.193 281.7 232.353 281.604L234.482 280.307C234.642 280.211 234.642 280.051 234.482 279.954H234.498Z" fill="#CFDEFF"/>
<path d="M252.062 290.73L249.501 289.161C249.341 289.065 249.068 289.065 248.908 289.161L246.747 290.506C246.587 290.602 246.587 290.778 246.747 290.874L249.293 292.459C249.469 292.572 249.725 292.572 249.901 292.459L252.079 291.098C252.239 291.002 252.239 290.826 252.079 290.73H252.062Z" fill="#CFDEFF"/>
<path d="M255.009 292.539L253.119 291.386C252.943 291.274 252.671 291.274 252.511 291.386L250.333 292.747C250.173 292.843 250.173 293.019 250.333 293.131L252.223 294.3C252.399 294.412 252.671 294.412 252.831 294.3L255.009 292.923C255.169 292.811 255.169 292.651 255.009 292.539Z" fill="#CFDEFF"/>
<path d="M256.61 295.277L254.704 294.092C254.528 293.98 254.256 293.98 254.096 294.092L253.295 294.589C253.135 294.701 253.135 294.861 253.295 294.973L255.201 296.158C255.377 296.27 255.649 296.27 255.809 296.158L256.61 295.645C256.77 295.533 256.77 295.373 256.61 295.261V295.277Z" fill="#CFDEFF"/>
<path d="M262.678 299.007L260.724 297.79C260.548 297.678 260.276 297.678 260.1 297.79L259.3 298.303C259.139 298.415 259.139 298.591 259.316 298.687L261.269 299.904C261.445 300.016 261.733 300.016 261.893 299.904L262.694 299.392C262.854 299.28 262.854 299.103 262.678 298.991V299.007Z" fill="#CFDEFF"/>
<path d="M259.62 297.135L257.682 295.934C257.506 295.822 257.234 295.822 257.074 295.934L256.273 296.447C256.113 296.559 256.113 296.719 256.273 296.831L258.211 298.032C258.387 298.144 258.659 298.144 258.835 298.032L259.636 297.519C259.796 297.407 259.796 297.231 259.62 297.135Z" fill="#CFDEFF"/>
<path d="M257.842 295.838L259.78 297.039C259.956 297.151 260.228 297.151 260.404 297.039L261.205 296.526C261.365 296.414 261.365 296.254 261.189 296.142L259.251 294.957C259.075 294.845 258.803 294.845 258.643 294.957L257.858 295.47C257.698 295.582 257.698 295.742 257.858 295.854L257.842 295.838Z" fill="#CFDEFF"/>
<path d="M248.364 288.473L235.443 280.531C235.283 280.435 235.027 280.435 234.867 280.531L232.737 281.828C232.577 281.924 232.577 282.084 232.737 282.18L245.626 290.186C245.786 290.282 246.058 290.282 246.218 290.186L248.38 288.841C248.54 288.745 248.54 288.569 248.38 288.473H248.364Z" fill="#CFDEFF"/>
<path d="M224.828 273.47L229.423 276.288C229.663 276.432 230.047 276.432 230.287 276.288L231.728 275.424C231.969 275.279 231.985 275.039 231.728 274.911L227.117 272.125C226.893 271.981 226.509 271.997 226.269 272.125L224.844 272.974C224.603 273.118 224.587 273.342 224.812 273.486L224.828 273.47Z" fill="#CFDEFF"/>
<path d="M233.458 278.769L234.915 279.666C235.155 279.81 235.539 279.81 235.795 279.666L237.236 278.801C237.476 278.657 237.476 278.417 237.236 278.273L235.763 277.376C235.523 277.232 235.139 277.232 234.899 277.376L233.458 278.241C233.217 278.385 233.201 278.625 233.458 278.769Z" fill="#CFDEFF"/>
<path d="M236.163 280.418L237.636 281.331C237.877 281.475 238.277 281.475 238.517 281.331L239.958 280.45C240.198 280.306 240.198 280.066 239.958 279.922L238.469 279.025C238.229 278.881 237.845 278.881 237.588 279.025L236.147 279.906C235.907 280.05 235.891 280.29 236.147 280.434L236.163 280.418Z" fill="#CFDEFF"/>
<path d="M238.885 282.084L240.39 282.997C240.631 283.141 241.031 283.141 241.271 282.997L242.728 282.116C242.968 281.972 242.968 281.732 242.728 281.572L241.223 280.659C240.983 280.515 240.583 280.515 240.342 280.659L238.901 281.54C238.661 281.684 238.661 281.924 238.901 282.084H238.885Z" fill="#CFDEFF"/>
<path d="M241.639 283.781L243.16 284.71C243.4 284.854 243.801 284.854 244.057 284.71L245.514 283.813C245.754 283.669 245.754 283.413 245.514 283.269L243.993 282.34C243.753 282.196 243.352 282.196 243.112 282.34L241.655 283.237C241.415 283.381 241.415 283.637 241.655 283.781H241.639Z" fill="#CFDEFF"/>
<path d="M244.441 285.495L245.978 286.44C246.234 286.6 246.635 286.6 246.875 286.44L248.332 285.543C248.572 285.383 248.572 285.143 248.332 284.999L246.795 284.07C246.539 283.926 246.138 283.926 245.898 284.07L244.441 284.966C244.201 285.127 244.201 285.367 244.441 285.511V285.495Z" fill="#CFDEFF"/>
<path d="M247.259 287.223L248.812 288.168C249.068 288.328 249.469 288.328 249.725 288.168L251.182 287.255C251.422 287.095 251.422 286.855 251.182 286.695L249.629 285.75C249.373 285.59 248.972 285.59 248.732 285.75L247.275 286.663C247.035 286.823 247.035 287.063 247.275 287.223H247.259Z" fill="#CFDEFF"/>
<path d="M250.125 288.969L251.694 289.929C251.95 290.09 252.367 290.09 252.607 289.929L254.08 289.001C254.32 288.841 254.32 288.6 254.064 288.44L252.479 287.48C252.223 287.32 251.822 287.32 251.566 287.48L250.093 288.392C249.837 288.552 249.853 288.793 250.093 288.953L250.125 288.969Z" fill="#CFDEFF"/>
<path d="M253.023 290.746L254.608 291.723C254.864 291.883 255.281 291.883 255.537 291.723L257.01 290.794C257.266 290.634 257.25 290.378 256.994 290.218L255.393 289.257C255.137 289.097 254.72 289.097 254.48 289.257L253.007 290.186C252.751 290.346 252.767 290.602 253.007 290.746H253.023Z" fill="#CFDEFF"/>
<path d="M259.94 292.027L258.323 291.05C258.067 290.89 257.65 290.89 257.394 291.05L255.921 291.979C255.665 292.139 255.681 292.395 255.937 292.555L257.554 293.548C257.81 293.708 258.227 293.708 258.483 293.548L259.956 292.603C260.212 292.443 260.196 292.187 259.924 292.027H259.94Z" fill="#CFDEFF"/>
<path d="M266.729 296.126L261.301 292.844C261.029 292.684 260.612 292.684 260.372 292.844L258.899 293.788C258.643 293.948 258.659 294.205 258.915 294.365L264.327 297.679C264.599 297.839 265.015 297.839 265.272 297.679L266.761 296.718C267.017 296.558 267.001 296.286 266.729 296.126Z" fill="#CFDEFF"/>
<path d="M272.156 292.555L270.491 291.562C270.219 291.402 269.803 291.402 269.547 291.562L268.074 292.507C267.817 292.667 267.849 292.923 268.106 293.083L269.771 294.076C270.043 294.236 270.459 294.236 270.715 294.076L272.188 293.131C272.429 292.971 272.413 292.715 272.14 292.555H272.156Z" fill="#CFDEFF"/>
<path d="M244.457 272.99L242.984 272.125C242.744 271.981 242.36 271.981 242.12 272.125L240.711 272.974C240.47 273.118 240.47 273.342 240.711 273.486L242.184 274.351C242.424 274.495 242.808 274.495 243.048 274.351L244.457 273.502C244.697 273.358 244.697 273.134 244.457 272.99Z" fill="#CFDEFF"/>
<path d="M247.195 274.591L245.706 273.71C245.466 273.566 245.082 273.566 244.841 273.71L243.416 274.559C243.176 274.703 243.176 274.943 243.416 275.087L244.905 275.968C245.146 276.112 245.546 276.112 245.786 275.968L247.211 275.103C247.451 274.959 247.451 274.719 247.211 274.575L247.195 274.591Z" fill="#CFDEFF"/>
<path d="M249.965 276.225L248.46 275.344C248.22 275.2 247.82 275.2 247.579 275.344L246.154 276.209C245.914 276.353 245.914 276.593 246.154 276.737L247.659 277.634C247.9 277.778 248.3 277.778 248.54 277.634L249.965 276.769C250.205 276.625 250.205 276.385 249.965 276.241V276.225Z" fill="#CFDEFF"/>
<path d="M252.767 277.857L251.246 276.961C251.006 276.817 250.605 276.817 250.365 276.961L248.94 277.825C248.7 277.969 248.7 278.209 248.94 278.354L250.461 279.25C250.717 279.394 251.102 279.394 251.342 279.25L252.767 278.37C253.007 278.225 253.007 277.985 252.767 277.841V277.857Z" fill="#CFDEFF"/>
<path d="M255.617 279.522L254.064 278.609C253.808 278.465 253.423 278.465 253.167 278.609L251.742 279.49C251.502 279.634 251.502 279.874 251.742 280.034L253.279 280.947C253.536 281.091 253.936 281.091 254.176 280.947L255.617 280.066C255.857 279.922 255.857 279.682 255.601 279.522H255.617Z" fill="#CFDEFF"/>
<path d="M258.483 281.204L256.914 280.291C256.658 280.147 256.257 280.147 256.017 280.291L254.576 281.172C254.336 281.316 254.336 281.572 254.592 281.716L256.161 282.645C256.418 282.789 256.818 282.789 257.058 282.645L258.499 281.748C258.739 281.604 258.739 281.348 258.483 281.204Z" fill="#CFDEFF"/>
<path d="M261.397 282.9L259.812 281.971C259.556 281.827 259.155 281.827 258.915 281.971L257.474 282.868C257.234 283.012 257.234 283.268 257.49 283.412L259.075 284.341C259.331 284.501 259.748 284.485 259.988 284.341L261.429 283.444C261.669 283.284 261.653 283.044 261.397 282.9Z" fill="#CFDEFF"/>
<path d="M264.343 284.63L262.742 283.686C262.486 283.542 262.069 283.542 261.829 283.686L260.388 284.582C260.148 284.742 260.148 284.983 260.42 285.143L262.021 286.087C262.278 286.247 262.694 286.247 262.934 286.087L264.375 285.175C264.615 285.015 264.599 284.774 264.343 284.614V284.63Z" fill="#CFDEFF"/>
<path d="M264.983 287.864C265.24 288.025 265.656 288.025 265.912 287.864L267.369 286.952C267.609 286.792 267.593 286.552 267.337 286.391L265.72 285.447C265.464 285.287 265.048 285.287 264.807 285.447L263.366 286.359C263.126 286.519 263.142 286.76 263.398 286.92L265.016 287.88L264.983 287.864Z" fill="#CFDEFF"/>
<path d="M270.331 288.152L268.682 287.191C268.41 287.031 268.01 287.031 267.753 287.191L266.296 288.104C266.056 288.264 266.072 288.52 266.328 288.664L267.961 289.641C268.234 289.801 268.65 289.801 268.89 289.641L270.347 288.712C270.587 288.552 270.571 288.296 270.299 288.152H270.331Z" fill="#CFDEFF"/>
<path d="M275.118 290.954L271.612 288.904C271.436 288.808 271.18 288.808 271.02 288.904L269.242 290.041C269.082 290.137 269.098 290.297 269.274 290.409L272.765 292.475C272.941 292.571 273.213 292.571 273.357 292.475L275.15 291.322C275.311 291.226 275.295 291.05 275.118 290.954Z" fill="#CFDEFF"/>
<path d="M271.996 413.36C267.353 414.737 263.046 417.283 258.323 418.451C254.176 419.796 249.965 420.805 245.754 421.894C243.08 422.598 240.406 423.479 238.165 425.144C237.156 425.897 237.332 427.466 237.428 428.57C237.588 430.412 240.054 431.324 241.527 431.821C243.577 432.509 245.77 432.813 247.916 432.493C250.814 432.061 253.135 430.588 255.569 429.067C257.794 427.674 260.068 426.345 262.422 425.176C264.711 424.039 267.129 423.255 269.467 422.198C271.692 421.189 273.373 419.636 273.597 417.106C273.661 416.45 273.709 415.794 273.597 415.137C273.501 414.513 273.245 413.904 272.797 413.472C272.701 413.376 272.589 413.296 272.445 413.28C272.332 413.28 272.236 413.296 272.14 413.328C272.092 413.328 272.044 413.36 271.996 413.376V413.36Z" fill="#31394C"/>
<path d="M266.745 409.646C266.008 409.598 265.256 409.614 264.519 409.662C262.71 409.79 260.901 410.094 259.091 410.27C257.154 410.462 255.297 410.286 253.359 410.11C252.767 410.046 252.158 409.998 251.566 409.998C246.731 409.902 241.831 413.024 239.462 417.203C239.462 417.203 239.43 417.187 239.414 417.203C237.428 418.036 238.229 420.757 238.069 422.423C237.941 423.607 237.38 424.824 237.476 426.025C237.556 427.002 238.245 427.642 238.997 428.187C241.895 430.22 245.866 430.988 249.309 430.012C251.982 429.259 254.24 427.658 256.642 426.297C259.62 424.616 262.646 422.887 265.832 421.622C267.481 420.966 269.242 420.453 270.731 419.444C272.669 418.148 274.174 415.89 273.133 413.552C271.9 410.782 269.418 409.822 266.729 409.646H266.745Z" fill="#546FBF"/>
<path d="M263.43 413.184C262.021 412.08 260.388 411.039 258.675 410.318C256.882 410.446 255.153 410.318 253.359 410.126C252.767 410.062 252.159 410.014 251.566 410.014C250.814 410.35 250.093 410.799 249.437 411.359C249.357 411.423 249.325 411.503 249.309 411.599C249.245 411.679 249.181 411.759 249.117 411.823C248.796 412.224 248.54 412.656 248.38 413.152C248.028 414.241 248.428 415.218 249.02 416.13C249.597 417.043 250.173 417.876 251.07 418.5C251.47 418.772 251.934 419.044 252.415 419.14C252.831 419.221 253.456 419.285 253.792 418.98C253.856 418.932 253.872 418.852 253.872 418.772C256.177 417.523 258.595 417.059 261.189 416.723C262.15 416.595 263.735 416.483 264.391 415.65C265.064 414.785 264.087 413.729 263.43 413.2V413.184Z" fill="#2B3D89"/>
<path d="M249.148 398.726C244.505 400.103 240.198 402.649 235.475 403.818C231.328 405.163 227.117 406.171 222.906 407.26C220.232 407.964 217.559 408.845 215.317 410.51C214.308 411.263 214.484 412.832 214.581 413.937C214.741 415.778 217.206 416.69 218.679 417.187C220.729 417.875 222.922 418.18 225.068 417.859C227.966 417.427 230.287 415.954 232.721 414.433C234.947 413.04 237.22 411.711 239.574 410.542C241.863 409.405 244.281 408.621 246.619 407.564C248.844 406.555 250.525 405.002 250.75 402.473C250.814 401.816 250.862 401.16 250.75 400.503C250.654 399.879 250.397 399.27 249.949 398.838C249.853 398.742 249.741 398.662 249.597 398.646C249.485 398.646 249.389 398.662 249.293 398.694C249.245 398.694 249.196 398.726 249.148 398.742V398.726Z" fill="#31394C"/>
<path d="M243.897 395.027C243.16 394.979 242.408 394.995 241.671 395.043C239.862 395.171 238.053 395.475 236.244 395.651C234.306 395.844 232.449 395.667 230.512 395.491C229.919 395.427 229.311 395.379 228.718 395.379C223.883 395.283 218.984 398.405 216.614 402.584C216.614 402.584 216.582 402.568 216.566 402.584C214.58 403.417 215.381 406.139 215.205 407.804C215.077 408.989 214.516 410.206 214.613 411.406C214.693 412.383 215.381 413.023 216.134 413.568C219.032 415.601 223.002 416.37 226.445 415.393C229.119 414.641 231.376 413.04 233.778 411.679C236.756 409.997 239.782 408.268 242.968 407.003C244.617 406.347 246.379 405.835 247.868 404.826C249.805 403.529 251.31 401.271 250.269 398.934C249.036 396.164 246.555 395.203 243.865 395.027H243.897Z" fill="#546FBF"/>
<path d="M240.358 401.303C241.031 400.439 240.054 399.382 239.398 398.853C237.829 397.605 235.955 396.468 234.018 395.731C232.849 395.715 231.696 395.619 230.512 395.507C229.919 395.443 229.311 395.395 228.718 395.395C228.558 395.395 228.398 395.427 228.238 395.427C227.229 395.763 226.269 396.308 225.404 397.044C225.324 397.108 225.292 397.188 225.276 397.284C225.212 397.364 225.148 397.444 225.084 397.508C224.764 397.909 224.507 398.341 224.347 398.837C223.995 399.926 224.395 400.903 224.988 401.815C225.564 402.728 226.141 403.561 227.037 404.185C227.437 404.457 227.902 404.729 228.382 404.826C228.798 404.906 229.423 404.97 229.759 404.665C229.823 404.617 229.839 404.537 229.839 404.457C232.145 403.208 234.562 402.744 237.156 402.408C238.117 402.28 239.702 402.168 240.358 401.335V401.303Z" fill="#2B3D89"/>
<g style="mix-blend-mode:multiply" opacity="0.3">
<path d="M151.113 423.526C151.897 423.078 153.146 423.014 154.043 423.43L181.374 437.552L205.39 419.876C205.39 419.876 205.486 419.812 205.534 419.78C206.191 419.396 207.712 418.067 208.592 418.307C209.681 418.611 209.633 420.596 209.105 421.237L192.95 440.947L232.705 446.598C232.945 446.646 233.682 445.574 233.874 445.654C234.466 445.91 234.29 447.495 234.194 447.943C234.146 448.248 233.906 448.52 233.554 448.712C233.105 448.968 232.449 449.128 231.76 449.08L190.852 448.36L195.079 466.196V467.493C195.143 467.893 194.903 468.261 194.439 468.534C194.198 468.678 193.894 468.774 193.558 468.854C192.389 469.062 191.14 468.694 190.788 468.021L178.043 449.529L144.804 458.206C143.892 458.463 142.771 458.335 142.13 457.854C141.41 457.342 141.154 455.581 141.954 455.116C142.002 455.084 142.739 454.988 142.787 454.956L172.199 442.82L150.92 425.208C150.312 424.759 149.976 422.918 150.6 422.438C150.664 422.39 151.033 423.543 151.097 423.51" fill="#808080"/>
</g>
<path d="M232.113 437.44C234.482 436.079 236.404 437.184 236.404 439.89C236.404 442.612 234.514 445.91 232.145 447.271C229.791 448.632 227.87 447.543 227.87 444.822C227.87 442.116 229.759 438.801 232.113 437.44Z" fill="#1B1F2D"/>
<path d="M233.378 450.057L229.263 447.639L235.155 437.152L239.43 439.634L233.378 450.057Z" fill="#1B1F2D"/>
<path d="M236.436 439.97C238.805 438.609 240.727 439.714 240.727 442.42C240.727 445.142 238.837 448.44 236.468 449.801C234.114 451.162 232.193 450.073 232.193 447.351C232.193 444.645 234.082 441.331 236.436 439.97Z" fill="#1B1F2D"/>
<path d="M236.452 440.243C238.693 438.946 240.487 440.003 240.503 442.548C240.503 445.11 238.709 448.232 236.484 449.513C234.258 450.794 232.449 449.769 232.449 447.192C232.449 444.646 234.242 441.508 236.452 440.227" fill="#31394C"/>
<path d="M191.413 457.95C193.782 456.589 195.704 457.694 195.704 460.4C195.704 463.122 193.814 466.42 191.445 467.781C189.091 469.142 187.17 468.053 187.17 465.331C187.17 462.625 189.059 459.311 191.413 457.95Z" fill="#1B1F2D"/>
<path d="M192.677 470.568L188.562 468.15L194.471 457.663L198.73 460.145L192.677 470.568Z" fill="#1B1F2D"/>
<path d="M195.751 460.48C198.121 459.12 200.042 460.224 200.042 462.93C200.042 465.652 198.153 468.95 195.784 470.311C193.43 471.672 191.509 470.583 191.509 467.862C191.509 465.156 193.398 461.841 195.751 460.48Z" fill="#1B1F2D"/>
<path d="M195.751 460.753C197.993 459.456 199.786 460.513 199.802 463.058C199.802 465.62 198.009 468.742 195.783 470.023C193.558 471.304 191.749 470.279 191.749 467.702C191.749 465.156 193.542 462.018 195.751 460.737" fill="#31394C"/>
<path d="M141.458 447.335C143.828 445.975 145.749 447.079 145.749 449.785C145.749 452.507 143.86 455.805 141.49 457.166C139.136 458.527 137.215 457.438 137.215 454.717C137.215 452.011 139.104 448.696 141.458 447.335Z" fill="#1B1F2D"/>
<path d="M142.723 459.952L138.608 457.535L144.5 447.047L148.775 449.529L142.723 459.952Z" fill="#1B1F2D"/>
<path d="M145.781 449.865C148.151 448.505 150.072 449.609 150.072 452.315C150.072 455.037 148.183 458.335 145.813 459.696C143.459 461.057 141.538 459.968 141.538 457.247C141.538 454.541 143.427 451.226 145.781 449.865Z" fill="#1B1F2D"/>
<path d="M145.781 450.137C148.022 448.84 149.816 449.897 149.832 452.442C149.832 455.004 148.038 458.126 145.813 459.407C143.587 460.688 141.778 459.663 141.778 457.086C141.778 454.54 143.571 451.402 145.781 450.121" fill="#31394C"/>
<path d="M149.175 415.57C151.545 414.209 153.466 415.313 153.466 418.019C153.466 420.741 151.577 424.039 149.207 425.4C146.854 426.761 144.932 425.673 144.932 422.951C144.932 420.245 146.822 416.931 149.175 415.57Z" fill="#1B1F2D"/>
<path d="M150.44 428.186L146.325 425.768L152.233 415.281L156.492 417.763L150.44 428.186Z" fill="#1B1F2D"/>
<path d="M153.514 418.099C155.884 416.738 157.805 417.843 157.805 420.549C157.805 423.27 155.916 426.569 153.546 427.93C151.193 429.291 149.271 428.202 149.271 425.48C149.271 422.774 151.161 419.46 153.514 418.099Z" fill="#1B1F2D"/>
<path d="M153.514 418.371C155.756 417.074 157.549 418.131 157.565 420.677C157.565 423.239 155.772 426.361 153.546 427.642C151.321 428.923 149.511 427.898 149.511 425.32C149.511 422.774 151.305 419.636 153.514 418.355" fill="#31394C"/>
<path d="M206.591 410.221C208.961 408.86 210.882 409.965 210.882 412.671C210.882 415.393 208.993 418.691 206.623 420.052C204.269 421.413 202.348 420.324 202.348 417.603C202.348 414.897 204.237 411.582 206.591 410.221Z" fill="#1B1F2D"/>
<path d="M207.856 422.838L203.741 420.42L209.633 409.917L213.908 412.414L207.856 422.838Z" fill="#1B1F2D"/>
<path d="M210.914 412.735C213.284 411.374 215.205 412.479 215.205 415.185C215.205 417.907 213.316 421.205 210.946 422.566C208.592 423.927 206.671 422.838 206.671 420.116C206.671 417.41 208.56 414.096 210.914 412.735Z" fill="#1B1F2D"/>
<path d="M210.93 413.023C213.172 411.726 214.965 412.783 214.981 415.329C214.981 417.891 213.188 421.013 210.962 422.294C208.737 423.575 206.927 422.55 206.927 419.972C206.927 417.426 208.721 414.288 210.93 413.007" fill="#31394C"/>
<path d="M151.113 414.865C151.897 414.417 153.146 414.353 154.043 414.769L181.374 426.217L205.39 411.215C205.39 411.215 205.486 411.151 205.534 411.119C206.191 410.734 207.712 409.405 208.592 409.646C209.681 409.95 209.633 411.935 209.105 412.576L192.95 429.627L232.705 437.953C232.945 438.001 233.682 436.928 233.874 437.008C234.466 437.265 234.29 438.85 234.194 439.298C234.146 439.602 233.906 439.874 233.554 440.067C233.105 440.323 232.449 440.483 231.76 440.435L190.852 437.04L195.079 457.551V458.848C195.143 459.248 194.903 459.616 194.439 459.888C194.198 460.032 193.894 460.128 193.558 460.209C192.389 460.417 191.14 460.048 190.788 459.376L178.043 438.225L144.804 449.577C143.892 449.833 142.771 449.705 142.13 449.225C141.41 448.713 141.154 446.951 141.954 446.487C142.002 446.455 142.739 446.359 142.787 446.327L172.199 431.517L150.92 416.562C150.312 416.114 149.976 414.273 150.6 413.792C150.664 413.744 151.033 414.897 151.097 414.865" fill="#A6BFFF"/>
<path d="M151.113 413.359C151.897 412.911 153.146 412.847 154.043 413.263L181.374 421.557L205.39 409.805C205.39 409.805 205.486 409.741 205.534 409.709C206.191 409.325 207.199 409.212 208.08 409.453C209.169 409.757 209.633 410.525 209.105 411.166L192.95 424.967L232.705 436.495C233.666 436.671 234.322 437.232 234.194 437.84C234.146 438.144 233.906 438.417 233.554 438.609C233.105 438.865 232.449 439.025 231.76 438.977L190.852 432.38L195.063 457.438C195.127 457.838 194.887 458.206 194.423 458.479C194.182 458.623 193.878 458.719 193.542 458.799C192.373 459.007 191.124 458.639 190.772 457.966L178.027 433.549L144.788 448.28C143.876 448.536 142.755 448.408 142.114 447.927C141.394 447.415 141.49 446.678 142.291 446.214C142.339 446.182 142.403 446.15 142.467 446.118L172.199 426.825L150.92 415.024C150.312 414.576 150.28 413.92 150.92 413.455C150.985 413.407 151.033 413.375 151.097 413.343" fill="#CFDEFF"/>
<path d="M189.972 413.536V426.313C189.972 427.385 189.235 428.458 187.826 429.275C184.992 430.908 180.461 430.908 177.643 429.275C176.234 428.458 175.53 427.385 175.53 426.313V413.808L189.972 413.536Z" fill="#A6BFFF"/>
<path d="M177.659 410.861C180.493 409.228 185.072 409.228 187.89 410.861C190.708 412.494 190.66 415.136 187.826 416.769C184.992 418.403 180.461 418.403 177.643 416.769C174.825 415.136 174.825 412.494 177.643 410.861" fill="#CFDEFF"/>
<path d="M189.363 401.96V413.664C189.363 414.641 188.691 415.618 187.394 416.37C184.8 417.875 180.637 417.875 178.059 416.37C176.778 415.618 176.122 414.641 176.122 413.664V402.201L189.347 401.944L189.363 401.96Z" fill="#91AAF2"/>
<path d="M178.075 399.51C180.669 398.005 184.88 398.005 187.458 399.51C190.036 401.015 190.004 403.433 187.41 404.922C184.816 406.427 180.653 406.427 178.075 404.922C175.498 403.417 175.498 400.999 178.075 399.51Z" fill="#A6BFFF"/>
<path d="M156.749 371.779C168.853 389.567 213.46 348.707 213.46 348.707C210.386 362.749 218.151 371.923 215.493 400.727C215.445 401.336 215.605 401.928 215.958 402.408C216.87 403.625 218.856 405.819 221.529 406.283C226.269 407.1 229.087 405.418 230.303 404.394C230.768 404.009 231.056 403.465 231.104 402.857C231.632 397.461 234.626 367.008 235.075 356.008C235.411 347.538 236.788 330.006 223.018 327.06C213.076 324.931 180.109 337.852 180.109 337.852C180.109 337.852 143.379 352.149 156.732 371.779H156.749Z" fill="#1B1F2D"/>
<path d="M240.951 366.255L199.498 342.319C192.934 338.524 182.414 338.38 175.578 341.983L130.522 365.727C123.205 369.586 122.965 376.214 129.994 380.265L175.658 406.635C182.686 410.686 194.134 410.542 200.763 406.283L241.623 380.105C247.82 376.134 247.531 370.034 240.967 366.255" fill="#2B3D89"/>
<path d="M129.257 366.463C129.658 366.207 130.074 365.967 130.506 365.727L175.561 341.983C182.398 338.38 192.918 338.524 199.482 342.319L240.935 366.255C242.76 367.312 244.073 368.545 244.922 369.858C241.207 374.197 232.849 376.102 228.19 378.023C219.784 381.482 212.387 386.83 204.878 391.857C201.163 394.339 197.513 397.173 193.11 398.197C188.466 399.27 183.519 399.062 179.02 397.493C171.415 394.851 165.523 388.607 158.686 384.54C154.539 382.074 150.152 379.993 145.605 378.328C141.906 376.983 138.288 375.302 134.749 373.588C132.492 372.5 130.154 370.802 129.45 368.273C129.273 367.68 129.225 367.072 129.241 366.463H129.257Z" fill="#354D9B"/>
<path d="M201.932 230.241C201.964 229.264 199.706 225.021 198.666 223.1C197.737 216.823 196.712 211.748 196.712 211.748C189.619 205.728 172.728 231.826 172.728 231.826L170.902 255.826C179.997 264.2 188.45 259.461 188.45 259.461C188.643 248.573 195.752 250.671 198.97 245.932C200.347 243.898 200.347 238.438 199.818 232.466C200.827 231.794 201.932 230.913 201.948 230.225L201.932 230.241Z" fill="#F2C599"/>
<path d="M171.479 250.511C180.221 253.152 185.136 249.182 187.586 241.865C187.586 241.865 188.162 241 184.816 239.991C181.47 238.983 180.141 228.655 183.583 229.456C187.025 230.257 186.865 234.98 188.338 235.38C189.811 235.78 190.612 234.403 189.523 231.105C188.434 227.823 194.775 227.054 192.741 223.26C190.708 219.465 192.117 215.238 196.088 213.365C200.058 211.492 197.497 196.201 194.439 197.098C191.38 197.994 190.772 201.052 188.963 197.53C187.154 194.007 185.713 191.35 182.991 192.903C180.269 194.472 181.998 196.521 178.796 195.208C175.594 193.911 174.969 194.824 173.864 197.082C172.76 199.355 174.617 200.684 170.934 201.004C167.252 201.324 168.453 204.559 164.978 207.617C161.488 210.675 155.243 212.132 155.836 222.891C156.428 233.651 163.569 248.109 171.463 250.495L171.479 250.511Z" fill="#31394C"/>
<path d="M202.86 240.648C202.78 240.231 202.364 240.247 202.028 240.231C201.531 240.199 201.019 240.183 200.523 240.167C199.05 240.087 197.577 239.975 196.12 239.655C195.063 239.415 194.022 239.063 193.014 238.662C192.517 238.454 192.021 238.246 191.541 238.006C191.092 237.798 190.644 237.526 190.164 237.414C189.827 237.349 189.571 237.574 189.491 237.894C189.347 238.534 190.18 238.823 190.628 239.063C191.284 239.415 191.973 239.751 192.661 240.039C195.303 241.144 198.185 241.833 201.067 241.801C201.499 241.801 201.948 241.705 202.364 241.56C202.668 241.448 202.892 241.192 202.892 240.856C202.892 240.792 202.892 240.728 202.86 240.664V240.648Z" fill="#546FBF"/>
<path d="M207.311 240.616C207.247 239.992 206.895 239.287 206.287 239.111C206.047 239.047 205.79 239.031 205.534 239.047C204.798 239.047 204.061 239.095 203.325 239.207C202.668 239.319 201.868 239.447 201.435 240.024C201.099 240.472 201.163 241.112 201.387 241.609C201.644 242.201 202.172 242.361 202.748 242.457C203.709 242.617 204.862 242.682 205.838 242.489C206.623 242.329 207.247 241.865 207.327 241.016C207.327 240.888 207.327 240.76 207.327 240.632L207.311 240.616Z" fill="#1B1F2D"/>
<path d="M185.104 228.511C187.698 227.022 189.795 228.223 189.795 231.185C189.795 234.163 187.73 237.765 185.136 239.254C182.558 240.743 180.461 239.543 180.461 236.565C180.461 233.602 182.526 229.984 185.104 228.495" fill="#1B1F2D"/>
<path d="M186.497 242.313L181.998 239.671L188.434 228.191L193.11 230.913L186.497 242.313Z" fill="#1B1F2D"/>
<path d="M189.843 231.265C192.437 229.776 194.535 230.977 194.535 233.939C194.535 236.917 192.469 240.52 189.875 242.009C187.298 243.498 185.2 242.297 185.2 239.319C185.2 236.357 187.266 232.738 189.843 231.249" fill="#1B1F2D"/>
<path d="M189.843 231.569C192.293 230.161 194.262 231.297 194.278 234.099C194.278 236.901 192.325 240.312 189.875 241.721C187.442 243.129 185.472 241.993 185.456 239.191C185.456 236.405 187.41 232.978 189.843 231.585" fill="#31394C"/>
<path d="M189.843 232.29C191.845 231.073 193.446 232.066 193.462 234.452C193.462 236.869 191.861 239.783 189.876 241C187.89 242.201 186.289 241.24 186.273 238.823C186.273 236.421 187.874 233.491 189.843 232.29Z" stroke="#546FBF" stroke-width="0.2" stroke-miterlimit="10"/>
<path d="M164.658 291.803L163.905 299.793C170.23 297.199 176.538 294.573 182.831 291.916C185.697 290.699 188.579 289.482 191.3 287.961C192.773 287.144 194.311 286.392 195.575 285.287C197.16 283.91 197.561 282.437 197.833 280.436C197.961 279.475 198.537 278.002 199.77 278.226C200.555 278.354 200.811 279.491 201.483 279.411C202.268 279.315 203.037 278.69 203.661 278.242C204.365 277.746 205.038 277.217 205.855 276.929C206.703 276.625 207.632 276.385 208.528 276.561C208.737 276.593 208.961 276.673 209.105 276.817C209.249 276.977 209.313 277.233 209.169 277.409C209.841 277.201 210.546 277.169 211.234 277.313C211.554 277.377 211.891 277.49 212.115 277.73C212.339 277.97 212.435 278.354 212.259 278.626C212.739 278.546 213.252 278.498 213.732 278.61C214.212 278.722 214.677 279.027 214.853 279.475C215.125 280.131 214.757 280.852 214.42 281.476C214.693 281.38 214.997 281.284 215.269 281.38C215.573 281.476 215.781 281.78 215.829 282.101C215.877 282.421 215.813 282.741 215.685 283.029C215.525 283.398 215.301 283.75 215.029 284.038C214.741 284.326 214.404 284.566 214.068 284.807C212.627 285.815 211.25 286.872 209.761 287.817C207.744 289.098 205.71 290.378 203.693 291.659C199.434 294.365 194.919 296.863 190.852 299.841C186.849 302.755 182.638 305.493 178.411 308.103C172.471 311.769 166.371 315.66 159.871 318.27C158.99 318.622 157.997 319.054 157.037 319.054C149.463 319.054 146.694 311.609 147.654 295.342L164.626 291.819L164.658 291.803Z" fill="#F2C599"/>
<path d="M165.811 298.096C165.811 298.096 159.102 302.051 146.021 302.243C146.021 302.243 146.309 270.365 154.427 263.128C162.544 255.891 166.803 275.744 165.811 298.08V298.096Z" fill="#DB3E3E"/>
<path d="M245.306 338.988C235.363 336.859 200.619 346.129 200.619 346.129L151.113 340.525C151.113 340.525 146.918 361.18 151.305 369.442C155.708 377.719 167.876 382.507 179.692 386.189C200.235 392.578 236.404 363.117 236.404 363.117C236.372 363.277 236.34 363.437 236.308 363.581L240.951 366.255C247.515 370.05 247.803 376.134 241.607 380.105L237.46 382.763C238.933 390.704 240.598 400.519 239.206 415.617C239.157 416.13 239.27 416.674 239.542 417.107C240.23 418.211 241.831 420.213 244.489 420.677C249.196 421.478 252.687 419.876 254.336 418.852C254.992 418.451 255.393 417.779 255.441 417.01C255.809 410.91 257.602 381.21 258.035 370.402C258.371 361.932 259.091 341.918 245.322 338.972L245.306 338.988Z" fill="#31394C"/>
<path d="M151.113 340.509C151.113 340.509 149.592 348.035 149.335 355.816L173.544 343.055L151.113 340.509Z" fill="#31394C"/>
<path d="M204.397 345.153L199.498 342.319C192.933 338.524 182.414 338.38 175.577 341.983L173.544 343.055L200.619 346.129C200.619 346.129 202.06 345.745 204.397 345.169V345.153Z" fill="#2B3D89"/>
<path d="M236.308 363.581L240.406 365.95C240.519 364.653 240.871 363.405 241.047 362.124C241.143 361.435 241.335 360.779 240.807 360.218C239.638 358.97 237.284 360.331 236.099 360.795C230.624 362.956 225.34 365.534 220.2 368.384C214.901 371.314 209.617 374.116 203.597 375.253C197.209 376.454 190.228 376.822 183.839 375.493C177.579 374.18 168.629 370.369 165.138 364.894C160.799 358.105 161.536 342.991 161.536 342.991C161.408 342.526 161.28 342.094 161.12 341.662L151.097 340.525C151.097 340.525 146.902 361.179 151.289 369.441C155.692 377.719 167.86 382.506 179.676 386.188C200.219 392.577 236.388 363.116 236.388 363.116C236.356 363.277 236.324 363.437 236.292 363.581H236.308Z" fill="#252C3A"/>
<path d="M244.281 398.389C244.361 391.953 242.808 386.061 241.607 380.104L237.46 382.762C238.933 390.704 240.599 400.519 239.206 415.617C239.158 416.129 239.27 416.674 239.542 417.106C240.23 418.211 241.831 420.212 244.489 420.677C244.81 420.725 245.114 420.757 245.418 420.789C245.242 419.78 245.098 418.771 245.034 417.747C244.601 411.566 244.217 404.553 244.297 398.389H244.281Z" fill="#252C3A"/>
<path d="M203.837 273.038C203.837 273.038 195.88 262.984 188.434 259.461C188.434 259.461 183.183 258.933 178.315 258.564C174.04 258.244 170.886 255.827 170.886 255.827C170.886 255.827 161.2 258.068 156.829 261.446C152.249 264.985 147.878 282.293 149.672 296.319C151.465 310.344 150.376 330.038 149.672 335.258C148.311 345.264 157.885 354.567 170.438 355.448C186.913 356.616 205.246 352.614 204.654 344.432C203.357 326.628 203.853 273.022 203.853 273.022L203.837 273.038Z" fill="#F24B4B"/>
<path d="M211.442 312.889L211.763 321.071C218.087 318.477 224.395 315.852 230.688 313.194C233.554 311.977 236.436 310.76 239.158 309.239C240.631 308.422 242.168 307.67 243.433 306.565C245.018 305.188 245.418 303.715 245.69 301.714C245.818 300.753 246.395 299.28 247.627 299.504C248.412 299.632 248.668 300.769 249.341 300.689C250.125 300.593 250.894 299.969 251.518 299.52C252.223 299.024 252.895 298.496 253.712 298.207C254.56 297.903 255.489 297.663 256.386 297.839C256.594 297.871 256.818 297.951 256.962 298.095C257.106 298.255 257.17 298.512 257.026 298.688C257.698 298.48 258.403 298.447 259.091 298.592C259.412 298.656 259.748 298.768 259.972 299.008C260.196 299.248 260.292 299.632 260.116 299.904C260.596 299.824 261.109 299.776 261.573 299.888C262.053 300.001 262.518 300.305 262.694 300.753C262.966 301.41 262.598 302.13 262.262 302.754C262.534 302.658 262.838 302.562 263.11 302.658C263.414 302.754 263.623 303.059 263.671 303.379C263.719 303.699 263.639 304.019 263.526 304.308C263.366 304.676 263.142 305.028 262.87 305.316C262.582 305.604 262.246 305.845 261.909 306.085C260.468 307.093 259.091 308.15 257.602 309.095C255.585 310.376 253.552 311.657 251.534 312.938C247.275 315.643 242.76 318.141 238.693 321.119C234.691 324.033 230.48 326.771 226.253 329.381C220.313 333.047 214.212 336.938 207.712 339.548C206.831 339.9 205.839 340.332 204.878 340.332C197.305 340.332 194.118 332.039 195.079 315.755L211.394 312.905L211.442 312.889Z" fill="#F2C599"/>
<path d="M214.068 313.578C214.068 313.578 205.694 318.462 192.645 319.518C192.645 319.518 190.692 282.949 198.409 274.255C206.111 265.577 213.844 288.265 214.084 313.578H214.068Z" fill="#DB3E3E"/>
<path d="M120.627 297.424C121.092 297.696 121.572 297.6 121.924 297.328C122.757 305.605 126.071 313.803 129.161 321.44C136.542 339.677 147.91 356.345 160.511 371.203C163.105 374.261 165.378 378.312 168.917 380.345C172.888 382.635 178.203 382.026 181.277 378.536C183.423 376.102 184.4 372.868 184.864 369.666C186.113 361.18 186.241 352.47 185.504 343.92C184.832 336.058 185.841 327.717 183.007 320.191C180.621 313.867 175.626 308.712 170.198 304.853C164.514 300.818 158.093 298.016 151.881 294.926C146.325 292.156 140.705 288.249 134.413 287.433C130.426 286.904 124.326 286.776 121.06 289.578C118.69 291.612 117.585 295.566 120.627 297.424Z" fill="#405DAD"/>
<path d="M127.656 291.244L169.029 315.132C174.361 318.206 178.668 325.668 178.652 331.816L178.524 375.366C178.508 381.498 174.169 383.964 168.837 380.89L127.464 357.001C122.133 353.927 117.826 346.45 117.842 340.318L117.97 296.768C117.986 290.619 122.325 288.17 127.656 291.244Z" fill="#2B3D89"/>
<path d="M140.625 394.979L152.473 401.784L151.097 328.165C151.097 327.749 150.872 327.364 150.504 327.156L139.809 320.928C139.008 320.463 138.015 321.04 138.015 321.952V390.496C138.015 392.353 139.008 394.066 140.609 394.979H140.625Z" fill="#CFDEFF"/>
<path d="M160.863 398.101L152.506 393.281L151.817 399.11L155.131 401.783L160.863 398.101Z" fill="#91AAF2"/>
<path d="M160.863 398.101L157.245 400.183C154.635 401.688 152.522 400.471 152.506 397.477L152.378 327.861C152.378 327.172 152.009 326.516 151.401 326.179L141.058 320.335C140.657 320.111 140.161 320.095 139.745 320.319L138.752 320.832C138.752 320.832 139.312 320.624 139.825 320.896L150.104 326.932C150.696 327.284 151.049 327.909 151.065 328.597L151.193 398.229C151.193 402.056 153.931 403.609 157.261 401.688L162.192 398.838L160.879 398.069L160.863 398.101Z" fill="#A6BFFF"/>
<path d="M212.867 399.511L211.827 399.19L210.482 369.874L214.965 369.33L212.867 399.511Z" fill="#91AAF2"/>
<path d="M212.867 399.51L212.723 369.041L221.337 364.878L219.496 395.683L212.867 399.51Z" fill="#A6BFFF"/>
<path d="M233.057 361.467V358.938L232.065 359.274L230.768 356.408C230.672 356.184 230.464 355.992 230.207 355.831C229.407 355.367 228.03 355.319 227.149 355.831L206.383 367.904L198.666 370.498V372.947C198.682 373.267 198.906 373.572 199.306 373.796C199.562 373.94 199.898 374.052 200.299 374.116L209.041 375.429C209.745 375.845 215.717 373.043 222.346 369.185C228.991 365.326 233.794 361.868 233.073 361.451L233.057 361.467Z" fill="#A6BFFF"/>
<path d="M230.207 353.318C229.407 352.853 228.03 352.805 227.149 353.318L199.29 369.505C198.393 370.017 198.505 370.818 199.29 371.282C199.546 371.426 199.882 371.554 200.283 371.602L209.025 372.915C209.729 373.332 215.701 370.53 222.33 366.671C228.975 362.812 233.778 359.354 233.057 358.938L230.768 353.878C230.672 353.654 230.464 353.462 230.207 353.302" fill="#CFDEFF"/>
<path d="M168.228 256.531L171.142 252.352C171.142 252.352 178.476 256.067 188.931 255.411L191.06 260.902C191.06 260.902 174.937 262.696 168.228 256.531Z" fill="#DB3E3E"/>
<path d="M183.247 233.476C183.247 233.476 184.88 221.419 179.644 215.816C174.409 210.212 164.578 207.666 161.728 210.052C161.728 210.052 162.833 206.641 167.252 204.704C167.252 204.704 187.858 198.411 188.947 229.713L183.247 233.492V233.476Z" fill="#1B1F2D"/>
</svg>
