<svg width="67" height="64" viewBox="0 0 67 64" fill="none" xmlns="http://www.w3.org/2000/svg">
<path d="M43.3493 63.9764C41.0018 63.9764 38.6544 63.9764 36.3069 63.9764C36.3287 63.5457 36.9386 63.4244 36.8481 62.9357C37.9739 62.9285 39.0996 62.9267 40.2236 62.9086C40.419 62.905 40.6598 63.019 40.772 62.686C41.2498 61.2706 42.2778 60.6914 43.7348 60.7367C44.8008 60.7693 45.8687 60.7439 46.9673 60.7439C46.799 60.382 46.8641 60.0616 46.7935 59.7521C46.5311 58.5956 46.2053 57.4517 46.0804 56.2662C46.437 56.2572 46.6379 55.9024 46.9799 55.859C47.056 55.9929 47.1302 56.1196 47.1609 56.2843C47.4614 57.8264 47.7763 59.3648 48.0967 60.9032C48.2614 61.6887 48.169 61.8263 47.3944 61.8299C46.1763 61.8353 44.9565 61.8082 43.7384 61.8389C42.9764 61.8588 42.247 62.0145 41.7982 62.9394H43.8868C43.9773 63.428 43.3674 63.5493 43.3457 63.98L43.3493 63.9764Z" fill="#2F7AFF"/>
<path d="M33.869 31.4561C34.8445 31.3982 35.8092 31.3982 36.7558 31.715C37.6444 32.0118 38.401 32.4787 38.944 33.257C38.2707 33.4362 37.8598 33.8778 37.6625 34.5348C35.9087 34.542 34.1568 34.5493 32.403 34.5565C31.5505 34.5601 31.451 34.6597 31.4473 35.5302C31.4383 37.3763 31.4292 39.2224 31.422 41.0703C31.0238 41.0649 30.8066 41.5192 30.3922 41.4776C30.3831 39.4487 30.365 37.418 30.3668 35.3891C30.3668 34.0751 30.984 33.4778 32.3143 33.4742C33.9124 33.4687 35.5106 33.476 37.1105 33.4669C37.2589 33.4669 37.4635 33.581 37.5775 33.3493C37.2644 33.0706 36.8825 32.9421 36.5114 32.7973C35.4798 32.3919 34.392 32.5801 33.3296 32.5023C33.3514 32.0715 33.9631 31.9502 33.8708 31.4616L33.869 31.4561Z" fill="#5B57FF"/>
<path d="M5.97471 23.4328C5.96023 22.1152 6.1376 20.7831 5.68332 19.4981C6.10865 19.5089 6.21362 18.9714 6.62085 18.9497C6.6842 19.3406 7.08237 19.6139 6.96473 20.0953C6.92853 20.2401 7.23079 20.5641 7.47331 20.5333C7.73213 20.5008 7.59277 20.2003 7.60544 20.0193C7.6344 19.6193 7.63078 19.2157 7.63982 18.8139C8.05972 18.87 8.2932 18.4574 8.66966 18.4067C8.68414 19.0854 8.69862 19.7623 8.7131 20.441C8.69138 20.5315 8.7312 20.5641 8.81626 20.5551C9.77732 20.6057 9.80809 20.6039 9.77008 19.6338C9.71759 18.3488 9.83162 17.1036 10.4307 15.9416C10.5574 16.1497 10.6714 16.0231 10.8126 15.9434C11.075 15.795 11.2813 15.5163 11.6325 15.5561C10.9628 17.118 10.7076 18.7451 10.8796 20.4392C10.856 20.5297 10.8958 20.5641 10.9845 20.5551C11.075 20.5695 11.1637 20.584 11.2542 20.6003C11.2524 21.0401 10.7782 21.2356 10.713 21.6428C9.70492 21.65 8.69681 21.67 7.68869 21.6591C7.29051 21.6555 7.0317 21.6537 7.03532 22.2021C7.03713 22.7324 7.26155 22.7776 7.67783 22.7577C8.1466 22.7342 8.61717 22.7649 9.08775 22.7722C9.08594 23.212 8.61174 23.4075 8.54659 23.8129C8.25519 23.8201 7.9638 23.8183 7.6724 23.8382C7.52761 23.8473 7.31223 23.7531 7.25613 23.9269C7.21812 24.0409 7.31404 24.2219 7.39368 24.3432C7.46245 24.4482 7.59458 24.5133 7.69774 24.5966C7.3611 24.7649 7.11133 25.0237 6.91586 25.3422C6.40185 24.9042 6.07607 24.3649 6.01091 23.6826C6.14122 23.5794 6.10684 23.498 5.97652 23.4292L5.97471 23.4328Z" fill="#8835FF"/>
<path d="M44.9944 12.0286C45.4668 10.4305 46.2161 8.98619 47.4668 7.80794C46.9618 7.51474 46.6921 7.96902 46.3356 7.96178C46.1003 7.7826 46.3084 7.67401 46.3989 7.54189C46.5908 7.26135 46.8767 7.02787 46.8677 6.64236C47.7093 6.31115 48.5527 5.98356 49.3907 5.64511C49.5663 5.57452 49.74 5.5166 49.8558 5.30846C50.464 4.2189 50.5056 4.17185 51.606 4.46324C52.0151 4.57183 52.3499 4.53021 52.701 4.4017C53.4702 4.11755 54.2286 3.80805 54.9924 3.51123C55.0304 3.97095 54.6105 4.12841 54.3951 4.42161C54.0621 4.87409 53.4268 5.09309 53.3671 5.75551C52.8422 5.79895 52.3807 5.90935 52.4368 6.59712C51.8902 6.722 51.6603 7.23601 51.2712 7.55636C51.0504 7.73735 50.8893 8.00884 50.5454 7.95997C50.4766 7.76269 50.5671 7.59256 50.6323 7.417C50.683 7.198 50.6558 7.02425 50.3898 6.98444C49.9681 6.98263 49.6839 7.22696 49.4323 7.52741C49.3274 7.54732 49.2097 7.5437 49.1645 7.67401C48.7265 8.05228 48.2867 8.42874 47.9518 8.90655C47.7636 8.97352 47.6695 9.11107 47.6604 9.30835C47.0559 9.8839 46.7953 10.6821 46.3446 11.3572C46.0587 11.3391 45.9103 11.5526 45.7546 11.73C45.5465 11.9653 45.3021 12.0685 44.9944 12.0304V12.0286ZM51.1897 6.06681C51.4033 6.05957 51.4667 5.9365 51.4721 5.75551C51.4775 5.52746 51.3273 5.51479 51.159 5.5166C50.9834 5.51841 50.8278 5.59081 50.826 5.76999C50.826 5.9908 51.0214 6.03786 51.1916 6.06681H51.1897Z" fill="#6A4DFF"/>
<path d="M44.9944 12.0286C45.3021 12.0666 45.5446 11.9653 45.7546 11.7282C45.9102 11.5526 46.0586 11.3372 46.3446 11.3553C46.2107 11.8512 46.0786 12.3471 45.9446 12.8412C45.9048 12.977 45.8632 13.1127 45.8234 13.2485C45.8234 13.339 45.8234 13.4295 45.8234 13.52C45.7763 13.6105 45.7292 13.701 45.6804 13.7914C45.6025 14.443 45.1609 14.948 44.9655 15.5507C44.922 15.5941 44.8786 15.6375 44.8351 15.681C44.7827 15.7461 44.7302 15.8095 44.6795 15.8746C44.5401 16.014 44.4261 16.1679 44.3917 16.3687C44.2216 16.5407 44.0515 16.7144 43.8813 16.8864C43.6714 17.0819 43.3365 17.1524 43.2117 17.4782C43.4795 17.585 43.6931 17.5633 43.9085 17.4981C43.8994 17.5253 43.8958 17.5524 43.894 17.5796C43.8813 17.9669 43.3583 18.1425 43.4813 18.5859C43.0777 18.6022 42.6741 18.6221 42.2687 18.6366C41.6027 18.6583 40.9656 18.5243 40.3882 19.1632C39.8869 19.7189 39.0398 19.6501 38.6 19.0981C38.2218 18.6221 37.8055 18.6257 37.3168 18.6329C37.1159 18.6366 36.915 18.6022 36.7141 18.5859C36.7684 17.9633 37.2372 17.6538 37.6643 17.3117C38.0372 17.3588 38.3412 17.2882 38.6217 16.9787C38.9367 16.6312 40.1203 16.6294 40.4841 17.0131C40.8425 17.3913 41.1411 17.2411 41.4796 17.0891C43.1954 16.3145 44.3103 15.0457 44.7012 13.1725C44.7808 12.7851 44.8949 12.4051 44.9944 12.0232V12.0286ZM39.5846 18.3977C39.8036 18.3759 39.8344 18.2311 39.8235 18.0592C39.8109 17.8782 39.7113 17.7515 39.5303 17.7732C39.3548 17.7931 39.2679 17.9325 39.2824 18.1135C39.2968 18.2999 39.4145 18.385 39.5846 18.3977Z" fill="#674FFF"/>
<path d="M29.2537 20.4429C29.2627 21.1633 29.2682 21.8818 29.2808 22.6021C29.2899 23.0818 29.0618 23.3026 28.584 23.2953C28.1352 23.2899 27.6863 23.308 27.2375 23.3152C27.1506 23.3062 27.1108 23.3406 27.1325 23.4311C27.1271 24.3125 27.1198 25.1939 27.1144 26.0753C27.1017 28.3088 25.8149 29.8924 23.605 30.3359C23.0946 30.439 23.3679 30.7793 23.3154 31.0128C23.2068 31.4815 23.567 31.4327 23.8493 31.4562C23.8276 31.8869 23.2159 32.0082 23.3082 32.4987C22.224 32.553 22.215 32.553 22.2276 31.5485C22.2367 30.9114 22.3399 30.2544 21.4838 30.0445C21.3698 30.0173 21.2503 29.887 21.1942 29.773C21.1037 29.5866 21.0965 29.3857 21.2612 29.2101C21.3897 29.0725 21.5345 28.9241 21.7245 29.0164C22.4611 29.373 23.1652 29.2137 23.9163 29.0164C25.004 28.7287 25.7642 27.5957 25.8891 26.9169C26.1117 25.7134 26.014 24.5025 26.0158 23.2935C26.5334 23.0962 27.0112 22.8591 27.0999 22.2257C27.8166 22.1943 28.1828 21.8251 28.1985 21.118C28.2003 21.0293 28.2166 20.9388 28.2257 20.8501C28.6383 20.8918 28.8555 20.4375 29.2555 20.4429H29.2537Z" fill="#7048FF"/>
<path d="M66.0852 49.0737C66.0925 50.6067 66.1251 52.1397 66.1015 53.6727C66.087 54.6175 65.3739 55.2817 64.4237 55.3125C63.8862 55.3306 63.3469 55.3161 62.746 55.3161C63.1622 56.1179 62.1885 56.8346 62.717 57.6129C62.4473 57.8662 62.165 58.0961 61.7885 58.1667C61.7831 57.6418 61.4917 57.4771 61.003 57.4825C59.8574 57.4988 58.7117 57.4843 57.566 57.488C57.157 57.488 56.7498 57.4445 56.7679 56.916C56.7841 56.44 57.1606 56.3984 57.5479 56.4002C58.6719 56.4075 59.794 56.4002 60.918 56.4038C61.3107 56.4038 61.7451 56.4292 61.7578 55.8826C61.7704 55.3541 61.3487 55.3161 60.9524 55.2962C60.86 54.8075 61.4718 54.6844 61.4935 54.2555C62.393 54.2482 63.2944 54.2175 64.1939 54.241C64.802 54.2573 65.0445 54.0202 65.0373 53.4066C65.021 52.0999 65.0482 50.7913 65.059 49.4846C65.5097 49.6203 65.7052 49.1117 66.0871 49.0773L66.0852 49.0737Z" fill="#2086FF"/>
<path d="M53.3689 5.7555C53.4286 5.09308 54.0639 4.87408 54.3969 4.4216C54.6123 4.1284 55.0322 3.97094 54.9942 3.51122C56.1362 3.08951 57.2837 2.68048 58.4167 2.23705C58.7443 2.10855 59.0194 1.96737 59.1262 1.49137C59.318 0.631665 60.2338 0.177379 61.0682 0.369229C61.794 0.53574 62.3641 1.28866 62.3062 2.00357C62.2374 2.8488 61.5406 3.54018 60.6954 3.61982C60.3261 3.6542 60.0221 3.46959 59.7741 3.27774C59.4701 3.04246 59.242 3.07503 58.9199 3.1963C57.966 3.55647 56.9905 3.85872 56.0765 4.32206C55.8774 4.27138 55.7507 4.37997 55.6059 4.54106H56.0765C57.0213 4.7872 58.0149 4.85417 58.8963 5.32474C58.5144 5.4804 58.3172 5.77903 58.2429 6.17359C56.9869 5.84057 55.7199 5.59985 54.4096 5.64691C54.0585 5.65958 53.7091 5.66501 53.3671 5.7555H53.3689ZM61.2257 1.92937C61.1551 1.64883 60.9886 1.46603 60.6411 1.43707C60.2592 1.4063 60.1723 1.65064 60.1578 1.92756C60.1433 2.24972 60.308 2.53206 60.6483 2.50672C60.9216 2.48682 61.2094 2.33659 61.2239 1.92937H61.2257Z" fill="#6451FF"/>
<path d="M2.30427 14.9009C1.51697 13.4168 1.38846 11.8114 1.81017 10.2458C2.61015 7.28118 4.45987 5.25409 7.52947 4.52651C8.95929 4.18625 10.3783 4.28217 11.7646 4.78533C11.3864 4.94279 11.1909 5.24142 11.1167 5.63236C11.0045 5.63236 10.8886 5.65589 10.7819 5.63236C8.95024 5.21608 7.21816 5.42241 5.63269 6.4794C3.46261 7.9237 1.91514 10.977 3.13321 14.1896C2.97575 14.566 2.59929 14.6873 2.30427 14.9045V14.9009Z" fill="#9828FF"/>
<path d="M37.6662 17.3189C37.239 17.661 36.7685 17.9705 36.716 18.5931C35.8146 18.6094 34.9151 18.6311 34.0138 18.6401C33.7097 18.6438 33.4907 18.6854 33.2898 18.9931C32.9279 19.5487 32.3704 19.8691 31.6844 19.7424C31.0275 19.6211 30.3976 18.8609 30.3469 18.2257C30.2963 17.5886 30.7143 16.8664 31.3008 16.5787C31.7731 16.347 32.8717 16.5081 33.1523 16.9859C33.469 17.5252 33.9016 17.5506 34.3975 17.5488C34.7577 17.5488 35.1178 17.5325 35.478 17.5234C35.5468 17.547 35.6445 17.6121 35.6572 17.4872C35.6644 17.4112 35.5866 17.3406 35.4834 17.3479C34.45 16.4411 33.5251 15.4583 33.1794 14.0665C33.5939 14.1679 33.7514 13.6828 34.1097 13.6575C34.7577 15.4004 35.9757 16.5895 37.6644 17.3171L37.6662 17.3189ZM32.5261 18.108C32.4627 17.8583 32.3976 17.6013 32.041 17.5904C31.6953 17.5813 31.46 17.7261 31.4437 18.0791C31.4293 18.3849 31.6501 18.6275 31.9197 18.6401C32.2057 18.6528 32.4754 18.4809 32.5261 18.1062V18.108Z" fill="#7048FF"/>
<path d="M50.5472 7.95819C50.8911 8.00706 51.0522 7.73558 51.273 7.55459C51.6621 7.23604 51.892 6.72203 52.4386 6.59534C53.4992 7.58897 54.3969 8.73102 55.3652 9.80792C55.0249 9.97262 54.777 10.2332 54.5815 10.5518C54.0584 10.1916 53.8249 9.56539 53.3308 9.17988C53.2621 9.00613 53.1589 8.82514 52.9544 8.89391C52.8277 8.93554 52.949 9.08214 52.987 9.17988C53.0431 9.73914 53.4195 10.2188 53.3851 10.8016C53.1046 10.9862 52.8223 11.1726 52.5417 11.3572C52.1852 10.7219 52.158 9.95271 51.6603 9.14006C51.4196 10.7654 51.4504 12.2187 51.3164 13.6576C50.8875 13.6757 50.768 14.3001 50.2757 14.1933L50.2287 14.2096C50.2305 14.1155 50.2323 14.0232 50.2359 13.9291C50.3409 11.9382 50.4441 9.94909 50.549 7.95819H50.5472ZM52.9236 8.71473C52.8874 8.69483 52.8548 8.66406 52.8205 8.66044C52.8042 8.66044 52.7824 8.7093 52.7625 8.73645C52.7987 8.75817 52.8331 8.78532 52.8729 8.79618C52.8802 8.79799 52.9055 8.74369 52.9236 8.71292V8.71473Z" fill="#6451FF"/>
<path d="M15.3265 7.53101C16.1663 8.3527 16.4468 9.44045 16.6676 10.5282C17.0332 12.3236 16.6839 14.0249 15.8333 15.6339C15.3211 16.6041 14.5501 17.3534 13.7302 18.0502C13.1818 18.5171 12.9429 19.1741 12.5917 19.7623C12.1519 19.8438 11.9239 20.3831 11.4117 20.3053C11.4949 19.9868 11.5456 19.6555 11.6687 19.3533C12.0216 18.4954 12.3945 17.6828 13.18 17.0638C14.7817 15.8005 15.6541 14.0973 15.7247 12.0377C15.7717 10.6621 15.3138 9.41331 14.6369 8.23868C14.7781 7.91652 15.2215 7.88937 15.3265 7.53101Z" fill="#8835FF"/>
<path d="M0.0563572 38.7609C0.0744562 37.293 -0.236847 35.7854 0.436437 34.3863C1.20746 32.7846 2.38751 31.7457 4.25714 31.5502C6.14125 31.3529 8.01993 31.476 9.90042 31.4543C9.99273 31.943 9.38098 32.066 9.35926 32.4968C7.96744 32.504 6.57563 32.5366 5.18381 32.5131C2.83999 32.4733 0.977598 34.2071 1.10791 36.5998C1.14049 37.1826 1.09705 37.769 1.088 38.3536C0.711542 38.4025 0.478065 38.8188 0.0581671 38.7609H0.0563572Z" fill="#813BFF"/>
<path d="M61.7886 58.1649C62.1668 58.0943 62.4492 57.8645 62.7171 57.6111C63.0682 58.0256 62.822 58.4635 62.6356 58.7875C62.4673 59.0807 62.5379 59.24 62.6284 59.4898C62.7569 59.8499 62.9867 60.1956 62.7279 60.6228C62.4691 61.0499 62.5035 61.4752 62.7605 61.953C63.1677 62.7114 62.3569 64.0037 61.2058 64C59.3162 63.9928 57.4267 63.9856 55.5354 63.9765C55.4431 63.4878 56.0548 63.3648 56.0765 62.9358C57.7597 62.9286 59.4429 62.9177 61.1262 62.9141C61.4899 62.9141 61.7542 62.7838 61.7614 62.3856C61.7687 61.9874 61.5008 61.8408 61.1461 61.8318C60.6302 61.8173 60.1144 61.8137 59.5986 61.8064C59.7796 61.4589 59.9588 61.1114 60.1398 60.7657C60.4927 60.7585 60.8474 60.7585 61.2004 60.7404C61.5316 60.7241 61.7506 60.5449 61.7542 60.2065C61.7578 59.8698 61.5551 59.6834 61.213 59.6617C61.0809 59.6527 60.9488 59.6454 60.8167 59.6364C60.8384 59.2056 61.4519 59.0825 61.3578 58.5902C61.5533 58.5016 61.6981 58.3622 61.7868 58.1667L61.7886 58.1649Z" fill="#1A8AFF"/>
<path d="M60.6881 19.9017C60.3008 21.3912 61.0483 22.6618 61.5207 23.9704C61.7342 24.5622 61.5261 24.8373 61.0537 25.0038C59.6583 25.4979 58.2484 25.9558 56.8475 26.4354C56.3878 26.5929 55.9425 26.7956 55.4828 26.9513C54.701 27.2173 54.6032 27.1612 54.3263 26.383C54.2666 26.2146 54.2195 26.0427 54.1652 25.8726C54.634 25.8943 54.8512 25.5775 55.0448 25.2246C55.1788 25.6427 55.3543 25.8364 55.872 25.6409C57.233 25.1305 58.623 24.6961 60.0022 24.2346C60.2628 24.1477 60.3786 24.0047 60.27 23.7188C59.5135 21.7424 60.1488 21.8419 58.1036 22.5822C58.0457 22.0464 58.8275 21.8618 58.6502 21.2754C59.0719 21.0456 59.6963 21.022 59.642 20.3035C60.0963 20.4429 60.2936 19.9126 60.6881 19.8981V19.9017Z" fill="#4E62FF"/>
<path d="M23.3064 32.4969C23.2141 32.0064 23.8258 31.8851 23.8475 31.4543C25.4276 31.4543 27.0076 31.4543 28.5877 31.4543C28.4067 31.8018 28.2275 32.1494 28.0465 32.4969C27.4854 32.5041 26.9225 32.5168 26.3615 32.5186C26.1135 32.5186 25.9343 32.5638 25.8818 32.8606C25.5054 34.9348 24.2511 36.1963 22.2458 36.7266C21.3281 36.9691 20.4069 36.9673 19.5164 36.5691C19.5327 36.209 20.0015 36.0606 19.9399 35.6642C20.0503 35.675 20.1626 35.675 20.2693 35.7004C21.9109 36.0859 23.8005 35.1954 24.5443 33.686C25.0294 32.7014 24.9226 32.524 23.8457 32.5186C23.6665 32.5186 23.4873 32.5041 23.3082 32.4969H23.3064Z" fill="#674FFF"/>
<path d="M56.0783 62.9358C56.0548 63.3648 55.4448 63.4879 55.5372 63.9765C53.5064 63.9765 51.4739 63.9765 49.4432 63.9765C49.4649 63.5476 50.0749 63.4245 49.9844 62.9358C50.9997 62.9286 52.0151 62.9286 53.0286 62.9105C54.3661 62.887 54.9399 62.0707 54.6014 60.7911C54.2901 59.6183 54.006 58.4364 53.8757 57.2238C54.3046 57.336 54.4675 56.8274 54.8403 56.8075C54.9761 57.3849 55.1661 57.9568 55.2367 58.5432C55.4087 59.9748 56.2484 61.3739 55.4358 62.8797C55.6819 62.9014 55.8792 62.9177 56.0783 62.934V62.9358Z" fill="#2086FF"/>
<path d="M11.4117 20.3071C11.9239 20.385 12.1538 19.8456 12.5918 19.7642C12.4307 20.8754 12.4995 21.9958 12.4886 23.1125C12.4687 24.8771 11.3538 25.9993 9.6018 26.0065C8.64979 26.0101 7.67063 26.1332 6.91409 25.3441C7.10956 25.0255 7.35933 24.7667 7.69597 24.5984C8.94661 25.3658 10.7131 25.0147 11.247 23.8129H8.54482C8.61178 23.4057 9.08417 23.212 9.08598 22.7722C9.66515 22.765 10.2479 22.7324 10.8253 22.7577C11.2434 22.7758 11.3773 22.6672 11.4099 22.2148C11.4551 21.5904 11.0787 21.6646 10.7113 21.6428C10.7782 21.2356 11.2506 21.042 11.2524 20.6003C11.3972 20.5515 11.3791 20.4157 11.4099 20.3071H11.4117Z" fill="#813BFF"/>
<path d="M36.8481 62.9358C36.9386 63.4244 36.3268 63.5457 36.3069 63.9765C33.9142 63.9765 31.5215 63.9765 29.1288 63.9765C29.1506 63.5457 29.7623 63.4244 29.67 62.9358C31.127 62.9285 32.584 62.9177 34.0409 62.914C34.4029 62.914 34.669 62.7855 34.6762 62.3874C34.6834 61.991 34.4174 61.8462 34.0626 61.8317C33.7278 61.8172 33.3912 61.8136 33.0545 61.8064C32.9622 61.3177 33.574 61.1946 33.5957 60.7657C34.6653 60.7078 34.8174 60.5503 34.5477 59.7829C34.5767 59.2617 34.85 58.9938 35.373 58.9847C35.4888 59.5386 35.9829 60.0272 35.6318 60.6589C35.4128 61.0517 35.373 61.4553 35.6336 61.8625C35.7133 61.9874 35.7875 62.1666 35.7603 62.2987C35.6354 62.9177 35.9902 62.9557 36.4427 62.9177C36.5748 62.9068 36.7105 62.9303 36.8463 62.9376L36.8481 62.9358Z" fill="#3A71FF"/>
<path d="M18.9427 26.9694C17.9979 26.7993 17.6015 26.079 17.3771 25.2772C17.1581 24.5007 17.064 23.6899 16.9156 22.8953C17.2287 22.7107 17.5436 22.5261 17.8567 22.3415C17.9038 22.8646 17.9128 23.3496 18.6929 22.9207C19.1056 22.6926 19.6413 22.6311 20.1155 22.8881C20.4757 23.0836 20.6006 22.8845 20.7544 22.5985C21.0259 22.0954 20.9662 21.5234 21.1399 21.0022C21.2575 20.6529 21.4603 20.4791 21.8295 20.6547C22.3272 20.89 22.8177 21.1379 23.3118 21.3804C23.2593 21.7551 22.948 21.9524 22.7399 22.2202C22.2313 21.9397 21.9616 22.1442 21.8584 22.6619C21.7643 23.1324 21.5073 23.5234 21.2322 23.8944C20.9734 24.2437 20.6983 24.555 20.2169 24.1062C19.9852 23.8908 19.6196 23.813 19.2866 23.8817C18.7436 23.9921 18.4377 24.3342 18.4323 24.908C18.425 25.5396 18.7382 25.8636 19.5146 26.0301C19.5345 26.4717 19.1689 26.678 18.9445 26.9694H18.9427Z" fill="#7940FF"/>
<path d="M46.8695 6.64417C46.8767 7.02967 46.5926 7.26315 46.4007 7.54369C46.3102 7.67581 46.1003 7.78259 46.3374 7.96358C45.5139 8.4957 44.5311 8.62058 43.6443 9.00428C43.2606 9.17079 43.0741 9.36626 42.9547 9.70833C42.676 10.5119 42.0606 10.9825 41.3366 10.9445C40.7973 10.9155 39.9358 10.1825 39.8308 9.66308C39.686 8.94817 40.0462 8.15362 40.7412 7.80793C41.2443 7.55817 41.7945 7.59979 42.2687 7.90386C42.656 8.15181 42.9927 8.11019 43.3945 7.95092C44.5456 7.49663 45.7112 7.07673 46.8713 6.64417H46.8695ZM41.3837 8.7708C41.067 8.81605 40.8878 9.01514 40.9167 9.36264C40.9385 9.63956 41.1176 9.85131 41.3855 9.84045C41.7276 9.82417 41.9846 9.57983 41.9719 9.23414C41.9629 8.94998 41.733 8.76537 41.3819 8.7708H41.3837Z" fill="#7048FF"/>
<path d="M55.0466 25.2265C54.853 25.5794 54.634 25.8961 54.167 25.8744C54.0059 25.8038 54.0512 25.6464 54.0295 25.5233C53.7508 23.8872 52.5327 22.8989 51.4703 21.804C51.6476 21.518 51.8739 21.2827 52.1671 21.1144C52.5363 21.4691 52.9128 21.8184 53.2766 22.1804C53.7508 22.6528 54.2014 22.841 54.92 22.5388C56.1272 22.0302 57.4049 21.6899 58.652 21.2773C58.8293 21.8637 58.0475 22.0465 58.1054 22.584C57.3344 22.8428 56.5471 23.0655 55.7978 23.3786C55.4159 23.5378 54.8675 23.5125 54.6792 23.8727C54.4874 24.2437 54.9236 24.6256 55.0014 25.0274C55.0141 25.0925 55.0322 25.1577 55.0466 25.2229V25.2265Z" fill="#5361FF"/>
<path d="M12.0669 63.9765C9.81719 63.9819 7.56567 64.0199 5.31777 63.9765C4.42368 63.9584 3.59474 63.5892 2.85087 63.0733C2.82734 62.6426 3.10064 62.4145 3.43004 62.2245C4.32594 62.7837 5.30148 62.9412 6.34941 62.9267C8.43623 62.896 10.5231 62.9304 12.6099 62.9376C12.6081 63.3774 12.1339 63.5711 12.0687 63.9783L12.0669 63.9765Z" fill="#5859FF"/>
<path d="M12.0669 63.9765C12.1321 63.5693 12.6062 63.3756 12.6081 62.9358C15.7229 62.9358 18.8377 62.9358 21.9526 62.9358C21.911 63.4027 21.3155 63.5095 21.2757 63.9765C18.2061 63.9765 15.1365 63.9765 12.0669 63.9765Z" fill="#4E62FF"/>
<path d="M17.8568 22.3415C17.5437 22.5261 17.2287 22.7107 16.9156 22.8953C16.6839 22.0935 16.4649 21.2917 16.3926 20.4501C16.1971 18.1697 18.0776 16.2385 20.6567 16.6711C21.2775 16.776 21.5761 16.2439 22.0883 16.2349C22.139 16.5733 21.9073 16.7615 21.6992 16.9624C21.4422 17.2104 21.1888 17.4602 21.1399 17.8402C20.9408 17.8583 20.758 17.833 20.5553 17.7787C19.1201 17.386 17.4351 18.5045 17.5129 19.8728C17.5581 20.6927 17.5111 21.5524 17.8586 22.3415H17.8568Z" fill="#813BFF"/>
<path d="M43.4814 18.5913C43.3583 18.1479 43.8814 17.9723 43.894 17.585C44.1185 17.576 44.3429 17.5579 44.5673 17.5561C45.1139 17.5543 45.5791 17.6013 45.9809 16.9805C46.4695 16.2222 47.5193 16.3308 48.4731 17.0565C48.4894 17.1633 48.4821 17.281 48.6143 17.3262C48.6269 17.4167 48.6414 17.5054 48.6541 17.5959C48.636 17.6828 48.6885 17.719 48.7591 17.7425C48.7735 17.8728 48.788 18.0031 48.8025 18.1334C48.7536 18.2692 48.7048 18.4049 48.6577 18.5407C48.2324 19.6592 47.4776 19.9451 46.198 19.4764C46.1184 19.29 45.9863 19.1578 45.7999 19.0782C45.7709 18.7144 45.5338 18.6782 45.2297 18.671C44.647 18.6601 44.0569 18.7578 43.4814 18.5895V18.5913ZM47.1175 18.5407C47.4342 18.566 47.6858 18.4683 47.6767 18.119C47.6695 17.7986 47.5138 17.5669 47.132 17.5905C46.8116 17.6104 46.6071 17.7751 46.6125 18.0846C46.6179 18.3741 46.7591 18.6094 47.1175 18.5407Z" fill="#6054FF"/>
<path d="M52.1671 21.1161C51.8739 21.2844 51.6477 21.5197 51.4703 21.8057C50.1418 21.1668 49.7545 20.2636 49.9464 18.7976C50.1038 17.6031 50.0767 16.385 50.1129 15.176C50.1237 14.8375 50.1274 14.5063 50.274 14.195C50.7663 14.3018 50.8857 13.6774 51.3147 13.6593C51.4106 14.376 51.1988 15.0746 51.1735 15.7877C51.1319 16.9407 51.159 18.1062 50.9418 19.2519C50.8767 19.594 50.9382 19.889 51.2441 20.1478C51.5807 20.4338 51.9445 20.7125 52.1653 21.1179L52.1671 21.1161Z" fill="#5B57FF"/>
<path d="M21.2757 63.9765C21.3155 63.5077 21.911 63.4027 21.9526 62.9358C24.5263 62.9358 27.0982 62.9358 29.6718 62.9358C29.7623 63.4245 29.1524 63.5457 29.1307 63.9765C26.5117 63.9765 23.8946 63.9765 21.2757 63.9765Z" fill="#4369FF"/>
<path d="M66.1414 35.2333C66.1323 37.2948 66.1233 39.3545 66.1124 41.416C66.1124 41.6621 66.0961 41.9083 66.0871 42.1526C65.6491 42.0476 65.488 42.6413 65.0591 42.5598C65.05 42.2666 65.0319 41.9734 65.0319 41.6802C65.0211 39.3961 65.012 37.112 65.003 34.8297C65.3215 34.6886 65.6274 34.5311 65.7468 34.1637C65.9188 34.2578 65.9604 34.4279 65.9966 34.5981C66.0455 34.8098 66.0943 35.0198 66.1432 35.2315L66.1414 35.2333Z" fill="#2F7AFF"/>
<path d="M0.058197 50.5651C0.058197 48.8022 0.058197 47.0376 0.058197 45.2747C0.470855 45.3145 0.688043 44.8621 1.08622 44.8675C1.1007 45.7706 1.11518 46.6756 1.13147 47.5787C1.10794 47.6692 1.14776 47.7036 1.23644 47.6945C2.00384 47.709 2.76943 47.7253 3.53683 47.7398C3.62914 48.2285 3.01739 48.3497 2.99567 48.7805C2.40926 48.795 1.82285 48.8113 1.23825 48.8257C1.15138 48.8167 1.10975 48.8493 1.13328 48.9416C1.1188 49.3488 1.10251 49.7542 1.08803 50.1614C0.706143 50.1958 0.510673 50.7062 0.0600069 50.5687L0.058197 50.5651Z" fill="#7145FF"/>
<path d="M3.42822 62.2227C3.10063 62.4128 2.82552 62.6408 2.84905 63.0716C1.12421 62.0327 0.224693 60.4726 0.052752 58.4925C-0.0124045 57.7559 0.052752 57.0066 0.0563718 56.2645C0.535996 56.3442 0.65183 55.7306 1.08621 55.7216C1.09526 56.4202 1.13326 57.1188 1.10793 57.8156C1.03553 59.7395 1.93324 61.1368 3.43003 62.2227H3.42822Z" fill="#6451FF"/>
<path d="M51.6079 33.4905C54.0005 33.4905 56.3932 33.4905 58.7841 33.4905C58.7425 33.9574 58.147 34.0642 58.1072 34.5312C55.7145 34.5312 53.3218 34.5312 50.9291 34.5312C50.969 34.0624 51.5644 33.9574 51.606 33.4905H51.6079Z" fill="#4369FF"/>
<path d="M58.109 34.5311C58.1488 34.0623 58.7443 33.9574 58.7859 33.4904C60.6266 33.4832 62.4673 33.4615 64.3079 33.4759C64.8726 33.4796 65.4102 33.6298 65.7432 34.1637C65.6255 34.5311 65.3197 34.6868 64.9993 34.8297C64.7477 34.551 64.4183 34.551 64.0763 34.551C62.0872 34.551 60.0981 34.5402 58.109 34.5311Z" fill="#3A71FF"/>
<path d="M51.6078 33.4905C51.5662 33.9574 50.9707 34.0642 50.9309 34.5312C48.6287 34.5312 46.3265 34.5312 44.0243 34.5312C44.0243 34.0895 44.5003 33.8959 44.5655 33.4886C46.9129 33.4886 49.2604 33.4886 51.6078 33.4886V33.4905Z" fill="#4E62FF"/>
<path d="M65.0573 42.5617C65.4862 42.6431 65.6473 42.0495 66.0853 42.1545C66.0853 44.4603 66.0853 46.7679 66.0853 49.0737C65.7016 49.1081 65.5061 49.6185 65.0573 49.4809C65.0573 47.1751 65.0573 44.8675 65.0573 42.5617Z" fill="#267FFF"/>
<path d="M60.6881 19.9017C60.2936 19.9162 60.0963 20.4465 59.642 20.3071C59.7434 19.4311 59.8158 18.5515 59.9551 17.6809C60.0565 17.0493 60.0565 16.5063 59.5153 16.0393C59.1008 15.6828 58.7606 15.2394 58.3859 14.8358C58.5506 14.5208 58.7389 14.224 59.0719 14.0575C59.832 14.5914 60.2899 15.4149 60.9542 16.0411C61.2293 16.3018 61.1044 16.6692 61.0863 16.995C61.032 17.9741 60.9831 18.9551 60.6881 19.9017Z" fill="#5361FF"/>
<path d="M1.08622 44.8675C0.688043 44.8639 0.469045 45.3145 0.058197 45.2747C0.058197 43.1028 0.058197 40.9309 0.058197 38.7609C0.478095 38.8206 0.711572 38.4043 1.08803 38.3536C1.08803 40.5255 1.08803 42.6956 1.08803 44.8675H1.08622Z" fill="#7940FF"/>
<path d="M44.5673 33.4904C44.5022 33.8976 44.028 34.0913 44.0262 34.5329C41.905 34.5329 39.7838 34.5329 37.6607 34.5329C37.858 33.8759 38.2707 33.4361 38.9421 33.2551C39.1684 33.4904 39.458 33.4687 39.7476 33.4705C41.3547 33.4741 42.9601 33.4832 44.5673 33.4904Z" fill="#5361FF"/>
<path d="M59.0719 14.0575C58.7389 14.224 58.5525 14.5209 58.386 14.8358C57.9588 14.7254 57.8647 14.2856 57.6167 14.0087C56.5923 12.8684 55.4974 11.7897 54.5815 10.5536C54.777 10.235 55.025 9.97439 55.3652 9.80969C56.5091 11.0748 57.6511 12.3417 58.795 13.6069C58.9145 13.7408 59.0556 13.8621 59.0719 14.0593V14.0575Z" fill="#5B57FF"/>
<path d="M49.9844 62.9376C50.0749 63.4263 49.4649 63.5476 49.4432 63.9783C47.4125 63.9783 45.38 63.9783 43.3493 63.9783C43.371 63.5494 43.9809 63.4263 43.8904 62.9376C45.9211 62.9376 47.9537 62.9376 49.9844 62.9376Z" fill="#267FFF"/>
<path d="M2.30423 14.9009C2.59924 14.6856 2.9757 14.5643 3.13317 14.186C3.18565 14.2277 3.26891 14.2584 3.2852 14.3109C3.65804 15.4964 4.4743 16.3561 5.35392 17.1724C5.8987 17.6773 6.36927 18.2348 6.62085 18.9479C6.21362 18.9696 6.10865 19.5072 5.68332 19.4963C5.39735 18.9045 5.06795 18.3778 4.53041 17.9343C3.54763 17.1235 2.73861 16.1389 2.30423 14.9009Z" fill="#9130FF"/>
<path d="M14.7745 31.4562C16.0378 31.4562 17.3029 31.4562 18.5662 31.4562C18.6585 31.9449 18.0468 32.0679 18.0251 32.4969C17.7373 32.5258 17.4604 32.5114 17.5943 32.9801C17.6631 33.219 17.692 33.4869 17.7536 33.7403C17.5436 34.0244 17.3554 34.3321 16.9735 34.4172C16.9138 34.3231 16.8577 34.2271 16.7925 34.1366C16.4504 33.6498 16.5771 32.81 16.083 32.5801C15.5654 32.3394 14.8559 32.5077 14.2315 32.4969C14.1392 32.0082 14.7509 31.8851 14.7727 31.4562H14.7745Z" fill="#7145FF"/>
<path d="M34.1115 13.6575C33.7531 13.6828 33.5957 14.1679 33.1812 14.0665C32.4681 12.4521 31.7477 10.8395 31.0491 9.21961C30.9586 9.01147 30.9876 8.7237 31.2681 8.66578C31.6156 8.59519 31.9704 8.55176 32.1622 9.0169C32.707 10.3418 33.2862 11.6539 33.849 12.9734C33.945 13.1978 34.0264 13.4294 34.1133 13.6575H34.1115Z" fill="#7940FF"/>
<path d="M1.08617 55.7233C0.651794 55.7324 0.53777 56.3459 0.0563354 56.2663C0.0563354 54.3659 0.0563354 52.4655 0.0563354 50.5669C0.507001 50.7044 0.702471 50.1941 1.08436 50.1597C1.08436 52.0148 1.08436 53.8682 1.08436 55.7233H1.08617Z" fill="#6B49FF"/>
<path d="M21.1399 17.842C21.1888 17.4619 21.4421 17.2121 21.6992 16.9642C21.9073 16.7633 22.139 16.575 22.0883 16.2366C22.1317 16.204 22.1733 16.1732 22.2168 16.1407C23.0331 15.7551 23.8801 15.4963 24.7959 15.5343C25.0185 15.5524 25.2393 15.5687 25.4619 15.5868C25.9615 15.804 26.5406 15.833 26.966 16.2257C26.9605 16.6239 26.5298 16.7434 26.414 17.0691C25.0692 16.4483 23.7679 16.49 22.4774 17.2574C22.0648 17.5035 21.6467 17.7895 21.1399 17.842Z" fill="#7940FF"/>
<path d="M28.0447 32.4969C28.2257 32.1494 28.4049 31.8018 28.5859 31.4543C30.3469 31.4543 32.1079 31.4543 33.8672 31.4543C33.9577 31.943 33.3477 32.0661 33.326 32.495C31.565 32.495 29.8057 32.495 28.0447 32.495V32.4969Z" fill="#6451FF"/>
<path d="M62.565 7.82788C63.707 9.02242 64.4835 10.4179 64.945 12.0069C65.0518 12.3762 65.0319 12.644 64.688 12.7888C64.2952 12.9553 64.0726 12.7381 63.9369 12.3635C63.5514 11.2993 63.1767 10.2296 62.4383 9.33915C62.2102 9.06585 61.984 8.79075 61.7578 8.51564C61.9351 8.17719 62.2265 7.97629 62.565 7.82788Z" fill="#5859FF"/>
<path d="M14.7745 31.4562C14.7528 31.8869 14.141 32.0082 14.2333 32.4969C12.608 32.4969 10.9827 32.4969 9.35745 32.4969C9.37917 32.0661 9.99092 31.9448 9.89861 31.4543C11.5239 31.4543 13.1492 31.4543 14.7745 31.4543V31.4562Z" fill="#7940FF"/>
<path d="M26.4158 17.0692C26.5298 16.7417 26.9606 16.624 26.9678 16.2258C28.1515 16.8122 28.8103 17.8131 29.1144 19.0547C29.223 19.4999 29.3678 19.9651 29.2555 20.4429C28.8574 20.4375 28.6402 20.8918 28.2257 20.8501C28.2348 19.2972 27.795 17.9579 26.4176 17.0711L26.4158 17.0692Z" fill="#7145FF"/>
<path d="M15.3265 7.53102C15.2216 7.88938 14.7781 7.91472 14.637 8.2387C13.7266 7.0152 12.5483 6.15188 11.1185 5.63244C11.1927 5.2415 11.3864 4.94286 11.7664 4.7854C13.265 5.29398 14.5175 6.12473 15.3265 7.53102Z" fill="#9130FF"/>
<path d="M62.565 7.8278C62.2265 7.97622 61.9351 8.17711 61.7578 8.51557C60.7587 7.47487 59.5895 6.69118 58.2448 6.17355C58.319 5.77899 58.5162 5.48036 58.8981 5.32471C60.3569 5.81157 61.5388 6.70566 62.565 7.8278Z" fill="#6054FF"/>
<path d="M18.9427 26.9694C19.1689 26.678 19.5327 26.4716 19.5128 26.03C19.9616 26.0373 20.0702 26.3287 20.0684 26.7069C20.0612 27.9666 20.0521 29.2245 20.0431 30.4842C19.6594 30.5186 19.4657 31.029 19.0133 30.8896C18.9897 29.5829 18.9662 28.2761 18.9409 26.9694H18.9427Z" fill="#7145FF"/>
<path d="M2.74949 1.04443C3.00469 1.05348 3.15129 1.20009 3.25627 1.42089C3.58567 2.10142 3.91145 2.78375 4.25895 3.45523C4.42365 3.77196 4.38565 4.01991 4.09063 4.20814C3.77933 4.40723 3.49336 4.28235 3.3359 4.01268C2.93591 3.32491 2.54859 2.62629 2.21738 1.90414C2.0201 1.47338 2.33683 1.02814 2.74949 1.04624V1.04443Z" fill="#9828FF"/>
<path d="M14.5573 4.28938C14.2116 4.19345 13.9618 3.94369 14.1483 3.52379C14.4722 2.78897 14.8415 2.07406 15.2252 1.36819C15.3736 1.09671 15.6432 0.930198 15.969 1.10757C16.3057 1.29218 16.3509 1.55099 16.1663 1.90212C15.8116 2.57359 15.4985 3.26497 15.1636 3.94731C15.0568 4.1663 14.8849 4.29843 14.5591 4.28938H14.5573Z" fill="#9130FF"/>
<path d="M9.77192 1.609C9.77192 1.97098 9.7864 2.33297 9.76649 2.69314C9.74839 3.00625 9.55473 3.18362 9.24343 3.20534C8.89593 3.23068 8.72761 2.98634 8.71675 2.70943C8.68598 1.94384 8.7077 1.17463 8.7077 0.407228C8.7077 0.056107 9.02443 0 9.21809 0C9.457 0 9.7683 0.0904952 9.77011 0.456096C9.77373 0.839795 9.77011 1.22349 9.77011 1.60719L9.77192 1.609Z" fill="#9828FF"/>
<path d="M19.0151 30.8897C19.4657 31.029 19.6612 30.5168 20.0449 30.4843C20.1318 31.8899 19.4808 32.5644 18.092 32.5077C18.0703 32.5077 18.0486 32.5023 18.0251 32.4987C18.0468 32.0697 18.6585 31.9467 18.5662 31.458C19.0133 31.5068 18.9934 31.1829 19.0151 30.8915V30.8897Z" fill="#7048FF"/>
<path d="M5.97475 23.4329C6.10506 23.5016 6.13945 23.5831 6.00914 23.6862C5.82634 23.6247 5.79195 23.5433 5.97475 23.4329Z" fill="#8A6CFF"/>
<path d="M22.2168 16.1407C22.1734 16.1733 22.1318 16.204 22.0883 16.2366C22.0992 16.1606 22.1263 16.1081 22.2168 16.1407Z" fill="#813BFF"/>
<path d="M46.084 56.2645C46.075 55.2871 45.4487 55.2889 44.7013 55.3016C42.6253 55.336 40.5493 55.3016 38.4734 55.2926C38.3811 54.8039 38.9928 54.6808 39.0145 54.2519C39.2607 54.2446 39.5068 54.2301 39.753 54.2301C41.5032 54.2283 43.2533 54.232 45.0035 54.2229C45.2135 54.2229 45.5845 54.3478 45.4976 53.917C45.2913 52.8854 45.0433 51.8628 44.8135 50.8366C44.8479 50.3606 44.5854 49.9425 44.5456 49.481C44.6379 49.2638 44.3791 49.1371 44.408 48.938C44.4823 48.7389 44.3791 48.5706 44.3176 48.395C44.7375 48.4475 44.9583 47.9914 45.3564 47.9878C45.8976 50.4547 46.4388 52.9216 46.9745 55.3885C47.0071 55.5387 46.9799 55.6998 46.9817 55.8572C46.6397 55.9007 46.4406 56.2554 46.0822 56.2645H46.084Z" fill="#3A71FF"/>
<path d="M30.3904 47.4448C30.3904 45.4539 30.3904 43.4648 30.3904 41.4739C30.803 41.5155 31.022 41.0631 31.4202 41.0667C31.4202 43.0576 31.4202 45.0467 31.4202 47.0375C30.9822 46.9326 30.8193 47.5262 30.3904 47.4448Z" fill="#5361FF"/>
<path d="M7.63985 18.814C7.62175 17.5 6.96657 16.3562 6.62088 15.1309C6.48151 14.6386 6.52676 14.3273 6.89779 14.0214C7.05344 13.8929 7.18557 13.7372 7.32855 13.5942C8.09414 12.8287 8.16472 12.8124 8.93393 13.5472C9.20361 13.8042 9.34116 13.7535 9.57826 13.5237C10.3095 12.816 10.3601 12.8703 11.1474 13.5562C11.8189 14.1408 12.132 14.7272 11.6343 15.5562C11.2814 15.5146 11.0769 15.7951 10.8144 15.9435C10.6751 16.0213 10.561 16.1498 10.4325 15.9417C10.4778 15.7716 10.5502 15.6014 10.5592 15.4277C10.5737 15.1508 10.9266 14.872 10.5411 14.5897C10.1212 14.2838 9.95472 14.6657 9.70857 14.8612C9.42623 15.0838 9.14931 15.3209 8.79095 14.9426C8.55566 14.6947 8.2878 14.3055 7.90772 14.5444C7.47696 14.8141 7.87152 15.2286 7.88962 15.5779C7.89324 15.6376 7.96925 15.6919 7.98192 15.7535C8.15748 16.6512 8.73484 17.4457 8.66969 18.405C8.29323 18.4556 8.05975 18.8701 7.63985 18.8122V18.814Z" fill="#9130FF"/>
<path d="M23.31 21.3804C24.5299 21.8546 25.7751 22.2093 27.0963 22.2256C27.0076 22.8591 26.5298 23.0962 26.0122 23.2934C25.2412 23.1106 24.4701 22.9333 23.7009 22.745C23.3353 22.6564 22.9516 22.5912 22.7381 22.2202C22.9444 21.9523 23.2575 21.755 23.3082 21.3804H23.31Z" fill="#7145FF"/>
<path d="M60.9524 55.2925C59.1026 55.2925 57.2511 55.2925 55.4014 55.2925C55.4412 54.8238 56.0385 54.7188 56.0783 54.2518C57.8846 54.2518 59.6891 54.2518 61.4953 54.2518C61.4736 54.6826 60.8619 54.8039 60.9542 55.2925H60.9524Z" fill="#267FFF"/>
<path d="M53.9318 15.2865C53.4123 13.996 52.8675 12.7164 52.5417 11.359C52.8223 11.1744 53.1046 10.988 53.3852 10.8033C54.0186 12.1029 54.4349 13.4784 54.8349 14.8611C54.4385 14.8014 54.2919 15.2702 53.9336 15.2865H53.9318Z" fill="#6054FF"/>
<path d="M60.8166 59.6345C59.6945 59.6418 58.5742 59.6508 57.452 59.6563C57.0792 59.6563 56.7588 59.5458 56.7643 59.1078C56.7697 58.6825 57.0701 58.5667 57.4538 58.5685C58.7552 58.5812 60.0565 58.583 61.3578 58.5884C61.4519 59.0789 60.8383 59.2038 60.8166 59.6345Z" fill="#2086FF"/>
<path d="M59.5986 61.8064C58.8818 61.8136 58.1651 61.8244 57.4502 61.8281C57.0774 61.8299 56.7588 61.7159 56.7643 61.2797C56.7715 60.8543 57.0701 60.7349 57.4538 60.7421C58.3497 60.7566 59.2456 60.7584 60.1397 60.7657C59.9587 61.1132 59.7796 61.4607 59.5986 61.8064Z" fill="#2086FF"/>
<path d="M17.7536 33.7402C18.2821 34.6108 19.0205 35.2388 19.9382 35.6642C19.9979 36.0605 19.5309 36.2089 19.5146 36.5691C18.4396 36.1239 17.4369 35.59 16.9753 34.4171C17.3554 34.3303 17.5455 34.0226 17.7554 33.7402H17.7536Z" fill="#7048FF"/>
<path d="M56.0765 54.2519C56.0367 54.7188 55.4394 54.8238 55.3996 55.2926C54.8192 55.3251 54.593 55.6389 54.7209 56.2337C54.7625 56.4256 54.8005 56.6174 54.8385 56.8074C54.4657 56.8255 54.3028 57.3341 53.8738 57.2237C53.5282 55.7251 53.1734 54.2283 52.8404 52.7261C52.6105 51.689 52.4078 50.6447 52.1997 49.604C52.1743 49.4755 52.178 49.3416 52.1689 49.2095C52.5761 49.3054 52.7191 48.8077 53.0811 48.8022C53.3635 50.0058 53.6494 51.2076 53.9227 52.4148C54.0295 52.8908 54.0965 53.3759 54.1996 53.8519C54.2575 54.1216 54.4186 54.2537 54.7281 54.2374C55.177 54.2139 55.6276 54.2446 56.0765 54.2519Z" fill="#2F7AFF"/>
<path d="M33.7332 56.4237C34.2889 56.4201 34.8029 56.3694 34.6708 55.5912C35.2499 55.3016 35.7549 54.945 35.8997 54.2537C36.9386 54.2537 37.9756 54.2537 39.0145 54.2537C38.9928 54.6826 38.3811 54.8057 38.4734 55.2944H35.6825C35.773 55.6563 35.8128 55.9441 35.6481 56.2518C35.3983 56.7133 35.4237 57.1586 35.6879 57.6563C35.9323 58.1178 35.7549 58.6047 35.3766 58.9847C34.8536 58.992 34.5803 59.2617 34.5513 59.7829C34.3034 59.6417 34.0319 59.658 33.7622 59.658C32.4989 59.658 31.2374 59.658 29.9741 59.658C29.5994 59.658 29.2736 59.5531 29.2773 59.1132C29.2809 58.6861 29.5831 58.5685 29.9686 58.5703C31.2754 58.5775 32.5839 58.5703 33.8907 58.5739C34.2744 58.5739 34.6635 58.554 34.6744 58.0581C34.6852 57.5223 34.2762 57.4843 33.8672 57.4861C33.6427 57.4861 33.4165 57.4735 33.1921 57.4644C33.2138 57.0337 33.8255 56.9124 33.7332 56.4237Z" fill="#416DFF"/>
<path d="M33.0563 61.8063C32.0247 61.8136 30.993 61.8226 29.9632 61.8281C29.5885 61.8299 29.27 61.7158 29.2754 61.2797C29.2809 60.8561 29.5813 60.7367 29.965 60.7403C31.1758 60.7548 32.3867 60.7566 33.5975 60.7638C33.5758 61.1928 32.964 61.3159 33.0563 61.8045V61.8063Z" fill="#416DFF"/>
<path d="M8.72399 50.0221C8.66849 49.2089 8.22265 48.8016 7.38647 48.8004C5.92226 48.7968 4.45805 48.786 2.99384 48.7787C3.01555 48.3498 3.6273 48.2267 3.535 47.738C5.04446 47.7308 6.55573 47.7018 8.06518 47.7272C8.5611 47.7362 8.71675 47.6168 8.70951 47.0973C8.67874 45.0196 8.69322 42.9418 8.69865 40.8622C8.70046 40.2432 9.0371 40.0134 9.51492 40.2432C9.78278 40.3717 9.77735 40.5853 9.77554 40.8061C9.77011 43.6965 9.76106 46.5869 9.75201 49.4792C9.31764 49.4864 9.20361 50.1018 8.72399 50.0203V50.0221Z" fill="#6B49FF"/>
<path d="M1.23458 48.824C1.20019 48.862 1.16399 48.9018 1.1296 48.9398C1.10607 48.8475 1.1477 48.8149 1.23458 48.824Z" fill="#E3DDFF"/>
<path d="M1.13146 47.5787C1.16585 47.6167 1.20205 47.6566 1.23644 47.6946C1.14956 47.7036 1.10794 47.6692 1.13146 47.5787Z" fill="#E3DDFF"/>
<path d="M53.0811 48.8022C52.7191 48.8076 52.5762 49.3053 52.1689 49.2094C51.9843 48.4836 51.7454 47.7669 51.6368 47.0303C51.5771 46.6321 51.407 46.6285 51.1192 46.6285C49.9735 46.6285 48.826 46.6158 47.6804 46.6086C47.5881 46.1199 48.1998 45.9968 48.2215 45.5679C49.4287 45.5606 50.636 45.5534 51.845 45.5462C52.2576 45.5443 52.4821 45.7054 52.5671 46.1543C52.7354 47.0375 53.0341 47.8954 53.0793 48.804L53.0811 48.8022Z" fill="#3A71FF"/>
<path d="M48.2233 45.568C48.2016 45.9969 47.5898 46.12 47.6822 46.6087C47.036 46.6159 46.3917 46.6358 45.7456 46.6268C45.3184 46.6213 44.9564 46.605 45.2315 47.2204C45.3329 47.4503 45.3184 47.7308 45.3582 47.9878C44.9601 47.9914 44.7392 48.4475 44.3193 48.395C44.2596 48.1235 44.2017 47.8521 44.142 47.5806C44.0026 47.186 44.0352 46.7643 43.9194 46.3571C43.7782 45.8648 44.0153 45.5372 44.5854 45.5444C45.798 45.5571 47.0107 45.5607 48.2251 45.568H48.2233Z" fill="#416DFF"/>
<path d="M29.9415 55.2926C29.1198 55.5297 28.6058 54.9595 28.0429 54.5487C27.3642 54.0564 27.1615 54.0582 26.7072 54.7677C26.4466 55.1749 26.1407 55.336 25.6557 55.3233C24.2856 55.289 22.9155 55.298 21.5454 55.2908C21.4531 54.8021 22.0648 54.679 22.0865 54.2501C23.1435 54.2428 24.2023 54.2392 25.2593 54.2265C25.9905 54.2175 26.6312 53.2981 26.4393 52.5904C26.3308 52.194 26.1317 51.8121 26.1878 51.3796C26.5932 51.4646 26.7344 50.9524 27.109 50.9687C27.3515 51.347 27.4529 51.8085 27.471 52.2121C27.5126 53.2257 28.2945 53.3904 29.0058 53.8465C28.6275 52.3479 28.2836 50.9832 27.9398 49.6167C28.3506 49.7054 28.4954 49.1896 28.8737 49.2022C29.4221 50.6719 29.67 52.223 30.0736 53.7324C30.1098 53.8718 30.1406 53.984 30.3904 54.0872C30.3904 51.832 30.3904 49.6384 30.3904 47.4448C30.8193 47.5281 30.9822 46.9326 31.4202 47.0376C31.4256 49.2982 31.4292 51.5605 31.4347 53.8211C30.6546 54.0238 30.1822 54.5396 29.9415 55.2908V55.2926Z" fill="#4E62FF"/>
<path d="M50.1201 39.7092C51.2097 40.6902 51.2187 42.5291 50.1418 43.5372C49.2025 44.415 47.5392 44.7914 46.3211 43.5263C46.341 43.0992 46.8152 42.9652 46.922 42.5942C47.1446 42.7281 47.1881 43.0195 47.4939 43.1209C48.3084 43.3906 49.1391 43.1643 49.6133 42.4603C50.0205 41.8558 49.9065 41.1047 49.302 40.406C49.5156 40.1038 49.7111 39.7798 50.1219 39.711L50.1201 39.7092Z" fill="#416DFF"/>
<path d="M46.922 42.5943C46.8152 42.9653 46.341 43.0992 46.3211 43.5264C45.1592 42.1581 45.2442 40.8875 46.2994 39.693C47.2297 38.6396 49.0903 38.6378 50.1201 39.7111C49.7093 39.7799 49.5138 40.1038 49.3002 40.4061C48.56 39.8722 47.8125 39.8505 47.2424 40.3427C46.4949 40.9907 46.4026 41.6368 46.9202 42.5943H46.922Z" fill="#4369FF"/>
<path d="M29.9415 55.2925C30.1822 54.5396 30.6546 54.0238 31.4347 53.8229C31.5596 54.1921 31.8473 54.2355 32.1858 54.2337C33.4238 54.2319 34.6617 54.2446 35.8997 54.2518C35.7549 54.9432 35.2499 55.2998 34.6708 55.5893C34.4391 55.3341 34.1405 55.3106 33.8183 55.3106C32.526 55.3142 31.2338 55.2998 29.9433 55.2925H29.9415Z" fill="#4369FF"/>
<path d="M8.72397 50.0221C9.20359 50.1036 9.31942 49.4882 9.75199 49.481C9.76647 51.0176 9.78276 52.5542 9.79724 54.0926C9.77371 54.1831 9.81534 54.2175 9.90221 54.2084C11.075 54.2229 12.2478 54.2392 13.4207 54.2537C13.3808 54.7224 12.7836 54.8274 12.7438 55.2944C11.6216 55.3016 10.4995 55.2853 9.37915 55.3269C8.87419 55.345 8.68958 55.1532 8.6932 54.6772C8.70768 53.1261 8.71492 51.575 8.72397 50.0239V50.0221Z" fill="#6054FF"/>
<path d="M12.7438 55.2925C12.7836 54.8238 13.3809 54.7188 13.4207 54.2518C16.3093 54.2518 19.1979 54.2518 22.0865 54.2518C22.0648 54.6826 21.453 54.8039 21.5453 55.2925C18.6115 55.2925 15.6776 55.2925 12.7438 55.2925Z" fill="#5859FF"/>
<path d="M28.8755 49.2022C28.4972 49.1896 28.3524 49.7054 27.9415 49.6167C27.842 49.2602 27.6863 48.909 27.6592 48.547C27.6194 48.0113 27.3171 47.9154 26.899 47.995C26.3959 48.091 26.5461 48.4728 26.6149 48.7896C26.776 49.5172 27.0493 50.2176 27.1108 50.9687C26.7361 50.9524 26.5968 51.4664 26.1896 51.3795C25.8439 50.4764 25.5905 49.5443 25.4855 48.5887C25.4041 47.8412 25.9923 46.9941 26.5425 46.9091C27.7316 46.7227 28.4628 47.1335 28.7089 48.1507C28.7922 48.4946 28.8212 48.8529 28.8736 49.204L28.8755 49.2022Z" fill="#5361FF"/>
<path d="M9.90224 54.2067C9.81536 54.2157 9.77374 54.1831 9.79727 54.0908C9.83165 54.1288 9.86604 54.1686 9.90224 54.2067Z" fill="#E3DDFF"/>
<path d="M23.0421 25.478C23.7444 25.6047 23.9688 25.2753 23.8476 24.6255C23.7697 24.2093 23.9073 23.8889 24.3398 23.878C24.814 23.8654 24.9896 24.193 24.9353 24.6509C24.919 24.7848 24.9335 24.9224 24.9335 25.0563C24.9335 26.5694 24.9335 26.5386 23.4765 26.5621C22.8195 26.573 22.691 26.287 22.7815 25.7404C22.9118 25.6952 22.9987 25.6065 23.044 25.478H23.0421Z" fill="#7145FF"/>
<path d="M23.6919 28.3123C22.9951 28.3956 22.4304 27.8653 21.8005 27.5286C21.5091 27.373 21.4313 27.0436 21.6087 26.7739C21.8494 26.4065 22.2983 26.4952 22.5589 26.6526C23.0458 26.9476 23.4801 27.1196 24.081 27.0399C24.3706 27.0019 24.7959 27.344 24.7815 27.7983C24.7688 28.1748 24.4919 28.3232 24.1299 28.3141C24.0177 28.3105 23.9055 28.3141 23.6919 28.3141V28.3123Z" fill="#7048FF"/>
<path d="M53.9318 15.2864C54.2919 15.2683 54.4385 14.8014 54.8331 14.8611C55.043 15.3824 55.3344 15.7353 55.9534 15.8837C56.5796 16.0339 56.8765 16.852 56.757 17.6321C56.6738 18.175 55.9172 18.861 55.3091 18.9497C54.71 19.0366 53.9607 18.566 53.6675 17.909C53.4666 17.4583 53.3942 17.0004 53.7417 16.5878C54.0802 16.1841 54.082 15.7516 53.9299 15.2864H53.9318ZM55.1245 16.7615C54.8765 16.8339 54.5634 16.9443 54.6105 17.2954C54.6485 17.576 54.8765 17.8655 55.1878 17.8257C55.4448 17.7932 55.7254 17.6411 55.6801 17.2411C55.6421 16.9027 55.4828 16.7669 55.1245 16.7615Z" fill="#5859FF"/>
<path d="M33.7332 56.4237C33.8255 56.9124 33.2138 57.0355 33.1921 57.4644C32.1152 57.4717 31.0401 57.4807 29.9632 57.4861C29.5904 57.488 29.2682 57.3757 29.2754 56.9377C29.2827 56.5142 29.5813 56.3948 29.9668 56.4002C31.2229 56.4129 32.479 56.4165 33.7332 56.4237Z" fill="#4369FF"/>
</svg>
