<svg width="114" height="30" viewBox="0 0 114 30" fill="none" xmlns="http://www.w3.org/2000/svg">
<path d="M92.7 0H105.3C110.1 0 114 3.9 114 8.7V21.3C114 23.6074 113.083 25.8203 111.452 27.4518C109.82 29.0834 107.607 30 105.3 30H92.7C87.9 30 84 26.1 84 21.3V8.7C84 6.39262 84.9166 4.17974 86.5482 2.54817C88.1797 0.916605 90.3926 0 92.7 0ZM92.4 3C90.9678 3 89.5943 3.56893 88.5816 4.58162C87.5689 5.59432 87 6.96783 87 8.4V21.6C87 24.585 89.415 27 92.4 27H105.6C107.032 27 108.406 26.4311 109.418 25.4184C110.431 24.4057 111 23.0322 111 21.6V8.4C111 5.415 108.585 3 105.6 3H92.4ZM106.875 5.25C107.372 5.25 107.849 5.44754 108.201 5.79917C108.552 6.15081 108.75 6.62772 108.75 7.125C108.75 7.62228 108.552 8.09919 108.201 8.45082C107.849 8.80246 107.372 9 106.875 9C106.378 9 105.901 8.80246 105.549 8.45082C105.198 8.09919 105 7.62228 105 7.125C105 6.62772 105.198 6.15081 105.549 5.79917C105.901 5.44754 106.378 5.25 106.875 5.25ZM99 7.5C100.989 7.5 102.897 8.29018 104.303 9.6967C105.71 11.1032 106.5 13.0109 106.5 15C106.5 16.9891 105.71 18.8968 104.303 20.3033C102.897 21.7098 100.989 22.5 99 22.5C97.0109 22.5 95.1032 21.7098 93.6967 20.3033C92.2902 18.8968 91.5 16.9891 91.5 15C91.5 13.0109 92.2902 11.1032 93.6967 9.6967C95.1032 8.29018 97.0109 7.5 99 7.5ZM99 10.5C97.8065 10.5 96.6619 10.9741 95.818 11.818C94.9741 12.6619 94.5 13.8065 94.5 15C94.5 16.1935 94.9741 17.3381 95.818 18.182C96.6619 19.0259 97.8065 19.5 99 19.5C100.193 19.5 101.338 19.0259 102.182 18.182C103.026 17.3381 103.5 16.1935 103.5 15C103.5 13.8065 103.026 12.6619 102.182 11.818C101.338 10.9741 100.193 10.5 99 10.5Z" fill="#222222"/>
<path d="M51.4238 27C62.745 27 68.9381 17.7642 68.9381 9.76892C68.9381 9.51047 68.9381 9.24833 68.9269 8.98988C70.1326 8.13052 71.1732 7.06657 72 5.8479C70.8737 6.33683 69.6802 6.65906 68.4581 6.80415C69.7454 6.0466 70.7095 4.85466 71.1712 3.44987C69.9619 4.15529 68.6382 4.6505 67.2581 4.91379C66.3303 3.94097 65.1026 3.2965 63.7652 3.08021C62.4277 2.86393 61.0551 3.0879 59.86 3.71743C58.6649 4.34697 57.714 5.34693 57.1546 6.56243C56.5952 7.77793 56.4585 9.14114 56.7656 10.4409C54.3183 10.3201 51.924 9.69409 49.7382 8.60358C47.5524 7.51307 45.6238 5.98237 44.0775 4.11076C43.2925 5.44561 43.053 7.02457 43.4075 8.52701C43.762 10.0295 44.684 11.3427 45.9862 12.2002C45.0104 12.1675 44.056 11.9095 43.2 11.447V11.5301C43.2017 12.9284 43.6937 14.2833 44.5929 15.3657C45.4921 16.4481 46.7433 17.1917 48.135 17.4707C47.6067 17.6139 47.0611 17.6854 46.5131 17.683C46.1268 17.6841 45.7413 17.6489 45.3619 17.5777C45.7552 18.7815 46.5211 19.8339 47.5523 20.5877C48.5835 21.3414 49.8284 21.7588 51.1125 21.7812C48.931 23.4681 46.2364 24.383 43.4625 24.3786C42.9737 24.3806 42.4853 24.3529 42 24.2955C44.8153 26.0627 48.0849 27.001 51.4238 27Z" fill="#222222"/>
<path d="M30 15.0376C30 6.73684 23.28 0 15 0C6.72 0 0 6.73684 0 15.0376C0 22.3158 5.16 28.3759 12 29.7744V19.5489H9V15.0376H12V11.2782C12 8.37594 14.355 6.01504 17.25 6.01504H21V10.5263H18C17.175 10.5263 16.5 11.203 16.5 12.0301V15.0376H21V19.5489H16.5V30C24.075 29.2481 30 22.8421 30 15.0376Z" fill="#222222"/>
</svg>
