<svg width="31" height="36" viewBox="0 0 31 36" fill="none" xmlns="http://www.w3.org/2000/svg">
<path d="M15.5 0C19.6109 0 23.5533 1.62551 26.4602 4.51892C29.367 7.41234 31 11.3367 31 15.4286C31 21.816 26.1089 28.5086 16.5333 35.6571C16.2352 35.8797 15.8726 36 15.5 36C15.1274 36 14.7648 35.8797 14.4667 35.6571C4.89111 28.5086 0 21.816 0 15.4286C0 11.3367 1.63303 7.41234 4.53984 4.51892C7.44666 1.62551 11.3891 0 15.5 0ZM15.5 10.2857C14.1297 10.2857 12.8156 10.8275 11.8466 11.792C10.8777 12.7565 10.3333 14.0646 10.3333 15.4286C10.3333 16.7925 10.8777 18.1006 11.8466 19.0651C12.8156 20.0296 14.1297 20.5714 15.5 20.5714C16.8703 20.5714 18.1844 20.0296 19.1534 19.0651C20.1223 18.1006 20.6667 16.7925 20.6667 15.4286C20.6667 14.0646 20.1223 12.7565 19.1534 11.792C18.1844 10.8275 16.8703 10.2857 15.5 10.2857Z" fill="white"/>
</svg>
