<svg width="36" height="26" viewBox="0 0 36 26" fill="none" xmlns="http://www.w3.org/2000/svg">
<path d="M2.625 0H33.375C34.824 0 36 1.1648 36 2.6V23.4C36 24.0896 35.7234 24.7509 35.2312 25.2385C34.7389 25.7261 34.0712 26 33.375 26H2.625C1.92881 26 1.26113 25.7261 0.768845 25.2385C0.276562 24.7509 0 24.0896 0 23.4L0 2.6C0 1.1648 1.176 0 2.625 0ZM2.25 6.55497V23.4C2.25 23.605 2.418 23.7714 2.625 23.7714H33.375C33.4745 23.7714 33.5698 23.7323 33.6402 23.6626C33.7105 23.593 33.75 23.4985 33.75 23.4V6.55497L19.47 16.1126C18.582 16.7069 17.418 16.7069 16.53 16.1126L2.25 6.55497ZM2.25 2.6V3.86583L17.79 14.2658C17.852 14.3073 17.9252 14.3295 18 14.3295C18.0748 14.3295 18.148 14.3073 18.21 14.2658L33.75 3.86583V2.6C33.75 2.50149 33.7105 2.40702 33.6402 2.33736C33.5698 2.2677 33.4745 2.22857 33.375 2.22857H2.625C2.52554 2.22857 2.43016 2.2677 2.35984 2.33736C2.28951 2.40702 2.25 2.50149 2.25 2.6Z" fill="white"/>
</svg>
