<svg width="79" height="79" viewBox="0 0 79 79" fill="none" xmlns="http://www.w3.org/2000/svg">
<path d="M59.404 0C60.4193 0 61.4347 0 62.4501 0C62.6169 0.0467772 62.7817 0.111859 62.9506 0.138298C70.1131 1.24468 74.9661 5.19837 77.2044 12.0828C79.3145 18.5726 77.1311 25.7376 71.9302 30.035C70.7683 30.995 69.4559 31.7699 68.1577 32.6688C69.0611 36.7303 69.0774 40.8853 68.2065 45.0363C68.1048 45.5224 68.4181 45.5834 68.701 45.7298C75.0984 49.0612 78.759 55.7218 77.8332 62.8605C76.9012 70.0479 72.8764 74.992 65.9662 77.1316C58.9889 79.2915 52.8967 77.3838 47.9969 71.9576C46.9754 70.8268 46.2205 69.454 45.3089 68.1463C45.2499 68.1544 45.0993 68.1707 44.9508 68.2012C40.9972 69.0066 37.0395 69.033 33.092 68.1931C32.4836 68.0629 32.3615 68.4025 32.1621 68.789C29.0488 74.8049 22.395 78.5125 15.7819 77.9166C8.60924 77.2719 2.72256 72.5535 0.736598 65.8156C0.423238 64.7539 0.242141 63.6557 0 62.5737C0 61.4571 0 60.3406 0 59.224C0.0468004 59.0552 0.115984 58.8905 0.140401 58.7197C0.803746 54.0257 2.99116 50.2062 6.76775 47.3345C7.72614 46.6044 8.79034 46.0146 9.83622 45.3434C8.93888 41.2392 8.89208 37.1086 9.77315 32.982C9.89116 32.4268 9.53507 32.3434 9.21561 32.1726C5.321 30.0859 2.52926 27.0108 1.05199 22.8375C0.567709 21.4606 0.343881 19.9962 0.0020348 18.5726C0.0020348 17.5069 0.0020348 16.4412 0.0020348 15.3755C0.0488352 15.2351 0.115984 15.0989 0.138366 14.9565C1.13745 8.36092 4.69835 3.72794 10.8699 1.19587C12.2983 0.610138 13.8773 0.388454 15.3851 0C16.5022 0 17.6193 0 18.7364 0C18.8789 0.0447434 19.0172 0.111859 19.1617 0.132197C25.0382 0.982322 29.3866 4.02488 32.2007 9.24359C32.4449 9.69916 32.6606 9.85372 33.1795 9.74593C37.0496 8.94665 40.928 8.94665 44.8002 9.74593C45.313 9.85169 45.5368 9.71543 45.783 9.24969C48.1576 4.75094 51.8264 1.85075 56.7404 0.540989C57.6133 0.307103 58.5148 0.17694 59.404 0ZM11.5923 44.7048C25.1277 40.3626 37.6072 52.9722 33.2812 66.3057C35.8817 67.1782 42.3076 67.1782 44.7168 66.3057C40.4152 52.7464 53.0086 40.383 66.3365 44.6845C67.2379 42.2337 67.24 35.7642 66.3406 33.2627C53.0371 37.5886 40.3806 25.1356 44.731 11.5804C40.9015 10.7771 37.0903 10.7649 33.2629 11.5865C37.6031 25.0604 25.0321 37.5886 11.5902 33.2444C10.7621 37.0699 10.76 40.8772 11.5923 44.7028V44.7048ZM13.2913 61.6158C10.3917 58.199 10.2432 54.8982 12.864 52.3844C15.1654 50.1757 18.8097 50.1309 21.1497 52.2847C22.3645 53.4033 23.0339 54.8005 23.1174 56.4377C23.2232 58.5183 22.3747 60.2165 20.7712 61.5954C25.0057 63.1981 27.6306 66.1572 28.7232 70.4912C32.8193 66.1959 34.2701 57.0926 28.2532 50.5825C22.1325 43.9604 11.7815 44.0174 5.76255 50.6943C-0.197376 57.3041 1.39994 66.3321 5.40443 70.4912C6.48491 66.1471 9.12811 63.2021 13.2913 61.6198V61.6158ZM59.9717 60.3548V50.1472C59.7539 50.4645 59.6115 50.6597 59.4792 50.8672C57.2837 54.3206 54.8053 57.5563 52.038 60.5724C51.1834 61.5039 51.1752 61.5995 51.8426 62.6693C53.2283 64.8902 54.4859 67.1741 55.0454 69.7652C55.2306 70.6255 55.3405 71.5 55.487 72.3827H66.3935C66.479 71.74 66.5441 71.138 66.6438 70.5401C67.1342 67.6033 68.5158 65.0488 70.0684 62.5676C70.6584 61.6259 70.6401 61.4714 69.8873 60.6518C67.0813 57.6011 64.5703 54.3267 62.3463 50.8306C62.2201 50.6313 62.0736 50.4442 61.8396 50.1147C61.8396 53.4115 61.8498 56.5272 61.8294 59.641C61.8254 60.1494 61.9556 60.428 62.4399 60.6802C63.6302 61.2944 64.2041 62.7059 63.8866 63.9811C63.5468 65.3498 62.3605 66.3159 60.9789 66.3464C59.638 66.3769 58.4069 65.4678 58.0162 64.158C57.5523 62.6042 58.2238 61.2965 59.9696 60.3548H59.9717ZM62.1265 16.4615V1.88533H60.281V15.6175C56.368 13.0122 52.565 10.4822 48.7192 7.91959C48.3631 8.47278 48.0661 8.93242 47.7303 9.45307C51.8019 12.1682 55.8166 14.8447 59.8577 17.5394C56.7221 21.123 53.6516 24.6292 50.5424 28.1823C51.0328 28.5911 51.4703 28.9531 51.9301 29.3354C52.1825 29.0629 52.3778 28.8676 52.5589 28.6602C55.432 25.3777 58.3133 22.0992 61.1681 18.7983C61.5222 18.3896 61.8762 18.2553 62.4012 18.2574C66.6906 18.2777 70.9799 18.2675 75.2673 18.2675H76.1117V16.4595H62.1265V16.4615ZM24.0819 22.4734C27.1239 21.0701 29.6552 19.3149 31.8731 17.1042C30.5525 15.3714 25.7789 12.095 24.2019 11.8163C26.4707 15.3043 26.4728 18.7922 24.0839 22.4734H24.0819ZM2.24032 17.0025C3.40829 18.5746 8.47901 22.1277 9.9339 22.2538C8.82493 20.6898 8.23891 18.9651 8.23077 17.0554C8.22059 15.1314 8.85138 13.4047 9.87692 11.7797C6.99361 13.0346 4.48267 14.7816 2.24032 17.0025ZM66.3508 74.3046H55.5073C55.2977 74.9188 55.5501 75.1669 56.0811 75.3337C59.3205 76.3587 62.5477 76.3567 65.7871 75.3296C66.3223 75.1588 66.5441 74.8944 66.3508 74.3046Z" fill="white"/>
</svg>
