<svg width="28" height="28" viewBox="0 0 28 28" fill="none" xmlns="http://www.w3.org/2000/svg">
<path d="M20.2222 12.4444V7.77778H15.5556V4.66667H20.2222V0H23.3333V4.66667H28V7.77778H23.3333V12.4444H20.2222ZM26.3667 28C23.0222 28 19.7618 27.2544 16.5853 25.7631C13.4089 24.2719 10.5959 22.3015 8.14645 19.852C5.69696 17.4025 3.72659 14.5896 2.23533 11.4131C0.744075 8.23667 -0.00103596 4.97674 1.081e-06 1.63333C1.081e-06 1.16667 0.155557 0.777778 0.466668 0.466667C0.777779 0.155555 1.16667 0 1.63333 0H7.93333C8.2963 0 8.62037 0.116667 8.90556 0.35C9.19074 0.583333 9.35926 0.881481 9.41111 1.24444L10.4222 6.68889C10.4741 7.05185 10.4673 7.38267 10.402 7.68133C10.3367 7.98 10.1879 8.24548 9.95556 8.47778L6.22222 12.2889C7.31111 14.1556 8.67222 15.9056 10.3056 17.5389C11.9389 19.1722 13.7407 20.5852 15.7111 21.7778L19.3667 18.1222C19.6 17.8889 19.9049 17.7141 20.2813 17.598C20.6578 17.4819 21.027 17.4492 21.3889 17.5L26.7556 18.5889C27.1185 18.6667 27.4167 18.8419 27.65 19.1147C27.8833 19.3874 28 19.7047 28 20.0667V26.3667C28 26.8333 27.8444 27.2222 27.5333 27.5333C27.2222 27.8444 26.8333 28 26.3667 28Z" fill="#307FD2"/>
</svg>
